<svg width="17" height="16" viewBox="0 0 17 16" fill="none" xmlns="http://www.w3.org/2000/svg">
<path fillRule="evenodd" clipRule="evenodd" d="M8.59961 0C4.18312 0 0.599609 3.58352 0.599609 8C0.599609 12.4165 4.18312 16 8.59961 16C13.0074 16 16.5996 12.4165 16.5996 8C16.5996 3.58352 13.0074 0 8.59961 0ZM13.8838 3.68763C14.8382 4.85033 15.4109 6.33405 15.4283 7.93925C15.2027 7.8959 12.9467 7.436 10.6734 7.72235C10.6213 7.60955 10.5779 7.48805 10.5259 7.3666C10.387 7.0369 10.2309 6.6985 10.0747 6.37745C12.5909 5.3536 13.7363 3.87853 13.8838 3.68763ZM8.59961 1.18005C10.335 1.18005 11.9228 1.83081 13.1289 2.89805C13.0074 3.07159 11.9749 4.45119 9.54536 5.36225C8.42606 3.30585 7.18531 1.62256 6.99441 1.36225C7.50631 1.24078 8.04431 1.18005 8.59961 1.18005ZM5.69291 1.82212C5.87511 2.06507 7.08986 3.75705 8.22651 5.77005C5.03345 6.6204 2.21349 6.60305 1.9098 6.60305C2.35232 4.4859 3.78399 2.72451 5.69291 1.82212ZM1.7623 8.0087C1.7623 7.93925 1.7623 7.86985 1.7623 7.80045C2.05731 7.8091 5.37184 7.8525 8.78181 6.82865C8.98141 7.2104 9.16361 7.60085 9.33716 7.9913C9.25036 8.01735 9.15491 8.0434 9.06816 8.0694C5.54538 9.20605 3.67119 12.3124 3.51501 12.5726C2.43041 11.3666 1.7623 9.7614 1.7623 8.0087ZM8.59961 14.8373C7.02041 14.8373 5.56273 14.2993 4.40872 13.3969C4.53019 13.1453 5.91846 10.4729 9.77096 9.128C9.78831 9.1193 9.79701 9.1193 9.81436 9.11065C10.7775 11.6009 11.168 13.692 11.2721 14.2907C10.4478 14.6464 9.54536 14.8373 8.59961 14.8373ZM12.4087 13.6659C12.3393 13.2494 11.9749 11.2538 11.0812 8.79825C13.2244 8.45985 15.0985 9.0152 15.3328 9.0933C15.0378 10.9935 13.9445 12.6334 12.4087 13.6659Z" fill="#313339"/>
</svg>
