<svg width="17" height="16" viewBox="0 0 17 16" fill="none" xmlns="http://www.w3.org/2000/svg">
<path fillRule="evenodd" clipRule="evenodd" d="M8.2002 16C12.6185 16 16.2002 12.4183 16.2002 8C16.2002 3.58172 12.6185 0 8.2002 0C3.78192 0 0.200195 3.58172 0.200195 8C0.200195 12.4183 3.78192 16 8.2002 16ZM2.86686 11.5323V4.33333H6.10669C7.14733 4.33333 7.99094 5.19989 7.99094 6.26884C7.99094 6.9481 7.7876 7.36887 7.04203 7.80053C7.93422 8.2181 8.182 8.79684 8.182 9.6041C8.182 10.6961 7.23757 11.5323 6.17446 11.5323H2.86686ZM4.23782 5.525V7.25608H5.84238C5.84238 7.25608 6.62225 7.25608 6.62225 6.39054C6.62225 5.525 5.84238 5.525 5.84238 5.525H4.23782ZM4.23782 10.3131V8.4439H5.95891C6.2368 8.4439 6.81946 8.59123 6.81946 9.47519C6.81946 10.1308 6.24576 10.307 5.95891 10.3131H4.23782ZM11.1132 6.31688C10.1272 6.31688 8.66605 7.0443 8.66605 8.97796C8.66605 10.1554 9.29354 11.6667 11.176 11.6667C12.6819 11.6667 13.3752 10.531 13.5335 9.96321H12.1172C12.0455 10.221 11.7676 10.5065 11.176 10.5065C10.3154 10.5065 10.0107 9.75142 9.96584 9.3739H13.5335V8.97796C13.5335 7.0443 12.0993 6.31688 11.1132 6.31688ZM11.1132 7.42183C10.3101 7.42183 10.0136 8.10321 9.96584 8.4439H12.1172C12.1172 8.10321 11.9164 7.42183 11.1132 7.42183ZM9.4011 5.6355V4.74233H12.7805V5.6355H9.4011Z" fill="#313339"/>
</svg>
