<svg width="16" height="16" viewBox="0 0 16 16" fill="none" xmlns="http://www.w3.org/2000/svg">
<path fillRule="evenodd" clipRule="evenodd" d="M8 16C12.4183 16 16 12.4183 16 8C16 3.58172 12.4183 0 8 0C3.58172 0 0 3.58172 0 8C0 12.4183 3.58172 16 8 16ZM2.66667 11.5323V4.33333H5.9065C6.94714 4.33333 7.79074 5.19989 7.79074 6.26884C7.79074 6.9481 7.58741 7.36887 6.84184 7.80053C7.73402 8.2181 7.9818 8.79684 7.9818 9.6041C7.9818 10.6961 7.03737 11.5323 5.97427 11.5323H2.66667ZM4.03762 5.525V7.25608H5.64219C5.64219 7.25608 6.42206 7.25608 6.42206 6.39054C6.42206 5.525 5.64219 5.525 5.64219 5.525H4.03762ZM4.03762 10.3131V8.4439H5.75872C6.0366 8.4439 6.61927 8.59123 6.61927 9.47519C6.61927 10.1308 6.04557 10.307 5.75872 10.3131H4.03762ZM10.913 6.31688C9.927 6.31688 8.46586 7.0443 8.46586 8.97796C8.46586 10.1554 9.09334 11.6667 10.9758 11.6667C12.4817 11.6667 13.175 10.531 13.3333 9.96321H11.917C11.8453 10.221 11.5674 10.5065 10.9758 10.5065C10.1152 10.5065 9.81046 9.75142 9.76565 9.3739H13.3333V8.97796C13.3333 7.0443 11.8991 6.31688 10.913 6.31688ZM10.913 7.42183C10.1099 7.42183 9.81345 8.10321 9.76565 8.4439H11.917C11.917 8.10321 11.7162 7.42183 10.913 7.42183ZM9.20091 5.6355V4.74233H12.5804V5.6355H9.20091Z" fill="white"/>
</svg>
