<svg width="17" height="16" viewBox="0 0 17 16" fill="none" xmlns="http://www.w3.org/2000/svg">
<g clip-path="url(#clip0_5312_45394)">
<path d="M16.7998 8C16.7998 3.58172 13.2181 0 8.7998 0C4.38152 0 0.799805 3.58172 0.799805 8C0.799805 11.993 3.72527 15.3027 7.5498 15.9028V10.3125H5.51855V8H7.5498V6.2375C7.5498 4.2325 8.74418 3.125 10.5715 3.125C11.4465 3.125 12.3623 3.28125 12.3623 3.28125V5.25H11.3536C10.3598 5.25 10.0498 5.86672 10.0498 6.5V8H12.2686L11.9139 10.3125H10.0498V15.9028C13.8743 15.3027 16.7998 11.993 16.7998 8Z" fill="#313339"/>
</g>
<defs>
<clipPath id="clip0_5312_45394">
<rect width="16" height="16" fill="white" transform="translate(0.799805)"/>
</clipPath>
</defs>
</svg>
