<svg width="17" height="16" viewBox="0 0 17 16" fill="none" xmlns="http://www.w3.org/2000/svg">
<g clip-path="url(#clip0_5312_45396)">
<path d="M8.40039 1.44062C10.5379 1.44062 10.791 1.45 11.6316 1.4875C12.4129 1.52187 12.8348 1.65313 13.116 1.7625C13.4879 1.90625 13.7566 2.08125 14.0348 2.35938C14.316 2.64062 14.4879 2.90625 14.6316 3.27813C14.741 3.55938 14.8723 3.98438 14.9066 4.7625C14.9441 5.60625 14.9535 5.85938 14.9535 7.99375C14.9535 10.1313 14.9441 10.3844 14.9066 11.225C14.8723 12.0063 14.741 12.4281 14.6316 12.7094C14.4879 13.0813 14.3129 13.35 14.0348 13.6281C13.7535 13.9094 13.4879 14.0813 13.116 14.225C12.8348 14.3344 12.4098 14.4656 11.6316 14.5C10.7879 14.5375 10.5348 14.5469 8.40039 14.5469C6.26289 14.5469 6.00977 14.5375 5.16914 14.5C4.38789 14.4656 3.96602 14.3344 3.68477 14.225C3.31289 14.0813 3.04414 13.9063 2.76602 13.6281C2.48477 13.3469 2.31289 13.0813 2.16914 12.7094C2.05977 12.4281 1.92852 12.0031 1.89414 11.225C1.85664 10.3813 1.84727 10.1281 1.84727 7.99375C1.84727 5.85625 1.85664 5.60313 1.89414 4.7625C1.92852 3.98125 2.05977 3.55938 2.16914 3.27813C2.31289 2.90625 2.48789 2.6375 2.76602 2.35938C3.04727 2.07812 3.31289 1.90625 3.68477 1.7625C3.96602 1.65313 4.39102 1.52187 5.16914 1.4875C6.00977 1.45 6.26289 1.44062 8.40039 1.44062ZM8.40039 0C6.22852 0 5.95664 0.009375 5.10352 0.046875C4.25352 0.084375 3.66914 0.221875 3.16289 0.41875C2.63477 0.625 2.18789 0.896875 1.74414 1.34375C1.29727 1.7875 1.02539 2.23438 0.819141 2.75938C0.622266 3.26875 0.484766 3.85 0.447266 4.7C0.409766 5.55625 0.400391 5.82812 0.400391 8C0.400391 10.1719 0.409766 10.4438 0.447266 11.2969C0.484766 12.1469 0.622266 12.7313 0.819141 13.2375C1.02539 13.7656 1.29727 14.2125 1.74414 14.6562C2.18789 15.1 2.63477 15.375 3.15977 15.5781C3.66914 15.775 4.25039 15.9125 5.10039 15.95C5.95352 15.9875 6.22539 15.9969 8.39727 15.9969C10.5691 15.9969 10.841 15.9875 11.6941 15.95C12.5441 15.9125 13.1285 15.775 13.6348 15.5781C14.1598 15.375 14.6066 15.1 15.0504 14.6562C15.4941 14.2125 15.7691 13.7656 15.9723 13.2406C16.1691 12.7313 16.3066 12.15 16.3441 11.3C16.3816 10.4469 16.391 10.175 16.391 8.00313C16.391 5.83125 16.3816 5.55938 16.3441 4.70625C16.3066 3.85625 16.1691 3.27188 15.9723 2.76562C15.7754 2.23438 15.5035 1.7875 15.0566 1.34375C14.6129 0.9 14.166 0.625 13.641 0.421875C13.1316 0.225 12.5504 0.0875 11.7004 0.05C10.8441 0.009375 10.5723 0 8.40039 0Z" fill="#313339"/>
<path d="M8.40039 3.89062C6.13164 3.89062 4.29102 5.73125 4.29102 8C4.29102 10.2688 6.13164 12.1094 8.40039 12.1094C10.6691 12.1094 12.5098 10.2688 12.5098 8C12.5098 5.73125 10.6691 3.89062 8.40039 3.89062ZM8.40039 10.6656C6.92852 10.6656 5.73477 9.47188 5.73477 8C5.73477 6.52813 6.92852 5.33437 8.40039 5.33437C9.87227 5.33437 11.066 6.52813 11.066 8C11.066 9.47188 9.87227 10.6656 8.40039 10.6656Z" fill="#313339"/>
<path d="M13.6316 3.72891C13.6316 4.26016 13.2004 4.68828 12.6723 4.68828C12.141 4.68828 11.7129 4.25703 11.7129 3.72891C11.7129 3.19766 12.1441 2.76953 12.6723 2.76953C13.2004 2.76953 13.6316 3.20078 13.6316 3.72891Z" fill="#313339"/>
</g>
<defs>
<clipPath id="clip0_5312_45396">
<rect width="16" height="16" fill="white" transform="translate(0.400391)"/>
</clipPath>
</defs>
</svg>
