<svg width="16" height="16" viewBox="0 0 16 16" fill="none" xmlns="http://www.w3.org/2000/svg">
<path d="M15.8406 4.79989C15.8406 4.79989 15.6844 3.69677 15.2031 3.21239C14.5938 2.57489 13.9125 2.57177 13.6 2.53427C11.3625 2.37177 8.00313 2.37177 8.00313 2.37177H7.99687C7.99687 2.37177 4.6375 2.37177 2.4 2.53427C2.0875 2.57177 1.40625 2.57489 0.796875 3.21239C0.315625 3.69677 0.1625 4.79989 0.1625 4.79989C0.1625 4.79989 0 6.09677 0 7.39051V8.60301C0 9.89676 0.159375 11.1936 0.159375 11.1936C0.159375 11.1936 0.315625 12.2968 0.79375 12.7811C1.40313 13.4186 2.20313 13.3968 2.55938 13.4655C3.84063 13.5874 8 13.6249 8 13.6249C8 13.6249 11.3625 13.6186 13.6 13.4593C13.9125 13.4218 14.5938 13.4186 15.2031 12.7811C15.6844 12.2968 15.8406 11.1936 15.8406 11.1936C15.8406 11.1936 16 9.89989 16 8.60301V7.39051C16 6.09677 15.8406 4.79989 15.8406 4.79989ZM6.34688 10.0749V5.57801L10.6687 7.83426L6.34688 10.0749Z" fill="white"/>
</svg>
