<svg width="163" height="64" viewBox="0 0 163 64" fill="none" xmlns="http://www.w3.org/2000/svg">
<g clip-path="url(#clip0_5254_6916)">
<mask id="mask0_5254_6916" style="mask-type:luminance" maskUnits="userSpaceOnUse" x="0" y="0" width="163" height="64">
<path d="M162.54 0H0V63.8862H162.54V0Z" fill="white"/>
</mask>
<g mask="url(#mask0_5254_6916)">
<path d="M0 0V56.7304H36.5064L44.4485 63.8862V56.7304H56.4886V0H0Z" fill="white"/>
<path d="M40.3221 50.5173C38.3838 50.5173 36.7015 50.2105 35.2772 49.597C33.8509 48.9834 32.7396 48.0935 31.9391 46.9272C31.1386 45.761 30.7058 44.3612 30.6367 42.7276H34.8628C34.9196 43.6521 35.1919 44.418 35.6815 45.0255C36.1712 45.6351 36.8193 46.0942 37.6259 46.4031C38.4305 46.7139 39.3184 46.8683 40.2875 46.8683C41.3359 46.8683 42.2542 46.7099 43.0426 46.3949C43.8309 46.08 44.4506 45.6351 44.9016 45.0601C45.3527 44.4851 45.5782 43.8207 45.5782 43.0649C45.5782 42.3883 45.3872 41.8255 45.0032 41.3745C44.6192 40.9234 44.0788 40.5496 43.3798 40.2509C42.6809 39.9523 41.8581 39.68 40.9113 39.4321L38.0546 38.6885C35.903 38.1359 34.241 37.313 33.0687 36.2199C31.8964 35.1269 31.3113 33.7006 31.3113 31.9431C31.3113 30.466 31.7034 29.1759 32.4856 28.0726C33.2678 26.9694 34.3508 26.11 35.7303 25.4944C37.1099 24.8808 38.6682 24.574 40.4033 24.574C42.1384 24.574 43.7415 24.8848 45.0763 25.5045C46.4112 26.1242 47.4596 26.9775 48.2195 28.0645C48.9793 29.1515 49.3775 30.4112 49.4121 31.8415H45.3039C45.18 30.6916 44.6761 29.7996 43.7902 29.1617C42.9064 28.5257 41.7585 28.2067 40.3505 28.2067C39.3814 28.2067 38.5341 28.3571 37.8068 28.6537C37.0794 28.9524 36.5227 29.3669 36.1326 29.8951C35.7445 30.4254 35.5495 31.0227 35.5495 31.6871C35.5495 32.4084 35.7689 32.9996 36.2078 33.4629C36.6466 33.9261 37.2074 34.2999 37.8901 34.5864C38.5727 34.8729 39.2737 35.1086 39.9949 35.2874L42.4127 35.9131C43.3697 36.1265 44.286 36.4231 45.1596 36.801C46.0333 37.1789 46.8196 37.6462 47.5185 38.205C48.2174 38.7637 48.7701 39.4423 49.1744 40.2428C49.5807 41.0433 49.7839 41.9779 49.7839 43.0486C49.7839 44.5135 49.4101 45.8098 48.6603 46.9374C47.9106 48.065 46.8318 48.9427 45.4238 49.5746C44.0158 50.2065 42.3132 50.5214 40.318 50.5214L40.3221 50.5173Z" fill="#0057FF"/>
<path d="M24.2102 24.9417V39.8242C24.2102 43.4488 21.2621 46.3969 17.6375 46.3969C16.3636 46.3969 15.1384 46.023 14.0921 45.3526L11.4854 48.4591C13.2611 49.7229 15.4046 50.434 17.6375 50.434C23.4869 50.434 28.2473 45.6756 28.2473 39.8242V24.9417H24.2122H24.2102Z" fill="#0057FF"/>
<path d="M22.5341 24.9417H18.4746V28.9767H22.5341V24.9417Z" fill="#E7E9EA"/>
<path d="M16.7987 24.9417H12.7393V28.9767H16.7987V24.9417Z" fill="#E7E9EA"/>
<path d="M11.0629 24.9417H7.02783V28.9767H11.0629V24.9417Z" fill="#E7E9EA"/>
<path d="M11.0629 30.6528H7.02783V34.6879H11.0629V30.6528Z" fill="#E7E9EA"/>
<path d="M11.0751 40.1289C11.071 40.0273 11.0629 39.9257 11.0629 39.8221V36.3621H7.02783V39.8221C7.02783 40.1614 7.05018 40.4987 7.08066 40.8319L11.0751 40.1269V40.1289Z" fill="#E7E9EA"/>
<path d="M11.3594 41.7808L7.37109 42.4837C7.68398 43.6947 8.20614 44.8446 8.93351 45.889C9.31141 46.4294 9.73605 46.9292 10.1973 47.3843L12.806 44.2757C12.6049 44.0583 12.2432 43.5789 12.2432 43.5789C11.8552 43.0222 11.5585 42.4167 11.3614 41.7808H11.3594Z" fill="#E7E9EA"/>
<path d="M14.7686 36.4455C15.6618 36.4455 16.3859 35.7214 16.3859 34.8282C16.3859 33.9351 15.6618 33.2109 14.7686 33.2109C13.8754 33.2109 13.1514 33.9351 13.1514 34.8282C13.1514 35.7214 13.8754 36.4455 14.7686 36.4455Z" fill="#0057FF"/>
<path d="M20.5045 36.4455C21.3976 36.4455 22.1217 35.7214 22.1217 34.8282C22.1217 33.9351 21.3976 33.2109 20.5045 33.2109C19.6113 33.2109 18.8872 33.9351 18.8872 34.8282C18.8872 35.7214 19.6113 36.4455 20.5045 36.4455Z" fill="#0057FF"/>
<path d="M17.6377 43.833C15.9229 43.833 14.4113 42.6749 13.9663 41.017L15.7644 40.5334C15.992 41.3787 16.762 41.9699 17.6377 41.9699C18.5134 41.9699 19.2814 41.3787 19.5069 40.5355L21.307 41.015C20.8641 42.6749 19.3565 43.833 17.6377 43.833Z" fill="#0057FF"/>
<path d="M63.5186 50.1272V24.9417H68.3358L77.176 38.9891C77.4807 39.4625 77.881 40.133 78.3767 41.0006C78.8725 41.8681 79.3743 42.754 79.8802 43.654C79.8457 42.7072 79.8213 41.7645 79.805 40.8238C79.7888 39.8831 79.7786 39.1639 79.7786 38.6681V24.9437H84.2586V50.1292H79.4251L71.4464 37.4857C71.0848 36.9229 70.589 36.1081 69.9592 35.0435C69.3273 33.9789 68.6284 32.7639 67.8624 31.4006C67.9193 32.7984 67.9518 34.0215 67.964 35.0679C67.9742 36.1163 67.9803 36.9168 67.9803 37.4674V50.1272H63.5186Z" fill="white"/>
<path d="M93.3447 50.4136C91.5649 50.4136 90.0899 49.9666 88.9237 49.0706C87.7574 48.1746 87.1743 46.8357 87.1743 45.0559C87.1743 43.7027 87.5035 42.6584 88.1638 41.9209C88.8221 41.1834 89.6856 40.645 90.7502 40.3057C91.8148 39.9664 92.9607 39.7368 94.1899 39.6128C95.8458 39.4219 97.0019 39.2532 97.6541 39.1049C98.3083 38.9586 98.6354 38.5807 98.6354 37.9732V37.8371C98.6354 37.0711 98.3449 36.4454 97.7658 35.9618C97.1847 35.4782 96.3883 35.2344 95.3744 35.2344C94.3606 35.2344 93.4951 35.4762 92.847 35.9618C92.1988 36.4474 91.8473 37.0671 91.7904 37.8208H87.6823C87.7838 36.0512 88.5214 34.6269 89.8969 33.544C91.2703 32.4631 93.1253 31.9207 95.4577 31.9207C97.7902 31.9207 99.5923 32.4611 100.901 33.544C102.207 34.6249 102.861 36.0959 102.861 37.9549V50.1251H98.6699V47.6057H98.6029C98.1742 48.394 97.5545 49.0584 96.7438 49.6009C95.9332 50.1434 94.7995 50.4116 93.3468 50.4116L93.3447 50.4136ZM94.3931 47.2522C95.791 47.2522 96.8495 46.8885 97.5708 46.1612C98.292 45.4338 98.6516 44.552 98.6516 43.5158V41.5897C98.3916 41.7584 97.8897 41.9148 97.1461 42.055C96.4025 42.1952 95.5918 42.3334 94.7121 42.4695C93.7998 42.6056 93.0075 42.8616 92.337 43.2395C91.6665 43.6174 91.3313 44.2107 91.3313 45.0234C91.3313 45.7223 91.6076 46.2688 92.1602 46.663C92.7129 47.0572 93.4565 47.2542 94.3911 47.2542L94.3931 47.2522Z" fill="white"/>
<path d="M115.83 32.2763V35.7079H112.195V45.0052C112.195 45.6472 112.325 46.0901 112.583 46.3319C112.843 46.5737 113.315 46.6956 114.003 46.6956H115.83V50.1272H113.26C111.445 50.1272 110.102 49.7615 109.229 49.028C108.355 48.2966 107.918 47.1629 107.918 45.6309V35.7079H104.808V32.2763H107.918V27.4082H112.195V32.2763H115.83Z" fill="white"/>
<path d="M121.177 29.6228C120.444 29.6228 119.836 29.3892 119.351 28.9219C118.865 28.4546 118.624 27.8775 118.624 27.1888C118.624 26.5 118.865 25.9271 119.351 25.4638C119.834 25.0026 120.444 24.771 121.177 24.771C121.911 24.771 122.502 25.0026 122.986 25.4638C123.469 25.9271 123.713 26.5 123.713 27.1888C123.713 27.8775 123.471 28.4546 122.986 28.9219C122.502 29.3892 121.899 29.6228 121.177 29.6228ZM119.048 50.1272V32.2783H123.309V50.1272H119.048Z" fill="white"/>
<path d="M134.912 50.5316C133.155 50.5316 131.617 50.1395 130.298 49.3573C128.979 48.5751 127.951 47.484 127.214 46.0862C126.476 44.6883 126.106 43.067 126.106 41.2181C126.106 39.3692 126.476 37.7438 127.214 36.3419C127.951 34.938 128.979 33.8429 130.298 33.0545C131.617 32.2662 133.155 31.8721 134.912 31.8721C136.669 31.8721 138.193 32.2662 139.518 33.0545C140.843 33.8429 141.873 34.94 142.612 36.3419C143.35 37.7458 143.72 39.3712 143.72 41.2181C143.72 43.065 143.35 44.6883 142.612 46.0862C141.875 47.484 140.843 48.573 139.518 49.3573C138.193 50.1415 136.659 50.5316 134.912 50.5316ZM134.912 46.9659C136.275 46.9659 137.362 46.4539 138.175 45.4279C138.986 44.4018 139.392 42.9999 139.392 41.2181C139.392 39.4363 138.986 38.0283 138.175 36.9921C137.364 35.9559 136.275 35.4378 134.912 35.4378C133.549 35.4378 132.443 35.9538 131.633 36.9839C130.822 38.014 130.416 39.4261 130.416 41.2181C130.416 43.0101 130.822 44.4018 131.633 45.4279C132.443 46.4539 133.537 46.9659 134.912 46.9659Z" fill="white"/>
<path d="M150.758 40.0355V50.1272H146.497V32.2783H150.689V35.0171C151.928 32.9549 153.754 31.9248 156.166 31.9248C158.037 31.9248 159.567 32.5282 160.756 33.7331C161.944 34.9399 162.54 36.6852 162.54 38.9729V50.1292H158.263V39.6495C158.263 38.3431 157.948 37.3516 157.316 36.675C156.684 35.9985 155.8 35.6612 154.663 35.6612C153.525 35.6612 152.617 36.0106 151.873 36.7096C151.129 37.4085 150.758 38.5178 150.758 40.0396V40.0355Z" fill="white"/>
</g>
</g>
<defs>
<clipPath id="clip0_5254_6916">
<rect width="162.54" height="64" fill="white"/>
</clipPath>
</defs>
</svg>
