<svg xmlns="http://www.w3.org/2000/svg" width="68" height="74" viewBox="0 0 68 74" fill="none">
<path fill-rule="evenodd" clipRule="evenodd" d="M57.1393 22.4749L59.2352 26.1855V26.217C60.9853 29.3457 59.9406 33.3287 56.8927 35.1475C55.9175 35.7174 55.1089 36.5424 54.5503 37.5374C53.6913 39.0416 53.4556 40.8331 53.8952 42.5152C54.3349 44.1973 55.4137 45.6312 56.8927 46.4994C58.3718 47.3675 59.4506 48.8014 59.8902 50.4835C60.3299 52.1656 60.0941 53.9571 59.2352 55.4613L57.016 59.2348C55.2324 62.3631 51.3055 63.4315 48.2319 61.6247C47.2915 61.0763 46.2326 60.7738 45.1498 60.7442C43.4388 60.7358 41.7956 61.4255 40.5857 62.6598C39.3759 63.8942 38.6999 65.5707 38.7081 67.3163C38.6911 70.9337 35.8121 73.857 32.2664 73.857H28.0439C24.4862 73.857 21.6022 70.9146 21.6022 67.2849C21.5909 66.1775 21.2932 65.0927 20.7392 64.1403C19.8943 62.6335 18.4944 61.5334 16.8506 61.0846C15.2069 60.6358 13.4556 60.8755 11.9859 61.7505C10.4909 62.6055 8.72362 62.8174 7.07505 62.3394C5.42649 61.8613 4.03259 60.7328 3.20182 59.2034L1.07515 55.4613C-0.693056 52.335 0.355264 48.3383 3.41757 46.5308C5.41066 45.3568 6.63845 43.1872 6.63845 40.8391C6.63845 38.4911 5.41066 36.3215 3.41757 35.1475C0.35137 33.3277 -0.695808 29.3213 1.07515 26.1855L3.32511 22.412C5.09821 19.2723 9.02761 18.1892 12.1092 19.9907C13.0427 20.556 14.1059 20.8597 15.1914 20.8712C18.7132 20.8716 21.5825 17.9862 21.633 14.3934C21.6248 12.6533 22.2966 10.9815 23.4998 9.74812C24.703 8.51469 26.3383 7.82127 28.0439 7.82129H32.2664C34.0074 7.82056 35.6745 8.53882 36.888 9.81244C38.1015 11.0861 38.7581 12.8066 38.7081 14.5821C38.7194 15.6895 39.0171 16.7743 39.5711 17.7266C40.4323 19.225 41.8423 20.3123 43.4901 20.7488C45.138 21.1854 46.8883 20.9352 48.3552 20.0536C51.4368 18.2521 55.3662 19.3352 57.1393 22.4749Z" fill="#0057FF"/>
<g filter="url(#filter0_b_1280_437)">
<path fill-rule="evenodd" clipRule="evenodd" d="M64.818 14.7962L66.9139 18.5068V18.5382C68.664 21.667 67.6193 25.65 64.5715 27.4688C63.5962 28.0387 62.7876 28.8637 62.229 29.8587C61.3701 31.3629 61.1343 33.1544 61.574 34.8365C62.0136 36.5186 63.0924 37.9525 64.5715 38.8206C66.0505 39.6888 67.1293 41.1227 67.569 42.8048C68.0086 44.4869 67.7729 46.2784 66.9139 47.7826L64.6947 51.5561C62.9111 54.6844 58.9842 55.7528 55.9106 53.946C54.9702 53.3975 53.9113 53.0951 52.8285 53.0655C51.1175 53.0571 49.4743 53.7468 48.2644 54.9811C47.0546 56.2155 46.3786 57.892 46.3868 59.6376C46.3699 63.255 43.4908 66.1783 39.9451 66.1783H35.7226C32.165 66.1783 29.2809 63.2359 29.2809 59.6062C29.2697 58.4987 28.972 57.414 28.4179 56.4616C27.573 54.9548 26.1731 53.8547 24.5294 53.4059C22.8856 52.9571 21.1343 53.1968 19.6646 54.0717C18.1697 54.9268 16.4023 55.1387 14.7538 54.6607C13.1052 54.1826 11.7113 53.0541 10.8805 51.5247L8.75386 47.7826C6.98565 44.6563 8.03398 40.6596 11.0963 38.8521C13.0894 37.6781 14.3172 35.5084 14.3172 33.1604C14.3172 30.8124 13.0894 28.6428 11.0963 27.4688C8.03008 25.649 6.9829 21.6426 8.75386 18.5068L11.0038 14.7333C12.7769 11.5936 16.7063 10.5105 19.7879 12.312C20.7214 12.8773 21.7846 13.181 22.8701 13.1925C26.3919 13.1929 29.2612 10.3075 29.3118 6.71471C29.3035 4.97457 29.9754 3.30283 31.1785 2.0694C32.3817 0.835979 34.017 0.142559 35.7226 0.142579H39.9451C41.6861 0.141847 43.3532 0.860105 44.5667 2.13373C45.7803 3.40736 46.4368 5.12789 46.3868 6.90338C46.3981 8.01081 46.6958 9.09556 47.2498 10.0479C48.111 11.5463 49.521 12.6336 51.1688 13.0701C52.8167 13.5067 54.567 13.2565 56.0339 12.3749C59.1155 10.5734 63.0449 11.6565 64.818 14.7962Z" fill="url(#paint0_linear_1280_437)"/>
<path d="M64.5133 14.9683L64.818 14.7962L64.5133 14.9683L66.572 18.6132C66.5793 18.6466 66.5916 18.679 66.6084 18.7091C68.2673 21.6747 67.2748 25.4469 64.3936 27.1674C63.3649 27.7688 62.5129 28.6385 61.9245 29.6862C61.0204 31.27 60.7727 33.1552 61.2353 34.925C61.6981 36.6954 62.8341 38.2067 64.3943 39.1225C65.7922 39.943 66.8138 41.2995 67.2303 42.8933C67.6468 44.4865 67.4236 46.183 66.6111 47.607C66.6107 47.6077 66.6103 47.6084 66.61 47.6091L64.393 51.3787L64.393 51.3787L64.3907 51.3827C62.702 54.3445 58.9905 55.3505 56.088 53.6442L56.087 53.6436C55.096 53.0658 53.9799 52.7468 52.838 52.7156L52.838 52.7155L52.8302 52.7155C51.0235 52.7066 49.2898 53.435 48.0145 54.7361C46.7398 56.0366 46.0286 57.8014 46.0368 59.6375C46.0199 63.0681 43.2911 65.8283 39.9451 65.8283H35.7226C32.3648 65.8283 29.6309 63.0492 29.6309 59.6062L29.6309 59.6026C29.619 58.4358 29.3056 57.2925 28.7219 56.2881C27.8317 54.7019 26.3563 53.5419 24.6215 53.0683C22.8868 52.5946 21.0387 52.8474 19.4883 53.7694C18.0759 54.5763 16.4075 54.7758 14.8512 54.3245C13.2939 53.8729 11.9749 52.8061 11.1881 51.3576L11.1881 51.3576L11.1848 51.3517L9.05851 47.6103C7.38264 44.6473 8.37894 40.8624 11.2742 39.1535C13.3759 37.9154 14.6672 35.63 14.6672 33.1604C14.6672 30.691 13.376 28.4056 11.2744 27.1675C8.37619 25.4471 7.38058 21.6546 9.05662 18.6824L11.3044 14.9126L11.3045 14.9126L11.3086 14.9054C12.9869 11.9336 16.6993 10.9135 19.609 12.6128C20.5952 13.2094 21.7188 13.5303 22.8664 13.5425V13.5425L22.87 13.5425C26.5897 13.5429 29.6086 10.4973 29.6617 6.71963L29.6618 6.71963L29.6617 6.71306C29.654 5.06379 30.2908 3.48072 31.4291 2.3138C32.5671 1.14712 34.1124 0.49256 35.7226 0.492579L39.9451 0.492579L39.9453 0.492579C41.5893 0.491888 43.1651 1.17008 44.3133 2.37516C45.4618 3.58051 46.0843 5.21029 46.037 6.89353L46.0367 6.89352L46.0368 6.90694C46.0487 8.07435 46.3624 9.21827 46.9468 10.2231C47.8539 11.8008 49.34 12.9477 51.0792 13.4085C52.8182 13.8691 54.665 13.6053 56.2122 12.6761C59.122 10.9762 62.8349 11.9963 64.5133 14.9683Z" stroke="url(#paint1_linear_1280_437)" stroke-width="0.7" stroke-linecap="round" stroke-linejoin="round"/>
</g>
<path d="M38.6069 43.6424C43.9719 43.6424 48.3212 39.2932 48.3212 33.9282C48.3212 28.5631 43.9719 24.2139 38.6069 24.2139C33.2418 24.2139 28.8926 28.5631 28.8926 33.9282C28.8926 39.2932 33.2418 43.6424 38.6069 43.6424Z" fill="white" stroke="url(#paint2_linear_1280_437)"/>
<defs>
<filter id="filter0_b_1280_437" x="-0.107422" y="-7.85742" width="75.8926" height="82.0361" filterUnits="userSpaceOnUse" color-interpolation-filters="sRGB">
<feFlood flood-opacity="0" result="BackgroundImageFix"/>
<feGaussianBlur in="BackgroundImageFix" stdDeviation="4"/>
<feComposite in2="SourceAlpha" operator="in" result="effect1_backgroundBlur_1280_437"/>
<feBlend mode="normal" in="SourceGraphic" in2="effect1_backgroundBlur_1280_437" result="shape"/>
</filter>
<linearGradient id="paint0_linear_1280_437" x1="5.28854" y1="24.5471" x2="67.7817" y2="25.9363" gradientUnits="userSpaceOnUse">
<stop offset="0.0520833" stop-color="white" stop-opacity="0.52"/>
<stop offset="1" stop-color="#4B89FF" stop-opacity="0.3"/>
</linearGradient>
<linearGradient id="paint1_linear_1280_437" x1="5.28854" y1="24.5471" x2="67.7817" y2="25.9363" gradientUnits="userSpaceOnUse">
<stop offset="0.0520833" stop-color="white" stop-opacity="0.52"/>
<stop offset="1" stop-color="#4B89FF" stop-opacity="0.3"/>
</linearGradient>
<linearGradient id="paint2_linear_1280_437" x1="28.5913" y1="31.5244" x2="47.8179" y2="31.9957" gradientUnits="userSpaceOnUse">
<stop offset="0.0520833" stop-color="white" stop-opacity="0.52"/>
<stop offset="1" stop-color="#4B89FF" stop-opacity="0.3"/>
</linearGradient>
</defs>
</svg>
