<svg xmlns="http://www.w3.org/2000/svg" width="87" height="86" viewBox="0 0 87 86" fill="none">
<path fill-rule="evenodd" clipRule="evenodd" d="M48.0703 48.8988C52.2329 46.5267 55.043 42.023 55.043 36.8576C55.043 29.2242 48.9065 23.0361 41.3367 23.0361C33.767 23.0361 27.6305 29.2242 27.6305 36.8576C27.6305 42.023 30.4405 46.5267 34.6031 48.8988C31.6509 50.0794 29.0762 52.0132 27.1123 54.4652C25.9592 53.004 24.4509 51.8515 22.7227 51.1465C25.1713 49.7232 26.8242 47.0211 26.8242 43.9218C26.8242 39.3418 23.2145 35.6289 18.7617 35.6289C14.3089 35.6289 10.6992 39.3418 10.6992 43.9218C10.6992 47.0211 12.3522 49.7232 14.8008 51.1465C10.8239 52.7686 8.01172 56.761 8.01172 61.4289H23.6375C23.2616 62.9015 23.0617 64.4453 23.0617 66.0361H59.6117C59.6117 64.4453 59.4118 62.9015 59.036 61.4289H74.6618C74.6618 56.761 71.8495 52.7686 67.8727 51.1465C70.3213 49.7232 71.9743 47.0211 71.9743 43.9218C71.9743 39.3418 68.3646 35.6289 63.9118 35.6289C59.459 35.6289 55.8493 39.3418 55.8493 43.9218C55.8493 47.0211 57.5022 49.7232 59.9508 51.1465C58.2226 51.8515 56.7142 53.0041 55.5611 54.4652C53.5972 52.0132 51.0225 50.0794 48.0703 48.8988Z" fill="#0057FF"/>
<g filter="url(#filter0_b_1280_460)">
<mask id="path-2-inside-1_1280_460" fill="white">
<path fill-rule="evenodd" clipRule="evenodd" d="M52.6777 44.2914C56.8404 41.9193 59.6504 37.4156 59.6504 32.2501C59.6504 24.6168 53.5139 18.4287 45.9441 18.4287C38.3744 18.4287 32.2379 24.6168 32.2379 32.2501C32.2379 37.4156 35.0479 41.9193 39.2105 44.2914C36.2583 45.472 33.6837 47.4058 31.7198 49.8577C30.5666 48.3966 29.0583 47.2441 27.3301 46.5391C29.7787 45.1158 31.4316 42.4136 31.4316 39.3144C31.4316 34.7343 27.8219 31.0215 23.3691 31.0215C18.9163 31.0215 15.3066 34.7343 15.3066 39.3144C15.3066 42.4136 16.9596 45.1158 19.4082 46.5391C15.4313 48.1612 12.6191 52.1536 12.6191 56.8215H28.2449C27.869 58.2941 27.6691 59.8378 27.6691 61.4287H64.2191C64.2191 59.8378 64.0192 58.2941 63.6434 56.8215H79.2692C79.2692 52.1536 76.457 48.1612 72.4801 46.5391C74.9287 45.1158 76.5817 42.4136 76.5817 39.3144C76.5817 34.7343 72.972 31.0215 68.5192 31.0215C64.0664 31.0215 60.4567 34.7343 60.4567 39.3144C60.4567 42.4136 62.1096 45.1158 64.5582 46.5391C62.83 47.2441 61.3217 48.3966 60.1685 49.8578C58.2046 47.4058 55.63 45.472 52.6777 44.2914Z"/>
</mask>
<path fill-rule="evenodd" clipRule="evenodd" d="M52.6777 44.2914C56.8404 41.9193 59.6504 37.4156 59.6504 32.2501C59.6504 24.6168 53.5139 18.4287 45.9441 18.4287C38.3744 18.4287 32.2379 24.6168 32.2379 32.2501C32.2379 37.4156 35.0479 41.9193 39.2105 44.2914C36.2583 45.472 33.6837 47.4058 31.7198 49.8577C30.5666 48.3966 29.0583 47.2441 27.3301 46.5391C29.7787 45.1158 31.4316 42.4136 31.4316 39.3144C31.4316 34.7343 27.8219 31.0215 23.3691 31.0215C18.9163 31.0215 15.3066 34.7343 15.3066 39.3144C15.3066 42.4136 16.9596 45.1158 19.4082 46.5391C15.4313 48.1612 12.6191 52.1536 12.6191 56.8215H28.2449C27.869 58.2941 27.6691 59.8378 27.6691 61.4287H64.2191C64.2191 59.8378 64.0192 58.2941 63.6434 56.8215H79.2692C79.2692 52.1536 76.457 48.1612 72.4801 46.5391C74.9287 45.1158 76.5817 42.4136 76.5817 39.3144C76.5817 34.7343 72.972 31.0215 68.5192 31.0215C64.0664 31.0215 60.4567 34.7343 60.4567 39.3144C60.4567 42.4136 62.1096 45.1158 64.5582 46.5391C62.83 47.2441 61.3217 48.3966 60.1685 49.8578C58.2046 47.4058 55.63 45.472 52.6777 44.2914Z" fill="url(#paint0_linear_1280_460)"/>
<path d="M52.6777 44.2914L52.3312 43.6832L51.0695 44.4022L52.4178 44.9414L52.6777 44.2914ZM39.2105 44.2914L39.4704 44.9414L40.8187 44.4022L39.5571 43.6832L39.2105 44.2914ZM31.7198 49.8577L31.1703 50.2914L31.7157 50.9825L32.2661 50.2953L31.7198 49.8577ZM27.3301 46.5391L26.9783 45.9339L25.7473 46.6495L27.0657 47.1873L27.3301 46.5391ZM19.4082 46.5391L19.6726 47.1873L20.991 46.6495L19.76 45.9339L19.4082 46.5391ZM12.6191 56.8215H11.9191V57.5215H12.6191V56.8215ZM28.2449 56.8215L28.9232 56.9946L29.146 56.1215H28.2449V56.8215ZM27.6691 61.4287H26.9691V62.1287H27.6691V61.4287ZM64.2191 61.4287V62.1287H64.9191V61.4287H64.2191ZM63.6434 56.8215V56.1215H62.7423L62.9651 56.9946L63.6434 56.8215ZM79.2692 56.8215V57.5215H79.9692V56.8215H79.2692ZM72.4801 46.5391L72.1283 45.9339L70.8973 46.6495L72.2158 47.1873L72.4801 46.5391ZM64.5582 46.5391L64.8226 47.1873L66.1411 46.6495L64.91 45.9339L64.5582 46.5391ZM60.1685 49.8578L59.6222 50.2954L60.1726 50.9826L60.718 50.2914L60.1685 49.8578ZM58.9504 32.2501C58.9504 37.156 56.2824 41.4315 52.3312 43.6832L53.0243 44.8996C57.3983 42.407 60.3504 37.6752 60.3504 32.2501H58.9504ZM45.9441 19.1287C53.1218 19.1287 58.9504 24.9978 58.9504 32.2501H60.3504C60.3504 24.2357 53.906 17.7287 45.9441 17.7287V19.1287ZM32.9379 32.2501C32.9379 24.9978 38.7665 19.1287 45.9441 19.1287V17.7287C37.9823 17.7287 31.5379 24.2357 31.5379 32.2501H32.9379ZM39.5571 43.6832C35.6058 41.4315 32.9379 37.156 32.9379 32.2501H31.5379C31.5379 37.6752 34.49 42.407 38.864 44.8996L39.5571 43.6832ZM32.2661 50.2953C34.156 47.9359 36.6326 46.0762 39.4704 44.9414L38.9506 43.6415C35.884 44.8678 33.2114 46.8757 31.1734 49.4201L32.2661 50.2953ZM27.0657 47.1873C28.6787 47.8452 30.0898 48.9224 31.1703 50.2914L32.2692 49.4241C31.0434 47.8708 29.4379 46.6429 27.5945 45.891L27.0657 47.1873ZM30.7316 39.3144C30.7316 42.1608 29.2143 44.6342 26.9783 45.9339L27.6819 47.1443C30.343 45.5974 32.1316 42.6664 32.1316 39.3144H30.7316ZM23.3691 31.7215C27.4169 31.7215 30.7316 35.1022 30.7316 39.3144H32.1316C32.1316 34.3665 28.227 30.3215 23.3691 30.3215V31.7215ZM16.0066 39.3144C16.0066 35.1022 19.3214 31.7215 23.3691 31.7215V30.3215C18.5113 30.3215 14.6066 34.3665 14.6066 39.3144H16.0066ZM19.76 45.9339C17.5239 44.6342 16.0066 42.1608 16.0066 39.3144H14.6066C14.6066 42.6664 16.3952 45.5974 19.0564 47.1443L19.76 45.9339ZM13.3191 56.8215C13.3191 52.4385 15.9588 48.7021 19.6726 47.1873L19.1438 45.891C14.9039 47.6204 11.9191 51.8687 11.9191 56.8215H13.3191ZM28.2449 56.1215H12.6191V57.5215H28.2449V56.1215ZM28.3691 61.4287C28.3691 59.8967 28.5616 58.411 28.9232 56.9946L27.5666 56.6484C27.1765 58.1771 26.9691 59.779 26.9691 61.4287H28.3691ZM64.2191 60.7287H27.6691V62.1287H64.2191V60.7287ZM62.9651 56.9946C63.3266 58.411 63.5191 59.8967 63.5191 61.4287H64.9191C64.9191 59.779 64.7118 58.1771 64.3216 56.6484L62.9651 56.9946ZM63.6434 57.5215H79.2692V56.1215H63.6434V57.5215ZM79.9692 56.8215C79.9692 51.8687 76.9844 47.6204 72.7445 45.891L72.2158 47.1873C75.9295 48.7021 78.5692 52.4385 78.5692 56.8215H79.9692ZM72.8319 47.1443C75.4931 45.5974 77.2817 42.6664 77.2817 39.3144H75.8817C75.8817 42.1608 74.3644 44.6342 72.1283 45.9339L72.8319 47.1443ZM77.2817 39.3144C77.2817 34.3665 73.377 30.3215 68.5192 30.3215V31.7215C72.5669 31.7215 75.8817 35.1022 75.8817 39.3144H77.2817ZM68.5192 30.3215C63.6613 30.3215 59.7567 34.3665 59.7567 39.3144H61.1567C61.1567 35.1022 64.4714 31.7215 68.5192 31.7215V30.3215ZM59.7567 39.3144C59.7567 42.6664 61.5453 45.5974 64.2065 47.1443L64.91 45.9339C62.674 44.6342 61.1567 42.1608 61.1567 39.3144H59.7567ZM64.2939 45.891C62.4504 46.6429 60.8449 47.8709 59.619 49.4241L60.718 50.2914C61.7985 48.9224 63.2096 47.8452 64.8226 47.1873L64.2939 45.891ZM52.4178 44.9414C55.2556 46.0762 57.7323 47.9359 59.6222 50.2954L60.7149 49.4202C58.6769 46.8757 56.0043 44.8678 52.9376 43.6415L52.4178 44.9414Z" fill="url(#paint1_linear_1280_460)" mask="url(#path-2-inside-1_1280_460)"/>
</g>
<defs>
<filter id="filter0_b_1280_460" x="4.61914" y="10.4287" width="82.6504" height="59" filterUnits="userSpaceOnUse" color-interpolation-filters="sRGB">
<feFlood flood-opacity="0" result="BackgroundImageFix"/>
<feGaussianBlur in="BackgroundImageFix" stdDeviation="4"/>
<feComposite in2="SourceAlpha" operator="in" result="effect1_backgroundBlur_1280_460"/>
<feBlend mode="normal" in="SourceGraphic" in2="effect1_backgroundBlur_1280_460" result="shape"/>
</filter>
<linearGradient id="paint0_linear_1280_460" x1="9.72131" y1="34.32" x2="79.1991" y2="36.9595" gradientUnits="userSpaceOnUse">
<stop offset="0.0520833" stop-color="white" stop-opacity="0.52"/>
<stop offset="1" stop-color="#4B89FF" stop-opacity="0.3"/>
</linearGradient>
<linearGradient id="paint1_linear_1280_460" x1="9.72131" y1="34.32" x2="79.1991" y2="36.9595" gradientUnits="userSpaceOnUse">
<stop offset="0.0520833" stop-color="white" stop-opacity="0.52"/>
<stop offset="1" stop-color="#4B89FF" stop-opacity="0.3"/>
</linearGradient>
</defs>
</svg>
