<svg width="86" height="86" viewBox="0 0 86 86" fill="none" xmlns="http://www.w3.org/2000/svg">
<g clip-path="url(#clip0_6743_32866)">
<path d="M55.2824 37.8304L44.1135 43.6485V55.2849L55.2824 49.4667V37.8304Z" fill="#6198F7"/>
<path d="M30.7109 37.8304L41.8798 43.6485V55.2849L30.7109 49.4667V37.8304Z" fill="#6198F7"/>
<path d="M42.9967 40.8141L31.8278 34.9959L42.9967 29.1777L54.1655 34.9959L42.9967 40.8141Z" fill="#6198F7"/>
<path fillRule="evenodd" clipRule="evenodd" d="M37.7936 6.14258H48.1379L50.7663 17.106L55.1252 19.0946L65.1711 13.2748L72.5998 20.5371L66.6571 31.3816L68.1754 34.5481L79.4308 37.6779V48.3128L68.2376 51.0362L66.6368 55.2094L72.6222 64.9617L65.1806 72.7216L55.1208 66.5052L51.1049 68.4595L48.0983 79.4327H37.8331L34.8266 68.4595L30.826 66.5127L21.1585 72.7165L13.3147 65.0183L18.8928 55.3238L16.7053 51.0468L6.14062 48.2926V37.7L16.7729 34.5322L18.8704 31.2514L13.3719 20.5484L20.3804 13.24L30.1364 19.1093L35.1748 17.0661L37.7936 6.14258ZM40.2157 9.21401L37.7932 19.3186L29.8682 22.5324L20.8992 17.1366L17.1048 21.0933L22.4092 31.4183L18.7451 37.1495L9.21205 39.9898V45.9192L18.8127 48.4221L22.3868 55.41L17.162 64.4906L21.5615 68.8085L30.6189 62.9962L37.4213 66.3064L40.1762 76.3613H45.7553L48.5102 66.3064L55.2972 63.0037L64.6826 68.8033L68.7641 64.5473L63.2264 55.5244L65.9467 48.4326L76.3593 45.8991V40.0118L66.0089 37.1336L63.206 31.2881L68.7865 21.1045L64.6921 17.1019L55.2928 22.5471L48.1287 19.2786L45.7157 9.21401H40.2157Z" fill="url(#paint0_linear_6743_32866)"/>
<path fillRule="evenodd" clipRule="evenodd" d="M29.5673 29.5706C22.0707 37.0673 22.0707 49.2218 29.5673 56.7184C37.064 64.2151 49.2185 64.2151 56.7152 56.7185C64.2119 49.2218 64.2119 37.0673 56.7152 29.5706C49.2185 22.0739 37.064 22.0739 29.5673 29.5706ZM28.4814 28.4847C20.385 36.5811 20.385 49.708 28.4814 57.8044C36.5778 65.9008 49.7047 65.9008 57.8011 57.8044C65.8975 49.708 65.8975 36.5811 57.8011 28.4847C49.7047 20.3883 36.5778 20.3883 28.4814 28.4847Z" fill="url(#paint1_linear_6743_32866)"/>
</g>
<defs>
<linearGradient id="paint0_linear_6743_32866" x1="7.67634" y1="75.2497" x2="64.4978" y2="-14.5896" gradientUnits="userSpaceOnUse">
<stop stop-color="white"/>
<stop offset="1" stop-color="white" stop-opacity="0"/>
</linearGradient>
<linearGradient id="paint1_linear_6743_32866" x1="28.4814" y1="57.8044" x2="62.199" y2="24.0867" gradientUnits="userSpaceOnUse">
<stop stop-color="white"/>
<stop offset="1" stop-color="white" stop-opacity="0"/>
</linearGradient>
<clipPath id="clip0_6743_32866">
<rect width="86" height="86" fill="white"/>
</clipPath>
</defs>
</svg>
