<svg width="86" height="86" viewBox="0 0 86 86" fill="none" xmlns="http://www.w3.org/2000/svg">
<path d="M55.2863 37.8304L44.1174 43.6485V55.2849L55.2863 49.4667V37.8304Z" fill="#6198F7"/>
<path d="M30.7148 37.8304L41.8837 43.6485V55.2849L30.7148 49.4667V37.8304Z" fill="#6198F7"/>
<path d="M43.0006 40.8141L31.8317 34.9959L43.0006 29.1777L54.1694 34.9959L43.0006 40.8141Z" fill="#6198F7"/>
<path fillRule="evenodd" clipRule="evenodd" d="M37.7956 6.14258H48.1398L50.7682 17.106L55.1271 19.0946L65.173 13.2748L72.6017 20.5371L66.6591 31.3816L68.1774 34.5481L79.4327 37.6779V48.3128L68.2396 51.0362L66.6388 55.2094L72.6241 64.9617L65.1825 72.7216L55.1228 66.5052L51.1069 68.4595L48.1003 79.4327H37.8351L34.8285 68.4595L30.828 66.5127L21.1604 72.7165L13.3167 65.0183L18.8948 55.3238L16.7073 51.0468L6.14258 48.2926V37.7L16.7749 34.5322L18.8724 31.2514L13.3738 20.5484L20.3823 13.24L30.1383 19.1093L35.1767 17.0661L37.7956 6.14258ZM40.2177 9.21401L37.7952 19.3186L29.8702 22.5324L20.9012 17.1366L17.1068 21.0933L22.4111 31.4183L18.7471 37.1495L9.21401 39.9898V45.9192L18.8147 48.4221L22.3887 55.41L17.1639 64.4906L21.5634 68.8085L30.6209 62.9962L37.4232 66.3064L40.1782 76.3613H45.7572L48.5122 66.3064L55.2991 63.0037L64.6846 68.8033L68.766 64.5473L63.2283 55.5244L65.9487 48.4326L76.3613 45.8991V40.0118L66.0109 37.1336L63.208 31.2881L68.7884 21.1045L64.6941 17.1019L55.2948 22.5471L48.1306 19.2786L45.7177 9.21401H40.2177Z" fill="url(#paint0_linear_6554_90521)"/>
<path fillRule="evenodd" clipRule="evenodd" d="M29.5673 29.5706C22.0707 37.0673 22.0707 49.2218 29.5673 56.7184C37.064 64.2151 49.2185 64.2151 56.7152 56.7185C64.2119 49.2218 64.2119 37.0673 56.7152 29.5706C49.2185 22.0739 37.064 22.0739 29.5673 29.5706ZM28.4814 28.4847C20.385 36.5811 20.385 49.708 28.4814 57.8044C36.5778 65.9008 49.7047 65.9008 57.8011 57.8044C65.8975 49.708 65.8975 36.5811 57.8011 28.4847C49.7047 20.3883 36.5778 20.3883 28.4814 28.4847Z" fill="url(#paint1_linear_6554_90521)"/>
<defs>
<linearGradient id="paint0_linear_6554_90521" x1="7.67829" y1="75.2497" x2="64.4997" y2="-14.5896" gradientUnits="userSpaceOnUse">
<stop/>
<stop offset="1" stop-color="white" stop-opacity="0"/>
</linearGradient>
<linearGradient id="paint1_linear_6554_90521" x1="28.4814" y1="57.8044" x2="62.199" y2="24.0867" gradientUnits="userSpaceOnUse">
<stop/>
<stop offset="1" stop-color="white" stop-opacity="0"/>
</linearGradient>
</defs>
</svg>
