<svg width="87" height="87" viewBox="0 0 87 87" fill="none" xmlns="http://www.w3.org/2000/svg">
<g clip-path="url(#clip0_6836_49897)">
<path d="M43.6692 9.79297L46.0827 17.221H53.893L47.5743 21.8118L49.9879 29.2399L43.6692 24.6491L37.3505 29.2399L39.764 21.8118L33.4453 17.221H41.2556L43.6692 9.79297Z" fill="#6198F7"/>
<path d="M16.7916 13.4766L17.9984 17.1906H21.9035L18.7442 19.486L19.951 23.2L16.7916 20.9046L13.6323 23.2L14.839 19.486L11.6797 17.1906H15.5849L16.7916 13.4766Z" fill="#6198F7"/>
<path d="M70.5416 13.4766L71.7484 17.1906H75.6535L72.4942 19.486L73.701 23.2L70.5416 20.9046L67.3823 23.2L68.589 19.486L65.4297 17.1906H69.3349L70.5416 13.4766Z" fill="#6198F7"/>
<path fillRule="evenodd" clipRule="evenodd" d="M30.1328 65.3795C30.1328 57.9039 36.193 51.8438 43.6685 51.8438C51.1441 51.8438 57.2042 57.9039 57.2042 65.3795V70.9795H54.1328V65.3795C54.1328 59.6002 49.4478 54.9152 43.6685 54.9152C37.8893 54.9152 33.2042 59.6002 33.2042 65.3795V70.9795H30.1328V65.3795Z" fill="url(#paint0_linear_6836_49897)"/>
<path fillRule="evenodd" clipRule="evenodd" d="M5.63281 56.4961C5.63281 50.8158 10.2376 46.2109 15.918 46.2109C21.5983 46.2109 26.2032 50.8158 26.2032 56.4961V60.5792H23.1317V56.4961C23.1317 52.5121 19.902 49.2824 15.918 49.2824C11.9339 49.2824 8.70424 52.5121 8.70424 56.4961V60.5792H5.63281V56.4961Z" fill="url(#paint1_linear_6836_49897)"/>
<path fillRule="evenodd" clipRule="evenodd" d="M60.1328 56.4961C60.1328 50.8158 64.7376 46.2109 70.418 46.2109C76.0983 46.2109 80.7032 50.8158 80.7032 56.4961V60.5792H77.6318V56.4961C77.6318 52.5121 74.402 49.2824 70.418 49.2824C66.4339 49.2824 63.2042 52.5121 63.2042 56.4961V60.5792H60.1328V56.4961Z" fill="url(#paint2_linear_6836_49897)"/>
<path fillRule="evenodd" clipRule="evenodd" d="M43.6672 47.1067C46.831 47.1067 49.3958 44.5419 49.3958 41.3781C49.3958 38.2143 46.831 35.6496 43.6672 35.6496C40.5034 35.6496 37.9386 38.2143 37.9386 41.3781C37.9386 44.5419 40.5034 47.1067 43.6672 47.1067ZM43.6672 50.1781C48.5273 50.1781 52.4672 46.2382 52.4672 41.3781C52.4672 36.518 48.5273 32.5781 43.6672 32.5781C38.8071 32.5781 34.8672 36.518 34.8672 41.3781C34.8672 46.2382 38.8071 50.1781 43.6672 50.1781Z" fill="url(#paint3_linear_6836_49897)"/>
<path fillRule="evenodd" clipRule="evenodd" d="M15.9163 42.3392C17.7636 42.3392 19.2611 40.8417 19.2611 38.9944C19.2611 37.1471 17.7636 35.6496 15.9163 35.6496C14.069 35.6496 12.5714 37.1471 12.5714 38.9944C12.5714 40.8417 14.069 42.3392 15.9163 42.3392ZM15.9163 45.4107C19.4599 45.4107 22.3326 42.538 22.3326 38.9944C22.3326 35.4508 19.4599 32.5781 15.9163 32.5781C12.3727 32.5781 9.5 35.4508 9.5 38.9944C9.5 42.538 12.3727 45.4107 15.9163 45.4107Z" fill="url(#paint4_linear_6836_49897)"/>
<path fillRule="evenodd" clipRule="evenodd" d="M70.4163 42.3392C72.2636 42.3392 73.7611 40.8417 73.7611 38.9944C73.7611 37.1471 72.2636 35.6496 70.4163 35.6496C68.569 35.6496 67.0714 37.1471 67.0714 38.9944C67.0714 40.8417 68.569 42.3392 70.4163 42.3392ZM70.4163 45.4107C73.9599 45.4107 76.8326 42.538 76.8326 38.9944C76.8326 35.4508 73.9599 32.5781 70.4163 32.5781C66.8727 32.5781 64 35.4508 64 38.9944C64 42.538 66.8727 45.4107 70.4163 45.4107Z" fill="url(#paint5_linear_6836_49897)"/>
</g>
<defs>
<linearGradient id="paint0_linear_6836_49897" x1="43.6685" y1="53.3795" x2="43.6685" y2="78.5223" gradientUnits="userSpaceOnUse">
<stop stop-color="white"/>
<stop offset="1" stop-color="white" stop-opacity="0"/>
</linearGradient>
<linearGradient id="paint1_linear_6836_49897" x1="15.918" y1="47.7467" x2="15.918" y2="66.0789" gradientUnits="userSpaceOnUse">
<stop stop-color="white"/>
<stop offset="1" stop-color="white" stop-opacity="0"/>
</linearGradient>
<linearGradient id="paint2_linear_6836_49897" x1="70.418" y1="47.7467" x2="70.418" y2="66.0789" gradientUnits="userSpaceOnUse">
<stop stop-color="white"/>
<stop offset="1" stop-color="white" stop-opacity="0"/>
</linearGradient>
<linearGradient id="paint3_linear_6836_49897" x1="43.6672" y1="32.5781" x2="43.6672" y2="57.721" gradientUnits="userSpaceOnUse">
<stop stop-color="white"/>
<stop offset="1" stop-color="white" stop-opacity="0"/>
</linearGradient>
<linearGradient id="paint4_linear_6836_49897" x1="15.9163" y1="32.5781" x2="15.9163" y2="50.9103" gradientUnits="userSpaceOnUse">
<stop stop-color="white"/>
<stop offset="1" stop-color="white" stop-opacity="0"/>
</linearGradient>
<linearGradient id="paint5_linear_6836_49897" x1="70.4163" y1="32.5781" x2="70.4163" y2="50.9103" gradientUnits="userSpaceOnUse">
<stop stop-color="white"/>
<stop offset="1" stop-color="white" stop-opacity="0"/>
</linearGradient>
<clipPath id="clip0_6836_49897">
<rect width="86" height="86" fill="white" transform="translate(0.667969 0.578125)"/>
</clipPath>
</defs>
</svg>
