<svg width="87" height="86" viewBox="0 0 87 86" fill="none" xmlns="http://www.w3.org/2000/svg">
<path d="M43.6653 9.21484L46.0788 16.6429H53.8891L47.5704 21.2337L49.984 28.6618L43.6653 24.071L37.3466 28.6618L39.7601 21.2337L33.4414 16.6429H41.2517L43.6653 9.21484Z" fill="#6198F7"/>
<path d="M16.7916 12.8984L17.9984 16.6125H21.9035L18.7442 18.9079L19.951 22.6219L16.7916 20.3265L13.6323 22.6219L14.839 18.9079L11.6797 16.6125H15.5849L16.7916 12.8984Z" fill="#6198F7"/>
<path d="M70.5416 12.8984L71.7484 16.6125H75.6535L72.4942 18.9079L73.701 22.6219L70.5416 20.3265L67.3823 22.6219L68.589 18.9079L65.4297 16.6125H69.3349L70.5416 12.8984Z" fill="#6198F7"/>
<path fillRule="evenodd" clipRule="evenodd" d="M30.1309 64.8013C30.1309 57.3258 36.191 51.2656 43.6666 51.2656C51.1421 51.2656 57.2023 57.3258 57.2023 64.8013V70.4013H54.1309V64.8013C54.1309 59.0221 49.4458 54.3371 43.6666 54.3371C37.8873 54.3371 33.2023 59.0221 33.2023 64.8013V70.4013H30.1309V64.8013Z" fill="url(#paint0_linear_6747_77999)"/>
<path fillRule="evenodd" clipRule="evenodd" d="M5.63086 55.918C5.63086 50.2376 10.2357 45.6328 15.916 45.6328C21.5964 45.6328 26.2012 50.2376 26.2012 55.918V60.0011H23.1298V55.918C23.1298 51.9339 19.9001 48.7042 15.916 48.7042C11.932 48.7042 8.70229 51.9339 8.70229 55.918V60.0011H5.63086V55.918Z" fill="url(#paint1_linear_6747_77999)"/>
<path fillRule="evenodd" clipRule="evenodd" d="M60.1309 55.918C60.1309 50.2376 64.7357 45.6328 70.416 45.6328C76.0964 45.6328 80.7012 50.2376 80.7012 55.918V60.0011H77.6298V55.918C77.6298 51.9339 74.4001 48.7042 70.416 48.7042C66.432 48.7042 63.2023 51.9339 63.2023 55.918V60.0011H60.1309V55.918Z" fill="url(#paint2_linear_6747_77999)"/>
<path fillRule="evenodd" clipRule="evenodd" d="M43.6672 46.5286C46.831 46.5286 49.3958 43.9638 49.3958 40.8C49.3958 37.6362 46.831 35.0714 43.6672 35.0714C40.5034 35.0714 37.9386 37.6362 37.9386 40.8C37.9386 43.9638 40.5034 46.5286 43.6672 46.5286ZM43.6672 49.6C48.5273 49.6 52.4672 45.6601 52.4672 40.8C52.4672 35.9399 48.5273 32 43.6672 32C38.8071 32 34.8672 35.9399 34.8672 40.8C34.8672 45.6601 38.8071 49.6 43.6672 49.6Z" fill="url(#paint3_linear_6747_77999)"/>
<path fillRule="evenodd" clipRule="evenodd" d="M15.9163 41.7611C17.7636 41.7611 19.2611 40.2636 19.2611 38.4163C19.2611 36.569 17.7636 35.0714 15.9163 35.0714C14.069 35.0714 12.5714 36.569 12.5714 38.4163C12.5714 40.2636 14.069 41.7611 15.9163 41.7611ZM15.9163 44.8326C19.4599 44.8326 22.3326 41.9599 22.3326 38.4163C22.3326 34.8727 19.4599 32 15.9163 32C12.3727 32 9.5 34.8727 9.5 38.4163C9.5 41.9599 12.3727 44.8326 15.9163 44.8326Z" fill="url(#paint4_linear_6747_77999)"/>
<path fillRule="evenodd" clipRule="evenodd" d="M70.4163 41.7611C72.2636 41.7611 73.7611 40.2636 73.7611 38.4163C73.7611 36.569 72.2636 35.0714 70.4163 35.0714C68.569 35.0714 67.0714 36.569 67.0714 38.4163C67.0714 40.2636 68.569 41.7611 70.4163 41.7611ZM70.4163 44.8326C73.9599 44.8326 76.8326 41.9599 76.8326 38.4163C76.8326 34.8727 73.9599 32 70.4163 32C66.8727 32 64 34.8727 64 38.4163C64 41.9599 66.8727 44.8326 70.4163 44.8326Z" fill="url(#paint5_linear_6747_77999)"/>
<defs>
<linearGradient id="paint0_linear_6747_77999" x1="43.6666" y1="52.8013" x2="43.6666" y2="77.9442" gradientUnits="userSpaceOnUse">
<stop stop-color="#404040"/>
<stop offset="1" stop-color="white" stop-opacity="0"/>
</linearGradient>
<linearGradient id="paint1_linear_6747_77999" x1="15.916" y1="47.1685" x2="15.916" y2="65.5007" gradientUnits="userSpaceOnUse">
<stop stop-color="#404040"/>
<stop offset="1" stop-color="white" stop-opacity="0"/>
</linearGradient>
<linearGradient id="paint2_linear_6747_77999" x1="70.416" y1="47.1685" x2="70.416" y2="65.5007" gradientUnits="userSpaceOnUse">
<stop stop-color="#404040"/>
<stop offset="1" stop-color="white" stop-opacity="0"/>
</linearGradient>
<linearGradient id="paint3_linear_6747_77999" x1="43.6672" y1="32" x2="43.6672" y2="57.1429" gradientUnits="userSpaceOnUse">
<stop stop-color="#404040"/>
<stop offset="1" stop-color="white" stop-opacity="0"/>
</linearGradient>
<linearGradient id="paint4_linear_6747_77999" x1="15.9163" y1="32" x2="15.9163" y2="50.3322" gradientUnits="userSpaceOnUse">
<stop stop-color="#404040"/>
<stop offset="1" stop-color="white" stop-opacity="0"/>
</linearGradient>
<linearGradient id="paint5_linear_6747_77999" x1="70.4163" y1="32" x2="70.4163" y2="50.3322" gradientUnits="userSpaceOnUse">
<stop stop-color="#404040"/>
<stop offset="1" stop-color="white" stop-opacity="0"/>
</linearGradient>
</defs>
</svg>
