<svg xmlns="http://www.w3.org/2000/svg" width="87" height="86" viewBox="0 0 87 86" fill="none">
<path fill-rule="evenodd" clipRule="evenodd" d="M48.059 61.1271C52.1858 58.7753 54.9716 54.3105 54.9716 49.1896C54.9716 41.622 48.888 35.4873 41.3835 35.4873C33.879 35.4873 27.7954 41.622 27.7954 49.1896C27.7954 54.3105 30.5812 58.7753 34.7079 61.1271C31.7812 62.2974 29.2287 64.2146 27.2817 66.6454C26.1385 65.1969 24.6432 64.0542 22.9298 63.3554C25.3573 61.9444 26.996 59.2655 26.996 56.1929C26.996 51.6524 23.4174 47.9715 19.003 47.9715C14.5886 47.9715 11.01 51.6524 11.01 56.1929C11.01 59.2655 12.6487 61.9444 15.0762 63.3554C11.1337 64.9635 8.3457 68.9214 8.3457 73.5491H23.8368C23.4642 75.009 23.266 76.5395 23.266 78.1166H59.5009C59.5009 76.5395 59.3028 75.009 58.9301 73.5491H74.4212C74.4212 68.9214 71.6332 64.9635 67.6906 63.3554C70.1181 61.9444 71.7568 59.2655 71.7568 56.1929C71.7568 51.6524 68.1783 47.9715 63.7638 47.9715C59.3494 47.9715 55.7709 51.6524 55.7709 56.1929C55.7709 59.2655 57.4096 61.9444 59.8371 63.3554C58.1237 64.0542 56.6284 65.1969 55.4852 66.6454C53.5383 64.2146 50.9858 62.2974 48.059 61.1271Z" fill="#0057FF"/>
<g filter="url(#filter0_b_1280_497)">
<mask id="path-2-inside-1_1280_497" fill="white">
<path fill-rule="evenodd" clipRule="evenodd" d="M52.6264 56.5597C56.7532 54.208 59.539 49.7431 59.539 44.6222C59.539 37.0546 53.4554 30.9199 45.9509 30.9199C38.4464 30.9199 32.3628 37.0546 32.3628 44.6222C32.3628 49.7431 35.1486 54.208 39.2753 56.5597C36.3486 57.7301 33.7961 59.6472 31.8491 62.0781C30.7059 60.6295 29.2106 59.4869 27.4972 58.788C29.9247 57.377 31.5634 54.6981 31.5634 51.6255C31.5634 47.085 27.9848 43.4041 23.5704 43.4041C19.156 43.4041 15.5774 47.085 15.5774 51.6255C15.5774 54.6981 17.2161 57.377 19.6436 58.788C15.7011 60.3961 12.9131 64.354 12.9131 68.9817H28.4042C28.0316 70.4416 27.8334 71.9721 27.8334 73.5492H64.0683C64.0683 71.9721 63.8702 70.4416 63.4975 68.9817H78.9886C78.9886 64.354 76.2006 60.3961 72.258 58.788C74.6855 57.377 76.3242 54.6981 76.3242 51.6255C76.3242 47.085 72.7456 43.4041 68.3312 43.4041C63.9168 43.4041 60.3382 47.085 60.3382 51.6255C60.3382 54.6981 61.9769 57.377 64.4044 58.788C62.6911 59.4869 61.1958 60.6295 60.0526 62.078C58.1056 59.6472 55.5532 57.7301 52.6264 56.5597Z"/>
</mask>
<path fill-rule="evenodd" clipRule="evenodd" d="M52.6264 56.5597C56.7532 54.208 59.539 49.7431 59.539 44.6222C59.539 37.0546 53.4554 30.9199 45.9509 30.9199C38.4464 30.9199 32.3628 37.0546 32.3628 44.6222C32.3628 49.7431 35.1486 54.208 39.2753 56.5597C36.3486 57.7301 33.7961 59.6472 31.8491 62.0781C30.7059 60.6295 29.2106 59.4869 27.4972 58.788C29.9247 57.377 31.5634 54.6981 31.5634 51.6255C31.5634 47.085 27.9848 43.4041 23.5704 43.4041C19.156 43.4041 15.5774 47.085 15.5774 51.6255C15.5774 54.6981 17.2161 57.377 19.6436 58.788C15.7011 60.3961 12.9131 64.354 12.9131 68.9817H28.4042C28.0316 70.4416 27.8334 71.9721 27.8334 73.5492H64.0683C64.0683 71.9721 63.8702 70.4416 63.4975 68.9817H78.9886C78.9886 64.354 76.2006 60.3961 72.258 58.788C74.6855 57.377 76.3242 54.6981 76.3242 51.6255C76.3242 47.085 72.7456 43.4041 68.3312 43.4041C63.9168 43.4041 60.3382 47.085 60.3382 51.6255C60.3382 54.6981 61.9769 57.377 64.4044 58.788C62.6911 59.4869 61.1958 60.6295 60.0526 62.078C58.1056 59.6472 55.5532 57.7301 52.6264 56.5597Z" fill="url(#paint0_linear_1280_497)"/>
<path d="M52.6264 56.5597L52.2798 55.9515L51.0182 56.6705L52.3665 57.2096L52.6264 56.5597ZM39.2753 56.5597L39.5352 57.2096L40.8835 56.6705L39.6219 55.9515L39.2753 56.5597ZM31.8491 62.0781L31.2996 62.5117L31.845 63.2028L32.3954 62.5157L31.8491 62.0781ZM27.4972 58.788L27.1454 58.1828L25.9144 58.8984L27.2328 59.4362L27.4972 58.788ZM19.6436 58.788L19.908 59.4362L21.2264 58.8984L19.9954 58.1828L19.6436 58.788ZM12.9131 68.9817H12.2131V69.6817H12.9131V68.9817ZM28.4042 68.9817L29.0825 69.1549L29.3053 68.2817H28.4042V68.9817ZM27.8334 73.5492H27.1334V74.2492H27.8334V73.5492ZM64.0683 73.5492V74.2492H64.7683V73.5492H64.0683ZM63.4975 68.9817V68.2817H62.5964L62.8193 69.1549L63.4975 68.9817ZM78.9886 68.9817V69.6817H79.6886V68.9817H78.9886ZM72.258 58.788L71.9062 58.1828L70.6752 58.8984L71.9937 59.4362L72.258 58.788ZM64.4044 58.788L64.6688 59.4362L65.9873 58.8984L64.7562 58.1828L64.4044 58.788ZM60.0526 62.078L59.5063 62.5156L60.0567 63.2028L60.6021 62.5117L60.0526 62.078ZM58.839 44.6222C58.839 49.4835 56.1952 53.7202 52.2798 55.9515L52.973 57.1679C57.3111 54.6957 60.239 50.0028 60.239 44.6222H58.839ZM45.9509 31.6199C53.0633 31.6199 58.839 37.4357 58.839 44.6222H60.239C60.239 36.6736 53.8475 30.2199 45.9509 30.2199V31.6199ZM33.0628 44.6222C33.0628 37.4357 38.8385 31.6199 45.9509 31.6199V30.2199C38.0543 30.2199 31.6628 36.6736 31.6628 44.6222H33.0628ZM39.6219 55.9515C35.7065 53.7202 33.0628 49.4835 33.0628 44.6222H31.6628C31.6628 50.0028 34.5906 54.6957 38.9287 57.1679L39.6219 55.9515ZM32.3954 62.5157C34.2683 60.1773 36.7229 58.3343 39.5352 57.2096L39.0154 55.9097C35.9742 57.1258 33.3238 59.1172 31.3027 61.6405L32.3954 62.5157ZM27.2328 59.4362C28.831 60.088 30.2291 61.1553 31.2996 62.5117L32.3986 61.6444C31.1827 60.1037 29.5902 58.8857 27.7616 58.1398L27.2328 59.4362ZM30.8634 51.6255C30.8634 54.4453 29.3604 56.8953 27.1454 58.1828L27.849 59.3932C30.4891 57.8586 32.2634 54.9509 32.2634 51.6255H30.8634ZM23.5704 44.1041C27.5798 44.1041 30.8634 47.4529 30.8634 51.6255H32.2634C32.2634 46.7171 28.3899 42.7041 23.5704 42.7041V44.1041ZM16.2774 51.6255C16.2774 47.4529 19.5611 44.1041 23.5704 44.1041V42.7041C18.7509 42.7041 14.8774 46.7171 14.8774 51.6255H16.2774ZM19.9954 58.1828C17.7805 56.8953 16.2774 54.4453 16.2774 51.6255H14.8774C14.8774 54.9509 16.6518 57.8586 19.2918 59.3932L19.9954 58.1828ZM13.6131 68.9817C13.6131 64.6389 16.2285 60.937 19.908 59.4362L19.3792 58.1398C15.1736 59.8553 12.2131 64.0691 12.2131 68.9817H13.6131ZM28.4042 68.2817H12.9131V69.6817H28.4042V68.2817ZM28.5334 73.5492C28.5334 72.0309 28.7242 70.5586 29.0825 69.1549L27.726 68.8086C27.339 70.3246 27.1334 71.9132 27.1334 73.5492H28.5334ZM64.0683 72.8492H27.8334V74.2492H64.0683V72.8492ZM62.8193 69.1549C63.1776 70.5586 63.3683 72.0309 63.3683 73.5492H64.7683C64.7683 71.9132 64.5627 70.3246 64.1758 68.8086L62.8193 69.1549ZM63.4975 69.6817H78.9886V68.2817H63.4975V69.6817ZM79.6886 68.9817C79.6886 64.0691 76.728 59.8553 72.5224 58.1398L71.9937 59.4362C75.6731 60.937 78.2886 64.6389 78.2886 68.9817H79.6886ZM72.6098 59.3932C75.2499 57.8586 77.0242 54.9509 77.0242 51.6255H75.6242C75.6242 54.4453 74.1212 56.8953 71.9062 58.1828L72.6098 59.3932ZM77.0242 51.6255C77.0242 46.7171 73.1507 42.7041 68.3312 42.7041V44.1041C72.3406 44.1041 75.6242 47.4529 75.6242 51.6255H77.0242ZM68.3312 42.7041C63.5118 42.7041 59.6382 46.7171 59.6382 51.6255H61.0382C61.0382 47.4529 64.3219 44.1041 68.3312 44.1041V42.7041ZM59.6382 51.6255C59.6382 54.9509 61.4126 57.8586 64.0527 59.3932L64.7562 58.1828C62.5413 56.8953 61.0382 54.4453 61.0382 51.6255H59.6382ZM64.1401 58.1398C62.3115 58.8857 60.719 60.1037 59.5031 61.6443L60.6021 62.5117C61.6726 61.1553 63.0707 60.088 64.6688 59.4362L64.1401 58.1398ZM52.3665 57.2096C55.1789 58.3343 57.6334 60.1773 59.5063 62.5156L60.599 61.6404C58.5779 59.1171 55.9275 57.1258 52.8863 55.9097L52.3665 57.2096Z" fill="url(#paint1_linear_1280_497)" mask="url(#path-2-inside-1_1280_497)"/>
</g>
<path d="M42.6653 10.6774C42.815 10.2167 43.4667 10.2167 43.6164 10.6774L45.4421 16.2964C45.5091 16.5025 45.701 16.6419 45.9176 16.6419H51.8259C52.3102 16.6419 52.5116 17.2617 52.1198 17.5464L47.3399 21.0192C47.1647 21.1465 47.0913 21.3722 47.1583 21.5782L48.984 27.1973C49.1337 27.6579 48.6064 28.041 48.2146 27.7563L43.4347 24.2835C43.2595 24.1562 43.0222 24.1562 42.847 24.2835L38.0671 27.7563C37.6753 28.041 37.148 27.6579 37.2977 27.1973L39.1234 21.5782C39.1904 21.3722 39.117 21.1465 38.9418 21.0192L34.1619 17.5464C33.7701 17.2617 33.9715 16.6419 34.4558 16.6419H40.3641C40.5807 16.6419 40.7726 16.5025 40.8396 16.2964L42.6653 10.6774Z" fill="#0057FF"/>
<path d="M20.9262 27.5001C21.0798 27.048 21.7193 27.048 21.873 27.5001L23.2782 31.6342C23.3471 31.837 23.5375 31.9733 23.7516 31.9733H28.2495C28.7393 31.9733 28.937 32.6046 28.5347 32.884L24.9352 35.3838C24.752 35.511 24.6753 35.7442 24.747 35.9554L26.131 40.0267C26.2862 40.4834 25.7686 40.8734 25.3724 40.5983L21.6848 38.0373C21.5133 37.9182 21.2858 37.9182 21.1143 38.0373L17.4267 40.5983C17.0305 40.8734 16.5129 40.4834 16.6681 40.0267L18.0521 35.9554C18.1238 35.7442 18.0471 35.511 17.8639 35.3838L14.2644 32.884C13.8621 32.6046 14.0598 31.9733 14.5496 31.9733H19.0475C19.2616 31.9733 19.452 31.837 19.5209 31.6342L20.9262 27.5001Z" fill="#0057FF"/>
<path d="M65.4613 27.5001C65.615 27.048 66.2544 27.048 66.4081 27.5001L67.8134 31.6342C67.8823 31.837 68.0727 31.9733 68.2868 31.9733H72.7846C73.2744 31.9733 73.4721 32.6046 73.0698 32.884L69.4704 35.3838C69.2872 35.511 69.2104 35.7442 69.2822 35.9554L70.6661 40.0267C70.8214 40.4834 70.3037 40.8734 69.9075 40.5983L66.2199 38.0373C66.0484 37.9182 65.821 37.9182 65.6495 38.0373L61.9619 40.5983C61.5657 40.8734 61.048 40.4834 61.2033 40.0267L62.5872 35.9554C62.659 35.7442 62.5822 35.511 62.399 35.3838L58.7996 32.884C58.3973 32.6046 58.595 31.9733 59.0848 31.9733H63.5826C63.7968 31.9733 63.9871 31.837 64.056 31.6342L65.4613 27.5001Z" fill="#0057FF"/>
<g filter="url(#filter1_b_1280_497)">
<path d="M44.2015 9.14224C44.3511 8.68158 45.0028 8.68158 45.1525 9.14224L46.9783 14.7613C47.0452 14.9673 47.2372 15.1068 47.4538 15.1068H53.362C53.8464 15.1068 54.0478 15.7266 53.6559 16.0113L48.876 19.4841C48.7008 19.6114 48.6275 19.8371 48.6944 20.0431L50.5201 25.6621C50.6698 26.1228 50.1426 26.5058 49.7507 26.2211L44.9709 22.7484C44.7956 22.621 44.5583 22.621 44.3831 22.7484L39.6032 26.2211C39.2114 26.5058 38.6841 26.1228 38.8338 25.6621L40.6596 20.0431C40.7265 19.8371 40.6532 19.6114 40.4779 19.4841L35.6981 16.0113C35.3062 15.7266 35.5076 15.1068 35.992 15.1068H41.9002C42.1168 15.1068 42.3088 14.9673 42.3757 14.7613L44.2015 9.14224Z" fill="url(#paint2_linear_1280_497)"/>
<path d="M44.4392 9.21949C44.5141 8.98916 44.8399 8.98916 44.9147 9.21949L46.7405 14.8385C46.8409 15.1476 47.1289 15.3568 47.4538 15.3568H53.362C53.6042 15.3568 53.7049 15.6667 53.5089 15.809L48.7291 19.2818C48.4662 19.4728 48.3562 19.8113 48.4566 20.1203L50.2824 25.7394C50.3572 25.9697 50.0936 26.1612 49.8977 26.0189L45.1178 22.5461C44.855 22.3551 44.499 22.3551 44.2361 22.5461L39.4563 26.0189C39.2604 26.1612 38.9967 25.9697 39.0716 25.7394L40.8973 20.1203C40.9977 19.8113 40.8877 19.4728 40.6249 19.2818L35.845 15.809C35.6491 15.6667 35.7498 15.3568 35.992 15.3568H41.9002C42.2251 15.3568 42.5131 15.1476 42.6135 14.8385L44.4392 9.21949Z" stroke="url(#paint3_linear_1280_497)" stroke-width="0.5"/>
</g>
<g filter="url(#filter2_b_1280_497)">
<path d="M22.4613 25.964C22.615 25.5119 23.2544 25.5119 23.4081 25.964L24.8134 30.0981C24.8823 30.3008 25.0727 30.4372 25.2868 30.4372H29.7846C30.2744 30.4372 30.4721 31.0685 30.0698 31.3479L26.4704 33.8476C26.2872 33.9749 26.2104 34.208 26.2822 34.4192L27.6661 38.4906C27.8214 38.9473 27.3037 39.3373 26.9075 39.0622L23.2199 36.5012C23.0484 36.3821 22.821 36.3821 22.6495 36.5012L18.9619 39.0622C18.5657 39.3373 18.048 38.9473 18.2033 38.4906L19.5872 34.4192C19.659 34.208 19.5822 33.9749 19.399 33.8476L15.7996 31.3479C15.3973 31.0685 15.595 30.4372 16.0848 30.4372H20.5826C20.7968 30.4372 20.9871 30.3008 21.056 30.0981L22.4613 25.964Z" fill="url(#paint4_linear_1280_497)"/>
<path d="M22.698 26.0444C22.7749 25.8184 23.0946 25.8184 23.1714 26.0444L24.5767 30.1786C24.6801 30.4827 24.9656 30.6872 25.2868 30.6872H29.7846C30.0295 30.6872 30.1284 31.0028 29.9272 31.1425L26.3278 33.6423C26.053 33.8331 25.9378 34.1829 26.0455 34.4997L27.4294 38.571C27.5071 38.7994 27.2482 38.9944 27.0501 38.8568L23.3625 36.2958C23.1053 36.1172 22.7641 36.1172 22.5069 36.2958L18.8193 38.8568C18.6212 38.9944 18.3624 38.7994 18.44 38.571L19.8239 34.4997C19.9316 34.1829 19.8164 33.8331 19.5416 33.6423L15.9422 31.1425C15.741 31.0028 15.8399 30.6872 16.0848 30.6872H20.5826C20.9038 30.6872 21.1894 30.4827 21.2927 30.1786L22.698 26.0444Z" stroke="url(#paint5_linear_1280_497)" stroke-width="0.5"/>
</g>
<g filter="url(#filter3_b_1280_497)">
<path d="M66.9974 25.964C67.1511 25.5119 67.7906 25.5119 67.9442 25.964L69.3495 30.0981C69.4184 30.3008 69.6088 30.4372 69.8229 30.4372H74.3208C74.8106 30.4372 75.0083 31.0685 74.606 31.3479L71.0065 33.8476C70.8233 33.9749 70.7466 34.208 70.8183 34.4192L72.2023 38.4906C72.3575 38.9473 71.8399 39.3373 71.4437 39.0622L67.7561 36.5012C67.5846 36.3821 67.3571 36.3821 67.1856 36.5012L63.498 39.0622C63.1018 39.3373 62.5842 38.9473 62.7394 38.4906L64.1233 34.4192C64.1951 34.208 64.1184 33.9749 63.9352 33.8476L60.3357 31.3479C59.9334 31.0685 60.1311 30.4372 60.6209 30.4372H65.1188C65.3329 30.4372 65.5233 30.3008 65.5922 30.0981L66.9974 25.964Z" fill="url(#paint6_linear_1280_497)"/>
<path d="M67.2341 26.0444C67.311 25.8184 67.6307 25.8184 67.7075 26.0444L69.1128 30.1786C69.2162 30.4827 69.5017 30.6872 69.8229 30.6872H74.3208C74.5657 30.6872 74.6645 31.0028 74.4634 31.1425L70.8639 33.6423C70.5891 33.8331 70.474 34.1829 70.5816 34.4997L71.9656 38.571C72.0432 38.7994 71.7844 38.9944 71.5863 38.8568L67.8987 36.2958C67.6414 36.1172 67.3003 36.1172 67.043 36.2958L63.3554 38.8568C63.1573 38.9944 62.8985 38.7994 62.9761 38.571L64.36 34.4997C64.4677 34.1829 64.3526 33.8331 64.0778 33.6423L60.4783 31.1425C60.2772 31.0028 60.376 30.6872 60.6209 30.6872H65.1188C65.44 30.6872 65.7255 30.4827 65.8289 30.1786L67.2341 26.0444Z" stroke="url(#paint7_linear_1280_497)" stroke-width="0.5"/>
</g>
<defs>
<filter id="filter0_b_1280_497" x="4.91309" y="22.9199" width="82.0752" height="58.6289" filterUnits="userSpaceOnUse" color-interpolation-filters="sRGB">
<feFlood flood-opacity="0" result="BackgroundImageFix"/>
<feGaussianBlur in="BackgroundImageFix" stdDeviation="4"/>
<feComposite in2="SourceAlpha" operator="in" result="effect1_backgroundBlur_1280_497"/>
<feBlend mode="normal" in="SourceGraphic" in2="effect1_backgroundBlur_1280_497" result="shape"/>
</filter>
<filter id="filter1_b_1280_497" x="27.4912" y="0.796875" width="34.3721" height="33.5225" filterUnits="userSpaceOnUse" color-interpolation-filters="sRGB">
<feFlood flood-opacity="0" result="BackgroundImageFix"/>
<feGaussianBlur in="BackgroundImageFix" stdDeviation="4"/>
<feComposite in2="SourceAlpha" operator="in" result="effect1_backgroundBlur_1280_497"/>
<feBlend mode="normal" in="SourceGraphic" in2="effect1_backgroundBlur_1280_497" result="shape"/>
</filter>
<filter id="filter2_b_1280_497" x="7.58398" y="17.625" width="30.7012" height="29.5283" filterUnits="userSpaceOnUse" color-interpolation-filters="sRGB">
<feFlood flood-opacity="0" result="BackgroundImageFix"/>
<feGaussianBlur in="BackgroundImageFix" stdDeviation="4"/>
<feComposite in2="SourceAlpha" operator="in" result="effect1_backgroundBlur_1280_497"/>
<feBlend mode="normal" in="SourceGraphic" in2="effect1_backgroundBlur_1280_497" result="shape"/>
</filter>
<filter id="filter3_b_1280_497" x="52.1201" y="17.625" width="30.7012" height="29.5283" filterUnits="userSpaceOnUse" color-interpolation-filters="sRGB">
<feFlood flood-opacity="0" result="BackgroundImageFix"/>
<feGaussianBlur in="BackgroundImageFix" stdDeviation="4"/>
<feComposite in2="SourceAlpha" operator="in" result="effect1_backgroundBlur_1280_497"/>
<feBlend mode="normal" in="SourceGraphic" in2="effect1_backgroundBlur_1280_497" result="shape"/>
</filter>
<linearGradient id="paint0_linear_1280_497" x1="10.0402" y1="46.6742" x2="78.9191" y2="49.291" gradientUnits="userSpaceOnUse">
<stop offset="0.0520833" stop-color="white" stop-opacity="0.52"/>
<stop offset="1" stop-color="#4B89FF" stop-opacity="0.3"/>
</linearGradient>
<linearGradient id="paint1_linear_1280_497" x1="10.0402" y1="46.6742" x2="78.9191" y2="49.291" gradientUnits="userSpaceOnUse">
<stop offset="0.0520833" stop-color="white" stop-opacity="0.52"/>
<stop offset="1" stop-color="#4B89FF" stop-opacity="0.3"/>
</linearGradient>
<linearGradient id="paint2_linear_1280_497" x1="33.5641" y1="14.8656" x2="54.8959" y2="15.4154" gradientUnits="userSpaceOnUse">
<stop offset="0.0520833" stop-color="white" stop-opacity="0.52"/>
<stop offset="1" stop-color="#4B89FF" stop-opacity="0.3"/>
</linearGradient>
<linearGradient id="paint3_linear_1280_497" x1="33.5641" y1="14.8656" x2="54.8959" y2="15.4154" gradientUnits="userSpaceOnUse">
<stop offset="0.0520833" stop-color="white" stop-opacity="0.52"/>
<stop offset="1" stop-color="#4B89FF" stop-opacity="0.3"/>
</linearGradient>
<linearGradient id="paint4_linear_1280_497" x1="13.7538" y1="30.2468" x2="31.376" y2="30.7219" gradientUnits="userSpaceOnUse">
<stop offset="0.0520833" stop-color="white" stop-opacity="0.52"/>
<stop offset="1" stop-color="#4B89FF" stop-opacity="0.3"/>
</linearGradient>
<linearGradient id="paint5_linear_1280_497" x1="13.7538" y1="30.2468" x2="31.376" y2="30.7219" gradientUnits="userSpaceOnUse">
<stop offset="0.0520833" stop-color="white" stop-opacity="0.52"/>
<stop offset="1" stop-color="#4B89FF" stop-opacity="0.3"/>
</linearGradient>
<linearGradient id="paint6_linear_1280_497" x1="58.2899" y1="30.2468" x2="75.9121" y2="30.7219" gradientUnits="userSpaceOnUse">
<stop offset="0.0520833" stop-color="white" stop-opacity="0.52"/>
<stop offset="1" stop-color="#4B89FF" stop-opacity="0.3"/>
</linearGradient>
<linearGradient id="paint7_linear_1280_497" x1="58.2899" y1="30.2468" x2="75.9121" y2="30.7219" gradientUnits="userSpaceOnUse">
<stop offset="0.0520833" stop-color="white" stop-opacity="0.52"/>
<stop offset="1" stop-color="#4B89FF" stop-opacity="0.3"/>
</linearGradient>
</defs>
</svg>
