<svg width="87" height="86" viewBox="0 0 87 86" fill="none" xmlns="http://www.w3.org/2000/svg">
<path fillRule="evenodd" clipRule="evenodd" d="M32.584 30.0625C32.584 24.3822 37.1888 19.7773 42.8692 19.7773C48.5495 19.7773 53.1543 24.3822 53.1543 30.0625V34.1456H50.0829V30.0625C50.0829 26.0785 46.8532 22.8488 42.8692 22.8488C38.8851 22.8488 35.6554 26.0785 35.6554 30.0625V34.1456H32.584V30.0625Z" fill="url(#paint0_linear_6554_37599)"/>
<path fillRule="evenodd" clipRule="evenodd" d="M58.6914 73.0625C58.6914 67.3822 63.2962 62.7773 68.9766 62.7773C74.6569 62.7773 79.2618 67.3822 79.2618 73.0625V77.1456H76.1903V73.0625C76.1903 69.0785 72.9606 65.8488 68.9766 65.8488C64.9925 65.8488 61.7628 69.0785 61.7628 73.0625V77.1456H58.6914V73.0625Z" fill="url(#paint1_linear_6554_37599)"/>
<path fillRule="evenodd" clipRule="evenodd" d="M6.47656 73.0625C6.47656 67.3822 11.0814 62.7773 16.7617 62.7773C22.4421 62.7773 27.0469 67.3822 27.0469 73.0625V77.1456H23.9755V73.0625C23.9755 69.0785 20.7458 65.8488 16.7617 65.8488C12.7777 65.8488 9.54799 69.0785 9.54799 73.0625V77.1456H6.47656V73.0625Z" fill="url(#paint2_linear_6554_37599)"/>
<path fillRule="evenodd" clipRule="evenodd" d="M42.567 15.3574C44.6873 15.3574 46.4062 13.6385 46.4062 11.5181C46.4062 9.39776 44.6873 7.67885 42.567 7.67885C40.4466 7.67885 38.7277 9.39776 38.7277 11.5181C38.7277 13.6385 40.4466 15.3574 42.567 15.3574ZM42.567 18.4289C46.3836 18.4289 49.4777 15.3348 49.4777 11.5181C49.4777 7.70145 46.3836 4.60742 42.567 4.60742C38.7503 4.60742 35.6562 7.70145 35.6562 11.5181C35.6562 15.3348 38.7503 18.4289 42.567 18.4289Z" fill="url(#paint3_linear_6554_37599)"/>
<path fillRule="evenodd" clipRule="evenodd" d="M68.6724 58.3574C70.7928 58.3574 72.5117 56.6385 72.5117 54.5181C72.5117 52.3978 70.7928 50.6788 68.6724 50.6788C66.5521 50.6788 64.8331 52.3978 64.8331 54.5181C64.8331 56.6385 66.5521 58.3574 68.6724 58.3574ZM68.6724 61.4288C72.4891 61.4288 75.5831 58.3348 75.5831 54.5181C75.5831 50.7015 72.4891 47.6074 68.6724 47.6074C64.8558 47.6074 61.7617 50.7015 61.7617 54.5181C61.7617 58.3348 64.8558 61.4288 68.6724 61.4288Z" fill="url(#paint4_linear_6554_37599)"/>
<path fillRule="evenodd" clipRule="evenodd" d="M16.4595 58.3574C18.5799 58.3574 20.2988 56.6385 20.2988 54.5181C20.2988 52.3978 18.5799 50.6788 16.4595 50.6788C14.3392 50.6788 12.6203 52.3978 12.6203 54.5181C12.6203 56.6385 14.3392 58.3574 16.4595 58.3574ZM16.4595 61.4288C20.2762 61.4288 23.3703 58.3348 23.3703 54.5181C23.3703 50.7015 20.2762 47.6074 16.4595 47.6074C12.6429 47.6074 9.54883 50.7015 9.54883 54.5181C9.54883 58.3348 12.6429 61.4288 16.4595 61.4288Z" fill="url(#paint5_linear_6554_37599)"/>
<path fillRule="evenodd" clipRule="evenodd" d="M25.3879 23.8184C20.9608 27.6876 17.9176 32.8961 16.7207 38.6526L21.0879 39.5606C22.087 34.7551 24.6275 30.407 28.3233 27.177L25.3879 23.8184ZM61.5126 24.3482C65.3299 27.8863 68.0432 32.4523 69.326 37.4966L65.0031 38.5959C63.9322 34.385 61.6671 30.5733 58.4804 27.6197L61.5126 24.3482ZM43.0286 71.1456C46.8439 71.1637 50.6197 70.3731 54.1072 68.8257L52.2982 64.7485C49.3869 66.0402 46.2348 66.7002 43.0498 66.6851C39.8648 66.67 36.7191 65.98 33.8202 64.6607L31.9725 68.7206C35.4451 70.301 39.2133 71.1275 43.0286 71.1456Z" fill="#6198F7"/>
<defs>
<linearGradient id="paint0_linear_6554_37599" x1="42.8692" y1="21.3131" x2="42.8692" y2="39.6453" gradientUnits="userSpaceOnUse">
<stop stop-color="#404040"/>
<stop offset="1" stop-color="white" stop-opacity="0"/>
</linearGradient>
<linearGradient id="paint1_linear_6554_37599" x1="68.9766" y1="64.3131" x2="68.9766" y2="82.6453" gradientUnits="userSpaceOnUse">
<stop stop-color="#404040"/>
<stop offset="1" stop-color="white" stop-opacity="0"/>
</linearGradient>
<linearGradient id="paint2_linear_6554_37599" x1="16.7617" y1="64.3131" x2="16.7617" y2="82.6453" gradientUnits="userSpaceOnUse">
<stop stop-color="#404040"/>
<stop offset="1" stop-color="white" stop-opacity="0"/>
</linearGradient>
<linearGradient id="paint3_linear_6554_37599" x1="42.567" y1="4.60742" x2="42.567" y2="24.3523" gradientUnits="userSpaceOnUse">
<stop stop-color="#404040"/>
<stop offset="1" stop-color="white" stop-opacity="0"/>
</linearGradient>
<linearGradient id="paint4_linear_6554_37599" x1="68.6724" y1="47.6074" x2="68.6724" y2="67.3523" gradientUnits="userSpaceOnUse">
<stop stop-color="#404040"/>
<stop offset="1" stop-color="white" stop-opacity="0"/>
</linearGradient>
<linearGradient id="paint5_linear_6554_37599" x1="16.4595" y1="47.6074" x2="16.4595" y2="67.3523" gradientUnits="userSpaceOnUse">
<stop stop-color="#404040"/>
<stop offset="1" stop-color="white" stop-opacity="0"/>
</linearGradient>
</defs>
</svg>
