<svg width="87" height="86" viewBox="0 0 87 86" fill="none" xmlns="http://www.w3.org/2000/svg">
<g clip-path="url(#clip0_6743_32890)">
<path fillRule="evenodd" clipRule="evenodd" d="M32.5859 30.0625C32.5859 24.3822 37.1908 19.7773 42.8711 19.7773C48.5515 19.7773 53.1563 24.3822 53.1563 30.0625V34.1456H50.0849V30.0625C50.0849 26.0785 46.8552 22.8488 42.8711 22.8488C38.8871 22.8488 35.6574 26.0785 35.6574 30.0625V34.1456H32.5859V30.0625Z" fill="url(#paint0_linear_6743_32890)"/>
<path fillRule="evenodd" clipRule="evenodd" d="M58.6953 73.0625C58.6953 67.3822 63.3001 62.7773 68.9805 62.7773C74.6608 62.7773 79.2657 67.3822 79.2657 73.0625V77.1456H76.1942V73.0625C76.1942 69.0785 72.9645 65.8488 68.9805 65.8488C64.9964 65.8488 61.7667 69.0785 61.7667 73.0625V77.1456H58.6953V73.0625Z" fill="url(#paint1_linear_6743_32890)"/>
<path fillRule="evenodd" clipRule="evenodd" d="M6.47656 73.0625C6.47656 67.3822 11.0814 62.7773 16.7617 62.7773C22.4421 62.7773 27.0469 67.3822 27.0469 73.0625V77.1456H23.9755V73.0625C23.9755 69.0785 20.7458 65.8488 16.7617 65.8488C12.7777 65.8488 9.54799 69.0785 9.54799 73.0625V77.1456H6.47656V73.0625Z" fill="url(#paint2_linear_6743_32890)"/>
<path fillRule="evenodd" clipRule="evenodd" d="M42.567 15.3574C44.6873 15.3574 46.4062 13.6385 46.4062 11.5181C46.4062 9.39776 44.6873 7.67885 42.567 7.67885C40.4466 7.67885 38.7277 9.39776 38.7277 11.5181C38.7277 13.6385 40.4466 15.3574 42.567 15.3574ZM42.567 18.4289C46.3836 18.4289 49.4777 15.3348 49.4777 11.5181C49.4777 7.70145 46.3836 4.60742 42.567 4.60742C38.7503 4.60742 35.6562 7.70145 35.6562 11.5181C35.6562 15.3348 38.7503 18.4289 42.567 18.4289Z" fill="url(#paint3_linear_6743_32890)"/>
<path fillRule="evenodd" clipRule="evenodd" d="M68.6763 58.3574C70.7967 58.3574 72.5156 56.6385 72.5156 54.5181C72.5156 52.3978 70.7967 50.6788 68.6763 50.6788C66.556 50.6788 64.8371 52.3978 64.8371 54.5181C64.8371 56.6385 66.556 58.3574 68.6763 58.3574ZM68.6763 61.4288C72.493 61.4288 75.5871 58.3348 75.5871 54.5181C75.5871 50.7015 72.493 47.6074 68.6763 47.6074C64.8597 47.6074 61.7656 50.7015 61.7656 54.5181C61.7656 58.3348 64.8597 61.4288 68.6763 61.4288Z" fill="url(#paint4_linear_6743_32890)"/>
<path fillRule="evenodd" clipRule="evenodd" d="M16.4576 58.3574C18.578 58.3574 20.2969 56.6385 20.2969 54.5181C20.2969 52.3978 18.578 50.6788 16.4576 50.6788C14.3372 50.6788 12.6183 52.3978 12.6183 54.5181C12.6183 56.6385 14.3372 58.3574 16.4576 58.3574ZM16.4576 61.4288C20.2743 61.4288 23.3683 58.3348 23.3683 54.5181C23.3683 50.7015 20.2743 47.6074 16.4576 47.6074C12.6409 47.6074 9.54688 50.7015 9.54688 54.5181C9.54688 58.3348 12.6409 61.4288 16.4576 61.4288Z" fill="url(#paint5_linear_6743_32890)"/>
<path fillRule="evenodd" clipRule="evenodd" d="M25.3938 23.8184C20.9666 27.6876 17.9234 32.8961 16.7266 38.6526L21.0937 39.5606C22.0929 34.7551 24.6333 30.407 28.3291 27.177L25.3938 23.8184ZM61.5184 24.3482C65.3358 27.8863 68.0491 32.4523 69.3319 37.4966L65.0089 38.5959C63.9381 34.385 61.673 30.5733 58.4863 27.6197L61.5184 24.3482ZM43.0345 71.1456C46.8498 71.1637 50.6256 70.3731 54.1131 68.8257L52.3041 64.7485C49.3927 66.0402 46.2407 66.7002 43.0556 66.6851C39.8706 66.67 36.725 65.98 33.826 64.6607L31.9784 68.7206C35.451 70.301 39.2191 71.1275 43.0345 71.1456Z" fill="#6198F7"/>
</g>
<defs>
<linearGradient id="paint0_linear_6743_32890" x1="42.8711" y1="21.3131" x2="42.8711" y2="39.6453" gradientUnits="userSpaceOnUse">
<stop stop-color="white"/>
<stop offset="1" stop-color="white" stop-opacity="0"/>
</linearGradient>
<linearGradient id="paint1_linear_6743_32890" x1="68.9805" y1="64.3131" x2="68.9805" y2="82.6453" gradientUnits="userSpaceOnUse">
<stop stop-color="white"/>
<stop offset="1" stop-color="white" stop-opacity="0"/>
</linearGradient>
<linearGradient id="paint2_linear_6743_32890" x1="16.7617" y1="64.3131" x2="16.7617" y2="82.6453" gradientUnits="userSpaceOnUse">
<stop stop-color="white"/>
<stop offset="1" stop-color="white" stop-opacity="0"/>
</linearGradient>
<linearGradient id="paint3_linear_6743_32890" x1="42.567" y1="4.60742" x2="42.567" y2="24.3523" gradientUnits="userSpaceOnUse">
<stop stop-color="white"/>
<stop offset="1" stop-color="white" stop-opacity="0"/>
</linearGradient>
<linearGradient id="paint4_linear_6743_32890" x1="68.6763" y1="47.6074" x2="68.6763" y2="67.3523" gradientUnits="userSpaceOnUse">
<stop stop-color="white"/>
<stop offset="1" stop-color="white" stop-opacity="0"/>
</linearGradient>
<linearGradient id="paint5_linear_6743_32890" x1="16.4576" y1="47.6074" x2="16.4576" y2="67.3523" gradientUnits="userSpaceOnUse">
<stop stop-color="white"/>
<stop offset="1" stop-color="white" stop-opacity="0"/>
</linearGradient>
<clipPath id="clip0_6743_32890">
<rect width="86" height="86" fill="white" transform="translate(0.335938)"/>
</clipPath>
</defs>
</svg>
