<svg width="54" height="16" viewBox="0 0 54 16" fill="none" xmlns="http://www.w3.org/2000/svg">
  <g clip-path="url(#clip0_4073_18685)">
    <path d="M14.04 0.578125H16.524V15.4386H14.04V0.578125Z" fill="#17313B"/>
    <path d="M25.164 10.7278C25.164 13.0302 23.22 13.2395 22.572 13.2395C21.06 13.2395 20.844 11.879 20.844 11.1464V5.39062H18.36V11.0418C18.36 12.4023 18.792 13.6581 19.656 14.3906C20.412 15.1232 21.384 15.4371 22.572 15.4371C23.436 15.4371 24.516 15.2278 25.164 14.5999V15.4371H27.648V5.39062H25.164V10.7278Z" fill="#17313B"/>
    <path d="M32.508 1.73047H30.024V5.39326H28.188V7.69558H30.024V15.4398H32.508V7.69558H34.344V5.39326H32.508V1.73047Z" fill="#17313B"/>
    <path d="M42.12 12.4045C41.58 12.8231 40.824 13.1371 40.068 13.1371C38.34 13.1371 37.152 11.8813 37.152 10.2068C37.152 8.53243 38.34 7.38127 40.068 7.38127C40.824 7.38127 41.58 7.59057 42.12 8.11382L42.444 8.42778L44.172 6.85801L43.74 6.54406C42.768 5.70685 41.472 5.18359 40.068 5.18359C37.044 5.18359 34.776 7.38127 34.776 10.3115C34.776 13.2417 37.044 15.4394 40.068 15.4394C41.472 15.4394 42.768 14.9162 43.74 14.0789L44.172 13.765L42.444 12.0906L42.12 12.4045Z" fill="#17313B"/>
    <path d="M52.92 6.22929C52.164 5.49673 51.408 5.18278 50.22 5.18278C49.356 5.18278 48.492 5.39208 47.844 6.01999V0.578125H45.36V15.4386H47.844V9.89208C47.844 7.58976 49.464 7.38045 50.112 7.38045C51.624 7.38045 51.516 8.74092 51.516 9.47347V15.3339H54V9.57813C54 8.21766 53.676 6.96185 52.92 6.22929Z" fill="#17313B"/>
    <path d="M39.9601 11.9856C40.9144 11.9856 41.6881 11.2359 41.6881 10.3111C41.6881 9.38638 40.9144 8.63672 39.9601 8.63672C39.0057 8.63672 38.2321 9.38638 38.2321 10.3111C38.2321 11.2359 39.0057 11.9856 39.9601 11.9856Z" fill="#EF4335"/>
    <path d="M10.584 11.7746C9.72 12.6118 8.424 13.1351 7.02 13.1351C4.32 13.1351 2.376 11.0421 2.376 8.21648C2.376 5.3909 4.32 3.29787 7.128 3.29787C8.424 3.29787 9.72 3.82113 10.692 4.76299L11.016 5.07694L12.636 3.50718L12.312 3.19322C10.908 1.83276 9.072 1.1002 7.128 1.1002C3.024 0.995547 0 4.13508 0 8.21648C0 12.2979 3.024 15.4374 7.02 15.4374C8.964 15.4374 10.908 14.7048 12.204 13.3444L12.528 13.0304L10.908 11.4607L10.584 11.7746Z" fill="#17313B"/>
  </g>
  <defs>
    <clipPath id="clip0_4073_18685">
      <rect width="54" height="15" fill="white" transform="translate(0 0.5)"/>
    </clipPath>
  </defs>
</svg>
