<svg width="55" height="16" viewBox="0 0 55 16" fill="none" xmlns="http://www.w3.org/2000/svg">
<g clip-path="url(#clip0_3882_23326)">
<path d="M14.54 0.578125H17.024V15.4386H14.54V0.578125Z" fill="white"/>
<path d="M25.6639 10.7278C25.6639 13.0302 23.7199 13.2395 23.0719 13.2395C21.5599 13.2395 21.3439 11.879 21.3439 11.1464V5.39062H18.8599V11.0418C18.8599 12.4023 19.2919 13.6581 20.1559 14.3906C20.9119 15.1232 21.8839 15.4371 23.0719 15.4371C23.9359 15.4371 25.0159 15.2278 25.6639 14.5999V15.4371H28.1479V5.39062H25.6639V10.7278Z" fill="white"/>
<path d="M33.008 1.73047H30.524V5.39326H28.688V7.69558H30.524V15.4398H33.008V7.69558H34.844V5.39326H33.008V1.73047Z" fill="white"/>
<path d="M42.6199 12.4045C42.0799 12.8231 41.3239 13.1371 40.5679 13.1371C38.8399 13.1371 37.6519 11.8813 37.6519 10.2068C37.6519 8.53243 38.8399 7.38127 40.5679 7.38127C41.3239 7.38127 42.0799 7.59057 42.6199 8.11382L42.9439 8.42778L44.6719 6.85801L44.2399 6.54406C43.2679 5.70685 41.9719 5.18359 40.5679 5.18359C37.5439 5.18359 35.2759 7.38127 35.2759 10.3115C35.2759 13.2417 37.5439 15.4394 40.5679 15.4394C41.9719 15.4394 43.2679 14.9162 44.2399 14.0789L44.6719 13.765L42.9439 12.0906L42.6199 12.4045Z" fill="white"/>
<path d="M53.4198 6.22929C52.6638 5.49673 51.9078 5.18278 50.7198 5.18278C49.8559 5.18278 48.9919 5.39208 48.3439 6.01999V0.578125H45.8599V15.4386H48.3439V9.89208C48.3439 7.58976 49.9638 7.38045 50.6118 7.38045C52.1238 7.38045 52.0158 8.74092 52.0158 9.47347V15.3339H54.4998V9.57813C54.4998 8.21766 54.1758 6.96185 53.4198 6.22929Z" fill="white"/>
<path d="M40.4599 11.9856C41.4143 11.9856 42.1879 11.2359 42.1879 10.3111C42.1879 9.38638 41.4143 8.63672 40.4599 8.63672C39.5056 8.63672 38.7319 9.38638 38.7319 10.3111C38.7319 11.2359 39.5056 11.9856 40.4599 11.9856Z" fill="#EF4335"/>
<path d="M11.084 11.7746C10.22 12.6118 8.924 13.1351 7.52 13.1351C4.82 13.1351 2.876 11.0421 2.876 8.21648C2.876 5.3909 4.82 3.29787 7.628 3.29787C8.924 3.29787 10.22 3.82113 11.192 4.76299L11.516 5.07694L13.136 3.50718L12.812 3.19322C11.408 1.83276 9.572 1.1002 7.628 1.1002C3.524 0.995547 0.5 4.13508 0.5 8.21648C0.5 12.2979 3.524 15.4374 7.52 15.4374C9.464 15.4374 11.408 14.7048 12.704 13.3444L13.028 13.0304L11.408 11.4607L11.084 11.7746Z" fill="white"/>
</g>
<defs>
<clipPath id="clip0_3882_23326">
<rect width="54" height="15" fill="white" transform="translate(0.5 0.5)"/>
</clipPath>
</defs>
</svg>
