<svg width="90" height="24" viewBox="0 0 90 24" fill="none" xmlns="http://www.w3.org/2000/svg">
<g clip-path="url(#clip0_6900_117834)">
<path fillRule="evenodd" clipRule="evenodd" d="M26.8672 17.7446V6.87189H28.2651L34.9096 15.6219V6.87189H36.2385V17.7446H34.8405L28.1961 8.90838V17.7446H26.8672ZM47.0594 17.3132C46.1793 17.6411 45.23 17.8137 44.2291 17.8137C40.2942 17.8137 38.3267 15.9325 38.3267 12.1529C38.3267 8.58047 40.2251 6.7856 44.022 6.7856C45.1092 6.7856 46.1275 6.94093 47.0594 7.23432V8.4424C46.1275 8.07998 45.161 7.90739 44.1773 7.90739C41.2089 7.90739 39.7246 9.32257 39.7246 12.1184C39.7246 15.1386 41.1916 16.6401 44.1083 16.6401C44.5742 16.6401 45.092 16.5711 45.6615 16.4503V12.8088H47.0594V17.3132ZM49.303 13.5509V6.87189H50.7009V13.5509C50.7009 15.6391 51.7364 16.6919 53.8247 16.6919C55.8957 16.6919 56.9484 15.6391 56.9484 13.5509V6.87189H58.3464V13.5509C58.3464 16.3985 56.8449 17.8309 53.8247 17.8309C50.8045 17.8309 49.303 16.3985 49.303 13.5509ZM62.2467 6.87189V16.6056H67.942V17.7446H60.8488V6.87189H62.2467ZM69.9612 17.7446H68.4943L73.8961 5.43945L79.298 17.7446H77.7447L76.3468 14.3275H72.7571L73.1368 13.1884H75.8808L73.8443 8.26982L69.9612 17.7446ZM80.7994 17.7446V6.87189H85.4419C87.5129 6.87189 88.5484 7.73481 88.5484 9.4779C88.5484 10.8931 87.5302 11.9458 85.511 12.6189L89.2388 17.7446H87.3921L83.9405 12.8605V11.9458C86.0115 11.6179 87.0642 10.824 87.0642 9.54693C87.0642 8.54595 86.4947 8.04546 85.3384 8.04546H82.2319V17.7446H80.7994Z" fill="#313339"/>
<path fillRule="evenodd" clipRule="evenodd" d="M12.0066 0.00390625L0.875 3.97332L2.58357 18.6947L12.0066 23.9239L21.585 18.6256L23.4316 3.90429L12.0066 0.00390625ZM5.0863 18.2292L12.0241 2.80021L19.2554 18.2637L16.7874 18.2119L15.2687 14.6912H9.07297L7.67505 18.1774L5.0863 18.2292ZM14.3885 12.6547L12.0414 7.75335L9.98766 12.6547H14.3885Z" fill="#313339"/>
<path fillRule="evenodd" clipRule="evenodd" d="M12.0078 0.00390625L23.4328 3.90429L21.5862 18.6256L12.0078 23.9239V14.6912H15.2705L16.7892 18.2119L19.2572 18.2637L12.0259 2.80021L12.0078 2.84053V0.00390625ZM12.0078 12.6547V7.8378L12.0432 7.75335L14.3903 12.6547H12.0078Z" fill="#AFB3B8"/>
</g>
<defs>
<clipPath id="clip0_6900_117834">
<rect width="89.2473" height="24" fill="white" transform="translate(0.125)"/>
</clipPath>
</defs>
</svg>
