<svg width="388" height="50" viewBox="0 0 388 50" fill="none" xmlns="http://www.w3.org/2000/svg">
<path fillRule="evenodd" clipRule="evenodd" d="M72.5665 0.976562C67.6758 0.976562 63.2412 2.0317 59.2736 4.15074L59.2715 4.15188C55.3502 6.27028 52.2568 9.2046 50.0002 12.9504L49.9993 12.952C47.7841 16.659 46.6807 20.8363 46.6807 25.4706C46.6807 30.1049 47.7841 34.3033 49.9979 38.0532L50.0016 38.0593C52.2585 41.7606 55.3517 44.6717 59.2715 46.7893L59.2736 46.7904C63.2412 48.9094 67.6758 49.9646 72.5665 49.9646C77.4572 49.9646 81.8706 48.9095 85.7953 46.7893C89.715 44.6717 92.8082 41.7606 95.0651 38.0593L95.0665 38.057C97.3258 34.3065 98.4523 30.1068 98.4523 25.4706C98.4523 20.835 97.3261 16.6569 95.0661 12.9498C92.8096 9.20427 89.7163 6.27016 85.7953 4.15188C81.8706 2.03168 77.4572 0.976562 72.5665 0.976562ZM12.5719 1.77187H0L18.3472 32.2377V49.1693H30.0881V32.3701L48.5012 1.77187H36.7912L24.6816 21.9114L12.5719 1.77187ZM130.802 1.77187H102.823V11.3919H119.127V32.9598C119.127 35.4628 118.591 37.2464 117.607 38.3998C116.636 39.5381 115.155 40.1457 113.068 40.1457C110.049 40.1457 107.312 38.5637 104.856 35.2458L104.475 34.7322L97.843 42.691L98.0904 43.01C99.8214 45.2421 102.03 46.9709 104.707 48.196L104.716 48.2C107.436 49.3784 110.398 49.9646 113.598 49.9646C119.16 49.9646 123.461 48.5283 126.413 45.5759L126.416 45.5731C129.369 42.5742 130.802 38.1398 130.802 32.3633V1.77187ZM166.658 1.77187H138.68V11.3919H154.983V32.9598C154.983 35.4628 154.448 37.2464 153.463 38.3998C152.492 39.5381 151.011 40.1457 148.924 40.1457C145.905 40.1457 143.168 38.5637 140.712 35.2458L140.332 34.7322L133.699 42.691L133.947 43.01C135.678 45.2421 137.886 46.9708 140.563 48.1959L140.573 48.2C143.292 49.3784 146.255 49.9646 149.454 49.9646C155.016 49.9646 159.317 48.5283 162.269 45.5759L162.272 45.5731C165.225 42.5742 166.658 38.1398 166.658 32.3633V1.77187ZM188 1.77187H176.259V49.1693H188V1.77187ZM65.3955 12.9811C67.5226 11.7473 69.9089 11.1268 72.5665 11.1268C75.2241 11.1268 77.6104 11.7473 79.7375 12.9811L79.7441 12.9848C81.8699 14.1753 83.5262 15.8519 84.7188 18.0242L84.7225 18.0307C85.9563 20.2005 86.5789 22.676 86.5789 25.4706C86.5789 28.2651 85.9563 30.7406 84.7225 32.9104L84.7188 32.917C83.526 35.0896 81.8687 36.7895 79.7407 38.0245C77.6134 39.215 75.2259 39.8143 72.5665 39.8143C69.9071 39.8143 67.5194 39.215 65.3921 38.0244C63.2637 36.7891 61.5833 35.0882 60.3461 32.9136C59.1554 30.7434 58.5541 28.2667 58.5541 25.4706C58.5541 22.6744 59.1554 20.1977 60.3461 18.0275C61.5831 15.8532 63.2626 14.1756 65.3889 12.9848L65.3955 12.9811Z" fill="#F3F3F5"/>
<path fillRule="evenodd" clipRule="evenodd" d="M266.567 1.98074C261.826 1.98074 257.556 3.00207 253.748 5.03596C249.982 7.07073 247.022 9.87999 244.861 13.4682C242.746 17.007 241.685 21.0034 241.685 25.4706C241.685 29.9368 242.746 33.9556 244.861 37.5394C247.022 41.0827 249.981 43.8702 253.748 45.9053C257.556 47.9391 261.826 48.9604 266.567 48.9604C271.308 48.9604 275.555 47.9389 279.318 45.9058C283.086 43.8704 286.045 41.0823 288.207 37.5382C290.366 33.9543 291.448 29.936 291.448 25.4706C291.448 21.0049 290.365 17.0095 288.208 13.4709L288.206 13.4686C286.044 9.87987 283.085 7.07027 279.318 5.03538C275.555 3.00227 271.308 1.98074 266.567 1.98074ZM253.274 4.15074C257.241 2.0317 261.676 0.976562 266.567 0.976562C271.457 0.976562 275.871 2.03168 279.795 4.15188C283.716 6.27016 286.81 9.20427 289.066 12.9498C291.326 16.6569 292.452 20.835 292.452 25.4706C292.452 30.1068 291.326 34.3065 289.067 38.057L289.065 38.0593C286.808 41.7606 283.715 44.6717 279.795 46.7893C275.871 48.9095 271.457 49.9646 266.567 49.9646C261.676 49.9646 257.241 48.9094 253.274 46.7904L253.271 46.7893C249.352 44.6717 246.259 41.7606 244.002 38.0593L243.998 38.0532C241.784 34.3033 240.681 30.1049 240.681 25.4706C240.681 20.8363 241.784 16.659 243.999 12.952L244 12.9504C246.257 9.2046 249.35 6.27028 253.271 4.15188L253.274 4.15074ZM194 1.77187H206.572L218.682 21.9114L230.791 1.77187H242.501L224.088 32.3701V49.1693H212.347V32.2377L194 1.77187ZM195.777 2.77605L213.351 31.9587V48.1651H223.084V32.0913L240.725 2.77605H231.359L218.682 23.8602L206.004 2.77605H195.777ZM296.823 1.77187H324.802V32.3633C324.802 38.1398 323.369 42.5742 320.416 45.5731L320.413 45.5759C317.461 48.5283 313.16 49.9646 307.598 49.9646C304.398 49.9646 301.436 49.3784 298.716 48.2L298.707 48.196C296.03 46.9709 293.821 45.2421 292.09 43.01L291.843 42.691L298.475 34.7322L298.856 35.2458C301.312 38.5637 304.049 40.1457 307.068 40.1457C309.155 40.1457 310.636 39.5381 311.607 38.3998C312.591 37.2464 313.127 35.4628 313.127 32.9598V11.3919H296.823V1.77187ZM297.827 2.77605V10.3878H314.131V32.9598C314.131 35.5821 313.573 37.6425 312.371 39.0517C311.155 40.4762 309.355 41.1499 307.068 41.1499C303.806 41.1499 300.928 39.5055 298.435 36.3491L293.135 42.7098C294.721 44.6551 296.714 46.1787 299.12 47.2806C301.702 48.3985 304.526 48.9604 307.598 48.9604C312.993 48.9604 316.998 47.5694 319.701 44.8673C322.403 42.1223 323.798 37.9854 323.798 32.3633V2.77605H297.827ZM332.68 1.77187H360.658V32.3633C360.658 38.1398 359.225 42.5742 356.272 45.5731L356.269 45.5759C353.317 48.5283 349.016 49.9646 343.454 49.9646C340.255 49.9646 337.292 49.3784 334.573 48.2L334.563 48.1959C331.886 46.9708 329.678 45.2421 327.947 43.01L327.699 42.691L334.332 34.7322L334.712 35.2458C337.168 38.5637 339.905 40.1457 342.924 40.1457C345.011 40.1457 346.492 39.5381 347.463 38.3998C348.448 37.2464 348.983 35.4628 348.983 32.9598V11.3919H332.68V1.77187ZM333.684 2.77605V10.3878H349.988V32.9598C349.988 35.5821 349.43 37.6425 348.227 39.0517C347.011 40.4762 345.211 41.1499 342.924 41.1499C339.662 41.1499 336.785 39.5055 334.291 36.3491L328.991 42.7098C330.578 44.6552 332.57 46.1788 334.977 47.2807C337.558 48.3985 340.382 48.9604 343.454 48.9604C348.85 48.9604 352.855 47.5694 355.558 44.8673C358.26 42.1223 359.654 37.9854 359.654 32.3633V2.77605H333.684ZM370.259 1.77187H382V49.1693H370.259V1.77187ZM371.263 2.77605V48.1651H380.996V2.77605H371.263ZM258.895 12.1105C261.185 10.7829 263.747 10.1227 266.567 10.1227C269.386 10.1227 271.948 10.7829 274.238 12.1106C276.528 13.3937 278.316 15.2058 279.597 17.5374C280.925 19.8736 281.583 22.5225 281.583 25.4706C281.583 28.4187 280.925 31.0675 279.597 33.4038C278.316 35.7351 276.529 37.5681 274.241 38.895L274.235 38.8988C271.945 40.1813 269.385 40.8185 266.567 40.8185C263.748 40.8185 261.188 40.1813 258.898 38.8987L258.892 38.895C256.604 37.5684 254.796 35.7362 253.471 33.4068L253.468 33.4003C252.185 31.0645 251.55 28.4169 251.55 25.4706C251.55 22.5242 252.185 19.8767 253.468 17.5409L253.471 17.5343C254.796 15.2046 256.606 13.3934 258.895 12.1105ZM266.567 11.1268C263.909 11.1268 261.523 11.7473 259.395 12.9811L259.389 12.9848C257.263 14.1756 255.583 15.8532 254.346 18.0275C253.155 20.1977 252.554 22.6744 252.554 25.4706C252.554 28.2667 253.155 30.7434 254.346 32.9136C255.583 35.0882 257.264 36.7891 259.392 38.0244C261.519 39.215 263.907 39.8143 266.567 39.8143C269.226 39.8143 271.613 39.215 273.741 38.0245C275.869 36.7895 277.526 35.0896 278.719 32.917L278.722 32.9104C279.956 30.7406 280.579 28.2651 280.579 25.4706C280.579 22.676 279.956 20.2005 278.722 18.0307L278.719 18.0242C277.526 15.8519 275.87 14.1753 273.744 12.9848L273.738 12.9811C271.61 11.7473 269.224 11.1268 266.567 11.1268Z" fill="#F3F3F5"/>
</svg>
