<svg width="388" height="50" viewBox="0 0 388 50" fill="none" xmlns="http://www.w3.org/2000/svg">
<path fillRule="evenodd" clipRule="evenodd" d="M72.5665 0.964844C67.6758 0.964844 63.2412 2.01998 59.2736 4.13902L59.2715 4.14016C55.3502 6.25856 52.2568 9.19288 50.0002 12.9387L49.9993 12.9402C47.7841 16.6473 46.6807 20.8246 46.6807 25.4588C46.6807 30.0932 47.7841 34.2915 49.9979 38.0415L50.0016 38.0476C52.2585 41.7489 55.3517 44.66 59.2715 46.7775L59.2736 46.7787C63.2412 48.8977 67.6758 49.9529 72.5665 49.9529C77.4572 49.9529 81.8706 48.8977 85.7953 46.7775C89.715 44.66 92.8082 41.7489 95.0651 38.0476L95.0665 38.0453C97.3258 34.2948 98.4523 30.0951 98.4523 25.4588C98.4523 20.8233 97.3261 16.6452 95.0661 12.9381C92.8096 9.19255 89.7163 6.25844 85.7953 4.14016C81.8706 2.01996 77.4572 0.964844 72.5665 0.964844ZM12.5719 1.76015H0L18.3472 32.226V49.1575H30.0881V32.3584L48.5012 1.76015H36.7912L24.6816 21.8997L12.5719 1.76015ZM130.802 1.76015H102.823V11.3802H119.127V32.948C119.127 35.4511 118.591 37.2347 117.607 38.3881C116.636 39.5263 115.155 40.134 113.068 40.134C110.049 40.134 107.312 38.552 104.856 35.2341L104.475 34.7205L97.843 42.6793L98.0904 42.9983C99.8214 45.2304 102.03 46.9592 104.707 48.1842L104.716 48.1883C107.436 49.3666 110.398 49.9529 113.598 49.9529C119.16 49.9529 123.461 48.5166 126.413 45.5641L126.416 45.5614C129.369 42.5624 130.802 38.128 130.802 32.3516V1.76015ZM166.658 1.76015H138.68V11.3802H154.983V32.948C154.983 35.4511 154.448 37.2347 153.463 38.3881C152.492 39.5263 151.011 40.134 148.924 40.134C145.905 40.134 143.168 38.552 140.712 35.2341L140.332 34.7205L133.699 42.6793L133.947 42.9983C135.678 45.2304 137.886 46.9591 140.563 48.1841L140.573 48.1883C143.292 49.3666 146.255 49.9529 149.454 49.9529C155.016 49.9529 159.317 48.5166 162.269 45.5641L162.272 45.5614C165.225 42.5624 166.658 38.128 166.658 32.3516V1.76015ZM188 1.76015H176.259V49.1575H188V1.76015ZM65.3955 12.9694C67.5226 11.7356 69.9089 11.1151 72.5665 11.1151C75.2241 11.1151 77.6104 11.7356 79.7375 12.9694L79.7441 12.9731C81.8699 14.1636 83.5262 15.8402 84.7188 18.0125L84.7225 18.019C85.9563 20.1888 86.5789 22.6643 86.5789 25.4588C86.5789 28.2534 85.9563 30.7289 84.7225 32.8987L84.7188 32.9052C83.526 35.0779 81.8687 36.7778 79.7407 38.0128C77.6134 39.2033 75.2259 39.8026 72.5665 39.8026C69.9071 39.8026 67.5194 39.2032 65.3921 38.0126C63.2637 36.7774 61.5833 35.0765 60.3461 32.9019C59.1554 30.7317 58.5541 28.255 58.5541 25.4588C58.5541 22.6627 59.1554 20.186 60.3461 18.0158C61.5831 15.8415 63.2626 14.1639 65.3889 12.9731L65.3955 12.9694Z" fill="#8A8F94"/>
<path fillRule="evenodd" clipRule="evenodd" d="M266.567 1.96903C261.826 1.96903 257.556 2.99035 253.748 5.02425C249.982 7.05901 247.022 9.86828 244.861 13.4564C242.746 16.9953 241.685 20.9917 241.685 25.4588C241.685 29.9251 242.746 33.9439 244.861 37.5277C247.022 41.071 249.981 43.8585 253.748 45.8936C257.556 47.9274 261.826 48.9487 266.567 48.9487C271.308 48.9487 275.555 47.9271 279.318 45.894C283.086 43.8587 286.045 41.0706 288.207 37.5265C290.366 33.9426 291.448 29.9242 291.448 25.4588C291.448 20.9932 290.365 16.9978 288.208 13.4592L288.206 13.4569C286.044 9.86815 283.085 7.05855 279.318 5.02366C275.555 2.99055 271.308 1.96903 266.567 1.96903ZM253.274 4.13902C257.241 2.01998 261.676 0.964844 266.567 0.964844C271.457 0.964844 275.871 2.01996 279.795 4.14016C283.716 6.25844 286.81 9.19255 289.066 12.9381C291.326 16.6452 292.452 20.8233 292.452 25.4588C292.452 30.0951 291.326 34.2948 289.067 38.0453L289.065 38.0476C286.808 41.7489 283.715 44.66 279.795 46.7775C275.871 48.8977 271.457 49.9529 266.567 49.9529C261.676 49.9529 257.241 48.8977 253.274 46.7787L253.271 46.7775C249.352 44.66 246.259 41.7489 244.002 38.0476L243.998 38.0415C241.784 34.2916 240.681 30.0932 240.681 25.4588C240.681 20.8246 241.784 16.6473 243.999 12.9402L244 12.9387C246.257 9.19288 249.35 6.25856 253.271 4.14016L253.274 4.13902ZM194 1.76015H206.572L218.682 21.8997L230.791 1.76015H242.501L224.088 32.3584V49.1575H212.347V32.226L194 1.76015ZM195.777 2.76434L213.351 31.9469V48.1534H223.084V32.0796L240.725 2.76434H231.359L218.682 23.8484L206.004 2.76434H195.777ZM296.823 1.76015H324.802V32.3516C324.802 38.128 323.369 42.5624 320.416 45.5614L320.413 45.5641C317.461 48.5166 313.16 49.9529 307.598 49.9529C304.398 49.9529 301.436 49.3666 298.716 48.1883L298.707 48.1842C296.03 46.9592 293.821 45.2304 292.09 42.9983L291.843 42.6793L298.475 34.7205L298.856 35.2341C301.312 38.552 304.049 40.134 307.068 40.134C309.155 40.134 310.636 39.5263 311.607 38.3881C312.591 37.2347 313.127 35.4511 313.127 32.948V11.3802H296.823V1.76015ZM297.827 2.76434V10.376H314.131V32.948C314.131 35.5704 313.573 37.6308 312.371 39.04C311.155 40.4644 309.355 41.1381 307.068 41.1381C303.806 41.1381 300.928 39.4938 298.435 36.3374L293.135 42.698C294.721 44.6434 296.714 46.167 299.12 47.2689C301.702 48.3868 304.526 48.9487 307.598 48.9487C312.993 48.9487 316.998 47.5577 319.701 44.8556C322.403 42.1106 323.798 37.9737 323.798 32.3516V2.76434H297.827ZM332.68 1.76015H360.658V32.3516C360.658 38.128 359.225 42.5624 356.272 45.5614L356.269 45.5641C353.317 48.5166 349.016 49.9529 343.454 49.9529C340.255 49.9529 337.292 49.3666 334.573 48.1883L334.563 48.1841C331.886 46.9591 329.678 45.2304 327.947 42.9983L327.699 42.6793L334.332 34.7205L334.712 35.2341C337.168 38.552 339.905 40.134 342.924 40.134C345.011 40.134 346.492 39.5263 347.463 38.3881C348.448 37.2347 348.983 35.4511 348.983 32.948V11.3802H332.68V1.76015ZM333.684 2.76434V10.376H349.988V32.948C349.988 35.5704 349.43 37.6308 348.227 39.04C347.011 40.4644 345.211 41.1381 342.924 41.1381C339.662 41.1381 336.785 39.4938 334.291 36.3374L328.991 42.698C330.578 44.6435 332.57 46.167 334.977 47.269C337.558 48.3868 340.382 48.9487 343.454 48.9487C348.85 48.9487 352.855 47.5577 355.558 44.8556C358.26 42.1106 359.654 37.9737 359.654 32.3516V2.76434H333.684ZM370.259 1.76015H382V49.1575H370.259V1.76015ZM371.263 2.76434V48.1534H380.996V2.76434H371.263ZM258.895 12.0988C261.185 10.7711 263.747 10.1109 266.567 10.1109C269.386 10.1109 271.948 10.7712 274.238 12.0989C276.528 13.382 278.316 15.194 279.597 17.5256C280.925 19.8619 281.583 22.5107 281.583 25.4588C281.583 28.4069 280.925 31.0558 279.597 33.392C278.316 35.7234 276.529 37.5564 274.241 38.8833L274.235 38.8871C271.945 40.1696 269.385 40.8068 266.567 40.8068C263.748 40.8068 261.188 40.1696 258.898 38.887L258.892 38.8833C256.604 37.5567 254.796 35.7245 253.471 33.3951L253.468 33.3885C252.185 31.0527 251.55 28.4052 251.55 25.4588C251.55 22.5125 252.185 19.865 253.468 17.5292L253.471 17.5226C254.796 15.1928 256.606 13.3817 258.895 12.0988ZM266.567 11.1151C263.909 11.1151 261.523 11.7356 259.395 12.9694L259.389 12.9731C257.263 14.1639 255.583 15.8415 254.346 18.0158C253.155 20.186 252.554 22.6627 252.554 25.4588C252.554 28.255 253.155 30.7317 254.346 32.9019C255.583 35.0765 257.264 36.7774 259.392 38.0126C261.519 39.2032 263.907 39.8026 266.567 39.8026C269.226 39.8026 271.613 39.2033 273.741 38.0128C275.869 36.7778 277.526 35.0779 278.719 32.9052L278.722 32.8987C279.956 30.7289 280.579 28.2534 280.579 25.4588C280.579 22.6643 279.956 20.1888 278.722 18.019L278.719 18.0125C277.526 15.8402 275.87 14.1636 273.744 12.9731L273.738 12.9694C271.61 11.7356 269.224 11.1151 266.567 11.1151Z" fill="#8A8F94"/>
</svg>
