<svg width="81" height="32" viewBox="0 0 81 32" fill="none" xmlns="http://www.w3.org/2000/svg">
<g id="logo/technology-tool" clip-path="url(#clip0_92_5044)">
<path id="e" d="M10.6507 6.99658C5.02702 6.99658 0.34082 9.38243 0.34082 16.5804C0.34082 22.2828 3.49195 25.8738 10.7959 25.8738C19.393 25.8738 19.9441 20.2106 19.9441 20.2106H15.7784C15.7784 20.2106 14.8852 23.26 10.5418 23.26C7.00416 23.26 4.45976 20.8703 4.45976 17.5207H20.3797V15.4187C20.3797 12.1049 18.2761 6.99658 10.6507 6.99658ZM10.5055 9.68296C13.8729 9.68296 16.1687 11.7459 16.1687 14.8379H4.5519C4.5519 11.5554 7.54839 9.68296 10.5055 9.68296Z" fill="#E53238"/>
<path id="b" d="M20.3768 0.0268555V22.2593C20.3768 23.5213 20.2867 25.2933 20.2867 25.2933H24.2599C24.2599 25.2933 24.4025 24.0206 24.4025 22.8576C24.4025 22.8576 26.3655 25.9286 31.7031 25.9286C37.3238 25.9286 41.1417 22.0263 41.1417 16.4355C41.1417 11.2345 37.6348 7.05136 31.7122 7.05136C26.166 7.05136 24.4426 10.0463 24.4426 10.0463V0.0268555H20.3768ZM30.6866 9.80127C34.5035 9.80127 36.9306 12.6341 36.9306 16.4355C36.9306 20.5119 34.1274 23.1787 30.7139 23.1787C26.6401 23.1787 24.4426 19.9979 24.4426 16.4718C24.4426 13.1862 26.4145 9.80127 30.6866 9.80127Z" fill="#0064D2"/>
<path id="a" d="M51.0159 6.99658C42.5555 6.99658 42.0129 11.6291 42.0129 12.3693H46.224C46.224 12.3693 46.4448 9.66481 50.7255 9.66481C53.5072 9.66481 55.6626 10.938 55.6626 13.3858V14.2571H50.7255C44.1711 14.2571 40.7061 16.1745 40.7061 20.0654C40.7061 23.8947 43.9077 25.9782 48.2343 25.9782C54.1307 25.9782 56.0302 22.72 56.0302 22.72C56.0302 24.016 56.1301 25.293 56.1301 25.293H59.8737C59.8737 25.293 59.7285 23.7101 59.7285 22.6974V13.9439C59.7285 8.20446 55.099 6.99658 51.0159 6.99658ZM55.6626 16.8708V18.0325C55.6626 19.5476 54.7277 23.3145 49.2235 23.3145C46.2094 23.3145 44.9171 21.8103 44.9171 20.0654C44.9171 16.8913 49.2691 16.8708 55.6626 16.8708Z" fill="#F5AF02"/>
<path id="y" d="M57.4609 7.72363H62.1984L68.9973 21.3448L75.7807 7.72363H80.0721L67.7164 31.9736H63.2149L66.7803 25.2136L57.4609 7.72363Z" fill="#86B817"/>
</g>
<defs>
<clipPath id="clip0_92_5044">
<rect width="79.7845" height="32" fill="white" transform="translate(0.314209)"/>
</clipPath>
</defs>
</svg>
