<svg width="134" height="32" viewBox="0 0 134 32" fill="none" xmlns="http://www.w3.org/2000/svg">
<g clip-path="url(#clip0_92_5043)">
<path d="M12.4189 4.03196C12.7583 3.14385 13.2249 2.32623 13.9177 1.66368C16.689 -1.02883 21.2701 -0.352182 23.1506 3.03108C24.5645 5.59672 26.0633 8.10597 27.5196 10.6434C29.9516 14.8584 32.4118 19.0734 34.8155 23.3024C36.8374 26.8408 34.6458 31.3095 30.6303 31.9157C28.17 32.2822 25.8653 31.1544 24.5928 28.9553C22.4578 25.2478 20.3086 21.5403 18.1736 17.8469C18.1312 17.7624 18.0746 17.6919 18.0181 17.6214C17.7918 17.4381 17.6929 17.1703 17.5515 16.9306C16.6041 15.2672 15.6285 13.6179 14.6812 11.9685C14.0732 10.8972 13.437 9.83989 12.829 8.76852C12.2775 7.80993 12.023 6.76676 12.0513 5.6672C12.0937 5.10332 12.1644 4.53945 12.4189 4.03196Z" fill="#3C8BD9"/>
<path d="M12.4189 4.03174C12.2917 4.53923 12.1786 5.04672 12.1503 5.5824C12.1079 6.76654 12.4048 7.8661 12.9986 8.89517C14.5539 11.5595 16.1093 14.2379 17.6504 16.9163C17.7918 17.156 17.9049 17.3956 18.0463 17.6212C17.198 19.0872 16.3496 20.5392 15.4871 22.0053C14.2994 24.0494 13.1117 26.1075 11.9099 28.1516C11.8534 28.1516 11.8392 28.1234 11.8251 28.0811C11.8109 27.9683 11.8534 27.8696 11.8816 27.7568C12.4613 25.6423 11.9806 23.7674 10.5243 22.1604C9.63349 21.1877 8.50235 20.6379 7.20155 20.4546C5.50484 20.215 4.00608 20.652 2.66285 21.7093C2.42248 21.8925 2.26695 22.1604 1.98417 22.3013C1.92761 22.3013 1.89933 22.2731 1.88519 22.2309C2.56388 21.0608 3.22842 19.8908 3.9071 18.7207C6.70667 13.8714 9.50624 9.02205 12.3199 4.1868C12.3482 4.13042 12.3906 4.08813 12.4189 4.03174Z" fill="#FABC04"/>
<path d="M1.94176 22.2734C2.2104 22.0337 2.46491 21.78 2.74769 21.5544C6.18353 18.8478 11.3443 20.8073 12.0937 25.0927C12.2775 26.1218 12.1786 27.1086 11.8675 28.0954C11.8534 28.18 11.8392 28.2504 11.8109 28.335C11.6837 28.5606 11.5706 28.8002 11.4292 29.0258C10.1708 31.098 8.31855 32.1271 5.8866 31.972C3.10117 31.7747 0.909591 29.6883 0.527832 26.9253C0.344022 25.5861 0.612667 24.3315 1.30549 23.1756C1.44688 22.9218 1.61655 22.6963 1.77208 22.4425C1.84278 22.3861 1.8145 22.2734 1.94176 22.2734Z" fill="#34A852"/>
<path d="M1.94176 22.2732C1.8852 22.3296 1.8852 22.4282 1.78622 22.4423C1.77209 22.3437 1.82864 22.2873 1.8852 22.2168L1.94176 22.2732Z" fill="#FABC04"/>
<path d="M11.8109 28.3349C11.7544 28.2362 11.8109 28.1657 11.8675 28.0952C11.8816 28.1093 11.9099 28.1375 11.924 28.1516L11.8109 28.3349Z" fill="#E1C025"/>
<path d="M47.8874 7C43.731 7 40.2733 10.2996 40.2733 14.3607C40.2733 18.4218 43.731 21.6851 47.8874 21.6851C50.1312 21.6851 51.7864 20.9599 53.1106 19.6183C54.4716 18.2767 54.8762 16.4275 54.8762 14.9408C54.8762 14.4695 54.8394 14.0343 54.7659 13.6718H47.8874V15.666H52.7796C52.6324 16.7901 52.2646 17.624 51.6761 18.2042C50.9772 18.8931 49.8369 19.6908 47.8874 19.6908C44.8712 19.6908 42.5171 17.2977 42.5171 14.3607C42.5171 11.4237 44.8712 9.03054 47.8874 9.03054C49.5059 9.03054 50.7197 9.64695 51.5657 10.4809L53.0003 9.0668C51.7864 7.90649 50.168 7 47.8874 7ZM60.3569 12.2576C57.7453 12.2576 55.5751 14.2519 55.5751 17.0439C55.5751 19.7996 57.7085 21.8302 60.3569 21.8302C63.0053 21.8302 65.1387 19.7996 65.1387 17.0439C65.1387 14.2882 62.9685 12.2576 60.3569 12.2576ZM60.3569 19.9447C58.9223 19.9447 57.6717 18.7481 57.6717 17.0439C57.6717 15.3397 58.9223 14.1431 60.3569 14.1431C61.7914 14.1431 63.042 15.3034 63.042 17.0439C63.042 18.7481 61.7914 19.9447 60.3569 19.9447ZM70.7297 12.2576C68.0813 12.2576 65.9479 14.2519 65.9479 17.0439C65.9479 19.7996 68.0813 21.8302 70.7297 21.8302C73.3413 21.8302 75.5115 19.7996 75.5115 17.0439C75.5115 14.2882 73.3781 12.2576 70.7297 12.2576ZM70.7297 19.9447C69.2952 19.9447 68.0445 18.7481 68.0445 17.0439C68.0445 15.3397 69.2952 14.1431 70.7297 14.1431C72.1642 14.1431 73.4149 15.3034 73.4149 17.0439C73.4149 18.7481 72.201 19.9447 70.7297 19.9447ZM81.0657 12.2576C78.6748 12.2576 76.5046 14.3244 76.5046 17.0076C76.5046 19.6546 78.6748 21.7214 81.0657 21.7214C82.206 21.7214 83.0888 21.2137 83.567 20.6336H83.6406V21.3225C83.6406 23.1355 82.6842 24.1145 81.1025 24.1145C79.8151 24.1145 79.0427 23.208 78.7116 22.4466L76.8725 23.208C77.3874 24.4771 78.7852 26 81.1025 26C83.567 26 85.6268 24.5496 85.6268 21.0687V12.584H83.6406V13.3454H83.567C83.0888 12.7653 82.206 12.2576 81.0657 12.2576ZM81.2497 19.8721C79.8151 19.8721 78.6013 18.6756 78.6013 17.0076C78.6013 15.3397 79.8151 14.1069 81.2497 14.1069C82.6842 14.1069 83.7877 15.3397 83.7877 17.0076C83.7877 18.6756 82.6842 19.8721 81.2497 19.8721ZM87.1717 7.58015H89.2684V21.5763H87.1717V7.58015ZM94.8962 12.2576C92.3949 12.2576 90.2983 14.1794 90.2983 17.0439C90.2983 19.7271 92.3581 21.8302 95.1169 21.8302C97.3606 21.8302 98.648 20.4886 99.163 19.7271L97.5078 18.6393C96.956 19.437 96.1836 19.9447 95.1169 19.9447C94.0134 19.9447 93.2409 19.4733 92.7627 18.4943L99.2733 15.8473L99.0527 15.3034C98.648 14.2519 97.3974 12.2576 94.8962 12.2576ZM92.3949 16.8989C92.3214 15.0496 93.8662 14.1069 94.9329 14.1069C95.779 14.1069 96.5146 14.5057 96.7353 15.1221L92.3949 16.8989Z" fill="#757575"/>
<path d="M102.273 21L107.302 8H109.245L114.273 21H112.369L111.073 17.4815H105.473L104.178 21H102.273ZM106.045 15.9259H110.502L108.33 10.0741H108.254L106.045 15.9259Z" fill="#757575"/>
<path d="M115.506 20.5571C114.684 19.5822 114.273 18.4123 114.273 17.0084C114.273 15.6435 114.684 14.4735 115.506 13.4596C116.365 12.4847 117.336 12.0167 118.531 12.0167C119.203 12.0167 119.8 12.1727 120.323 12.4457C120.883 12.7577 121.294 13.1086 121.593 13.6156H121.668L121.593 12.3287V8H123.273V21.688H121.668V20.4011H121.593C121.294 20.8691 120.883 21.2591 120.323 21.571C119.763 21.883 119.165 22 118.531 22C117.336 22 116.327 21.532 115.506 20.5571ZM120.809 19.4652C121.369 18.8412 121.63 18.0223 121.63 17.0084C121.63 16.0334 121.369 15.2145 120.809 14.5905C120.286 13.9666 119.614 13.6546 118.792 13.6546C117.97 13.6546 117.298 13.9666 116.775 14.5905C116.215 15.2145 115.954 16.0334 115.954 17.0084C115.954 17.9833 116.215 18.8022 116.775 19.4262C117.336 20.0501 118.008 20.3621 118.792 20.3621C119.614 20.4011 120.286 20.0891 120.809 19.4652Z" fill="#757575"/>
<path d="M131.321 21.1406C130.689 21.6875 129.88 22 128.895 22C128.051 22 127.313 21.7656 126.645 21.2578C126.012 20.75 125.555 20.125 125.273 19.3047L126.68 18.6406C126.891 19.1875 127.172 19.6563 127.594 19.9688C127.981 20.2813 128.438 20.4375 128.895 20.4375C129.387 20.4375 129.809 20.3203 130.161 20.0859C130.513 19.8516 130.653 19.5391 130.653 19.2266C130.653 18.6406 130.231 18.1719 129.423 17.8984L127.981 17.5078C126.328 17.0391 125.519 16.1797 125.519 14.8516C125.519 13.9922 125.836 13.3281 126.469 12.7813C127.102 12.2734 127.911 12 128.86 12C129.598 12 130.267 12.1953 130.9 12.5859C131.497 12.9766 131.919 13.5234 132.165 14.1875L130.759 14.8516C130.583 14.4609 130.337 14.1484 129.985 13.9141C129.634 13.6797 129.212 13.5625 128.755 13.5625C128.333 13.5625 127.981 13.6797 127.629 13.9141C127.313 14.1484 127.137 14.4219 127.137 14.7734C127.137 15.3203 127.594 15.7109 128.508 15.9063L129.774 16.2578C131.462 16.7266 132.271 17.6641 132.271 19.0703C132.306 19.8906 131.954 20.5938 131.321 21.1406Z" fill="#757575"/>
</g>
<defs>
<clipPath id="clip0_92_5043">
<rect width="133" height="32" fill="white" transform="translate(0.273315)"/>
</clipPath>
</defs>
</svg>
