<svg width="68" height="32" viewBox="0 0 68 32" fill="none" xmlns="http://www.w3.org/2000/svg">
<g clip-path="url(#clip0_92_5042)">
<path d="M31.7889 16.5461V24.3571H29.2692V5.03955H35.8204C37.4162 5.03955 38.928 5.62748 40.1039 6.71934C41.2797 7.72722 41.8676 9.23903 41.8676 10.8348C41.8676 12.4306 41.2797 13.8584 40.1039 14.9503C38.928 16.0422 37.5002 16.6301 35.8204 16.6301L31.7889 16.5461ZM31.7889 7.39126V14.1104H35.9884C36.9123 14.1104 37.8361 13.7745 38.4241 13.1025C39.7679 11.8427 39.7679 9.74296 38.5081 8.48312L38.4241 8.39913C37.7522 7.72722 36.9123 7.30727 35.9884 7.39126H31.7889Z" fill="#5F6368"/>
<path d="M47.6629 10.7505C49.5107 10.7505 50.9385 11.2544 52.0304 12.2623C53.1222 13.2702 53.6262 14.614 53.6262 16.2938V24.3568H51.2745V22.509H51.1905C50.1826 24.0208 48.7548 24.7767 47.075 24.7767C45.6472 24.7767 44.3873 24.3568 43.3795 23.5169C42.4556 22.677 41.8676 21.5011 41.8676 20.2413C41.8676 18.8975 42.3716 17.8056 43.3795 16.9657C44.3873 16.1258 45.8152 15.7899 47.4949 15.7899C49.0068 15.7899 50.1826 16.0418 51.1065 16.6298V16.0418C51.1065 15.2019 50.7705 14.362 50.0986 13.8581C49.4267 13.2702 48.5868 12.9342 47.6629 12.9342C46.2351 12.9342 45.1432 13.5221 44.3873 14.698L42.2036 13.3542C43.5474 11.5904 45.3112 10.7505 47.6629 10.7505ZM44.4713 20.3253C44.4713 20.9972 44.8073 21.5851 45.3112 21.9211C45.8991 22.341 46.5711 22.593 47.243 22.593C48.2508 22.593 49.2587 22.1731 50.0146 21.4172C50.8545 20.6613 51.2745 19.7374 51.2745 18.7295C50.5186 18.1416 49.4267 17.8056 47.9989 17.8056C46.991 17.8056 46.1511 18.0576 45.4792 18.5615C44.8073 18.9815 44.4713 19.5694 44.4713 20.3253Z" fill="#5F6368"/>
<path d="M67.2325 11.1704L58.9175 30.236H56.3978L59.5054 23.6009L54.0461 11.2544H56.7338L60.6813 20.7452H60.7653L64.6288 11.2544H67.2325V11.1704Z" fill="#5F6368"/>
<path d="M21.7941 14.8664C21.7941 14.1104 21.7102 13.3545 21.6262 12.5986H11.1275V16.8821H17.0907C16.8388 18.2259 16.0829 19.4858 14.907 20.2417V23.0133H18.5185C20.6183 21.0816 21.7941 18.2259 21.7941 14.8664Z" fill="#4285F4"/>
<path d="M11.1275 25.7007C14.1511 25.7007 16.6708 24.6929 18.5186 23.0131L14.907 20.2414C13.8991 20.9133 12.6393 21.3333 11.1275 21.3333C8.27184 21.3333 5.75215 19.4015 4.91226 16.7139H1.21672V19.5695C3.14848 23.349 6.92801 25.7007 11.1275 25.7007Z" fill="#34A853"/>
<path d="M4.91226 16.7138C4.40832 15.37 4.40832 13.8582 4.91226 12.4304V9.57471H1.21672C-0.379083 12.6823 -0.379083 16.3779 1.21672 19.5695L4.91226 16.7138Z" fill="#FBBC04"/>
<path d="M11.1275 7.89492C12.7233 7.89492 14.2351 8.48285 15.4109 9.57471L18.6025 6.38311C16.5868 4.53534 13.8991 3.44348 11.2115 3.52747C7.01199 3.52747 3.14847 5.87917 1.3007 9.6587L4.99624 12.5143C5.75215 9.82668 8.27183 7.89492 11.1275 7.89492Z" fill="#EA4335"/>
</g>
<defs>
<clipPath id="clip0_92_5042">
<rect width="67.1916" height="32" fill="white" transform="translate(0.040863)"/>
</clipPath>
</defs>
</svg>
