<svg width="388" height="49" viewBox="0 0 388 49" fill="none" xmlns="http://www.w3.org/2000/svg">
<path fillRule="evenodd" clipRule="evenodd" d="M72.5665 0C67.6758 0 63.2412 1.05514 59.2736 3.17418L59.2715 3.17531C55.3502 5.29372 52.2568 8.22804 50.0002 11.9739L49.9993 11.9754C47.7841 15.6824 46.6807 19.8597 46.6807 24.494C46.6807 29.1284 47.7841 33.3267 49.9979 37.0766L50.0016 37.0827C52.2585 40.784 55.3517 43.6951 59.2715 45.8127L59.2736 45.8138C63.2412 47.9329 67.6758 48.988 72.5665 48.988C77.4572 48.988 81.8706 47.9329 85.7953 45.8127C89.715 43.6951 92.8082 40.784 95.0651 37.0827L95.0665 37.0804C97.3258 33.33 98.4523 29.1303 98.4523 24.494C98.4523 19.8585 97.3261 15.6804 95.0661 11.9732C92.8096 8.22771 89.7163 5.2936 85.7953 3.17531C81.8706 1.05512 77.4572 0 72.5665 0ZM12.5719 0.79531H0L18.3472 31.2611V48.1927H30.0881V31.3936L48.5012 0.79531H36.7912L24.6816 20.9349L12.5719 0.79531ZM130.802 0.79531H102.823V10.4154H119.127V31.9832C119.127 34.4862 118.591 36.2698 117.607 37.4233C116.636 38.5615 115.155 39.1691 113.068 39.1691C110.049 39.1691 107.312 37.5872 104.856 34.2692L104.475 33.7556L97.843 41.7145L98.0904 42.0335C99.8214 44.2655 102.03 45.9943 104.707 47.2194L104.716 47.2234C107.436 48.4018 110.398 48.988 113.598 48.988C119.16 48.988 123.461 47.5517 126.413 44.5993L126.416 44.5965C129.369 41.5976 130.802 37.1632 130.802 31.3867V0.79531ZM166.658 0.79531H138.68V10.4154H154.983V31.9832C154.983 34.4862 154.448 36.2698 153.463 37.4233C152.492 38.5615 151.011 39.1691 148.924 39.1691C145.905 39.1691 143.168 37.5872 140.712 34.2692L140.332 33.7556L133.699 41.7145L133.947 42.0335C135.678 44.2655 137.886 45.9942 140.563 47.2193L140.573 47.2234C143.292 48.4018 146.255 48.988 149.454 48.988C155.016 48.988 159.317 47.5517 162.269 44.5993L162.272 44.5965C165.225 41.5976 166.658 37.1632 166.658 31.3867V0.79531ZM188 0.79531H176.259V48.1927H188V0.79531ZM65.3955 12.0045C67.5226 10.7708 69.9089 10.1503 72.5665 10.1503C75.2241 10.1503 77.6104 10.7708 79.7375 12.0045L79.7441 12.0083C81.8699 13.1987 83.5262 14.8754 84.7188 17.0477L84.7225 17.0542C85.9563 19.224 86.5789 21.6994 86.5789 24.494C86.5789 27.2886 85.9563 29.764 84.7225 31.9338L84.7188 31.9404C83.526 34.1131 81.8687 35.8129 79.7407 37.0479C77.6134 38.2384 75.2259 38.8377 72.5665 38.8377C69.9071 38.8377 67.5194 38.2384 65.3921 37.0478C63.2637 35.8125 61.5833 34.1117 60.3461 31.9371C59.1554 29.7669 58.5541 27.2901 58.5541 24.494C58.5541 21.6979 59.1554 19.2211 60.3461 17.051C61.5831 14.8767 63.2626 13.199 65.3889 12.0083L65.3955 12.0045Z" fill="#313339"/>
<path fillRule="evenodd" clipRule="evenodd" d="M266.567 1.00418C261.826 1.00418 257.556 2.02551 253.748 4.0594C249.982 6.09417 247.022 8.90343 244.861 12.4916C242.746 16.0305 241.685 20.0269 241.685 24.494C241.685 28.9602 242.746 32.979 244.861 36.5628C247.022 40.1061 249.981 42.8936 253.748 44.9288C257.556 46.9626 261.826 47.9838 266.567 47.9838C271.308 47.9838 275.555 46.9623 279.318 44.9292C283.086 42.8938 286.045 40.1058 288.207 36.5617C290.366 32.9777 291.448 28.9594 291.448 24.494C291.448 20.0283 290.365 16.033 288.208 12.4943L288.206 12.492C286.044 8.90331 283.085 6.0937 279.318 4.05881C275.555 2.02571 271.308 1.00418 266.567 1.00418ZM253.274 3.17418C257.241 1.05514 261.676 0 266.567 0C271.457 0 275.871 1.05512 279.795 3.17531C283.716 5.2936 286.81 8.22771 289.066 11.9732C291.326 15.6804 292.452 19.8585 292.452 24.494C292.452 29.1303 291.326 33.33 289.067 37.0804L289.065 37.0827C286.808 40.784 283.715 43.6951 279.795 45.8127C275.871 47.9329 271.457 48.988 266.567 48.988C261.676 48.988 257.241 47.9329 253.274 45.8138L253.271 45.8127C249.352 43.6951 246.259 40.784 244.002 37.0827L243.998 37.0766C241.784 33.3267 240.681 29.1284 240.681 24.494C240.681 19.8597 241.784 15.6824 243.999 11.9754L244 11.9739C246.257 8.22804 249.35 5.29372 253.271 3.17531L253.274 3.17418ZM194 0.79531H206.572L218.682 20.9349L230.791 0.79531H242.501L224.088 31.3936V48.1927H212.347V31.2611L194 0.79531ZM195.777 1.79949L213.351 30.9821V47.1885H223.084V31.1147L240.725 1.79949H231.359L218.682 22.8836L206.004 1.79949H195.777ZM296.823 0.79531H324.802V31.3867C324.802 37.1632 323.369 41.5976 320.416 44.5965L320.413 44.5993C317.461 47.5517 313.16 48.988 307.598 48.988C304.398 48.988 301.436 48.4018 298.716 47.2234L298.707 47.2194C296.03 45.9943 293.821 44.2655 292.09 42.0335L291.843 41.7145L298.475 33.7556L298.856 34.2692C301.312 37.5872 304.049 39.1691 307.068 39.1691C309.155 39.1691 310.636 38.5615 311.607 37.4233C312.591 36.2698 313.127 34.4862 313.127 31.9832V10.4154H296.823V0.79531ZM297.827 1.79949V9.41119H314.131V31.9832C314.131 34.6055 313.573 36.6659 312.371 38.0752C311.155 39.4996 309.355 40.1733 307.068 40.1733C303.806 40.1733 300.928 38.529 298.435 35.3725L293.135 41.7332C294.721 43.6786 296.714 45.2021 299.12 46.304C301.702 47.4219 304.526 47.9838 307.598 47.9838C312.993 47.9838 316.998 46.5929 319.701 43.8907C322.403 41.1457 323.798 37.0088 323.798 31.3867V1.79949H297.827ZM332.68 0.79531H360.658V31.3867C360.658 37.1632 359.225 41.5976 356.272 44.5965L356.269 44.5993C353.317 47.5517 349.016 48.988 343.454 48.988C340.255 48.988 337.292 48.4018 334.573 47.2234L334.563 47.2193C331.886 45.9942 329.678 44.2655 327.947 42.0335L327.699 41.7145L334.332 33.7556L334.712 34.2692C337.168 37.5872 339.905 39.1691 342.924 39.1691C345.011 39.1691 346.492 38.5615 347.463 37.4233C348.448 36.2698 348.983 34.4862 348.983 31.9832V10.4154H332.68V0.79531ZM333.684 1.79949V9.41119H349.988V31.9832C349.988 34.6055 349.43 36.6659 348.227 38.0752C347.011 39.4996 345.211 40.1733 342.924 40.1733C339.662 40.1733 336.785 38.529 334.291 35.3725L328.991 41.7332C330.578 43.6786 332.57 45.2022 334.977 46.3041C337.558 47.4219 340.382 47.9838 343.454 47.9838C348.85 47.9838 352.855 46.5929 355.558 43.8907C358.26 41.1457 359.654 37.0088 359.654 31.3867V1.79949H333.684ZM370.259 0.79531H382V48.1927H370.259V0.79531ZM371.263 1.79949V47.1885H380.996V1.79949H371.263ZM258.895 11.134C261.185 9.80629 263.747 9.14609 266.567 9.14609C269.386 9.14609 271.948 9.80631 274.238 11.1341C276.528 12.4171 278.316 14.2292 279.597 16.5608C280.925 18.897 281.583 21.5459 281.583 24.494C281.583 27.4421 280.925 30.091 279.597 32.4272C278.316 34.7585 276.529 36.5916 274.241 37.9184L274.235 37.9222C271.945 39.2048 269.385 39.8419 266.567 39.8419C263.748 39.8419 261.188 39.2047 258.898 37.9222L258.892 37.9185C256.604 36.5918 254.796 34.7597 253.471 32.4302L253.468 32.4237C252.185 30.0879 251.55 27.4404 251.55 24.494C251.55 21.5477 252.185 18.9001 253.468 16.5644L253.471 16.5578C254.796 14.228 256.606 12.4168 258.895 11.134ZM266.567 10.1503C263.909 10.1503 261.523 10.7708 259.395 12.0045L259.389 12.0083C257.263 13.199 255.583 14.8767 254.346 17.051C253.155 19.2211 252.554 21.6979 252.554 24.494C252.554 27.2901 253.155 29.7669 254.346 31.9371C255.583 34.1117 257.264 35.8125 259.392 37.0478C261.519 38.2384 263.907 38.8377 266.567 38.8377C269.226 38.8377 271.613 38.2384 273.741 37.0479C275.869 35.8129 277.526 34.1131 278.719 31.9404L278.722 31.9338C279.956 29.764 280.579 27.2886 280.579 24.494C280.579 21.6994 279.956 19.224 278.722 17.0542L278.719 17.0477C277.526 14.8754 275.87 13.1987 273.744 12.0083L273.738 12.0045C271.61 10.7708 269.224 10.1503 266.567 10.1503Z" fill="#313339"/>
</svg>
