<svg width="16" height="17" viewBox="0 0 16 17" fill="none" xmlns="http://www.w3.org/2000/svg">
  <path d="M14.8156 0.585938H1.18125C0.528125 0.585938 0 1.10156 0 1.73906V15.4297C0 16.0672 0.528125 16.5859 1.18125 16.5859H14.8156C15.4688 16.5859 16 16.0672 16 15.4328V1.73906C16 1.10156 15.4688 0.585938 14.8156 0.585938ZM4.74687 14.2203H2.37188V6.58281H4.74687V14.2203ZM3.55938 5.54219C2.79688 5.54219 2.18125 4.92656 2.18125 4.16719C2.18125 3.40781 2.79688 2.79219 3.55938 2.79219C4.31875 2.79219 4.93437 3.40781 4.93437 4.16719C4.93437 4.92344 4.31875 5.54219 3.55938 5.54219ZM13.6344 14.2203H11.2625V10.5078C11.2625 9.62344 11.2469 8.48281 10.0281 8.48281C8.79375 8.48281 8.60625 9.44844 8.60625 10.4453V14.2203H6.2375V6.58281H8.5125V7.62656H8.54375C8.85938 7.02656 9.63438 6.39219 10.7875 6.39219C13.1906 6.39219 13.6344 7.97344 13.6344 10.0297V14.2203Z" fill="white"/>
  </svg>
