<svg width="86" height="20" viewBox="0 0 86 20" fill="none" xmlns="http://www.w3.org/2000/svg">
<path d="M29.8006 19.7335C35.336 19.7335 39.4372 15.6582 39.4372 10.0913C39.4372 4.52448 35.336 0.449219 29.8006 0.449219C24.2401 0.449219 20.1641 4.55112 20.1641 10.0913C20.1641 15.6316 24.2401 19.7335 29.8006 19.7335ZM29.8006 15.8752C26.6555 15.8752 24.045 13.6339 24.045 10.0913C24.045 6.54879 26.6555 4.30461 29.8006 4.30461C32.9457 4.30461 35.6089 6.54879 35.6089 10.0913C35.6089 13.6339 32.9457 15.8752 29.8006 15.8752Z" fill="white"/>
<path d="M12.4796 12.9231L5.31237 0.476562H0.855469L8.56471 13.8873V19.674H12.4796V12.9231Z" fill="white"/>
<path d="M12.7208 5.62795L15.7322 0.445312H20.1289L14.9493 9.4848L12.7208 5.62795Z" fill="white"/>
<rect x="81.8594" y="8.16016" width="3.85462" height="3.85685" fill="#0057FF"/>
<path fillRule="evenodd" clipRule="evenodd" d="M78.0031 0.445312H74.1484V19.7296H78.0031V12.0168H74.1485V8.15992H78.0031V0.445312Z" fill="white"/>
<path fillRule="evenodd" clipRule="evenodd" d="M54.8772 12.4871C54.8772 17.1728 52.4101 19.7296 47.7311 19.7296C45.0655 19.7296 42.7119 18.7545 41.2656 16.9669L43.8178 13.7872C44.8954 15.1685 46.0864 15.8727 47.5043 15.8727C49.3475 15.8727 51.0226 14.8164 51.0226 12.7309V4.30216H43.3357V0.445312H54.8772V8.15991H51.0234V12.0168H54.8772V12.4871Z" fill="white"/>
<path fillRule="evenodd" clipRule="evenodd" d="M70.2952 12.4871C70.2952 17.1728 67.8281 19.7296 63.1491 19.7296C60.4835 19.7296 58.1298 18.7545 56.6836 16.9669L59.2358 13.7872C60.3134 15.1685 61.5044 15.8727 62.9223 15.8727C64.7655 15.8727 66.4406 14.8164 66.4406 12.7309V4.30216H58.7537V0.445312H70.2952V8.15991H66.4414V12.0168H70.2952V12.4871Z" fill="white"/>
</svg>
