<svg width="114" height="32" viewBox="0 0 114 32" fill="none" xmlns="http://www.w3.org/2000/svg">
<g clip-path="url(#clip0_6720_122294)">
<path d="M104.476 11.3906C104.202 11.3906 103.935 11.4473 103.698 11.5811L96.216 15.9C95.7318 16.1789 95.4375 16.7055 95.4375 17.2658V25.8879C95.4375 26.4478 95.7318 26.9737 96.216 27.2534L98.17 28.3809C99.1194 28.8485 99.4694 28.8412 99.9014 28.8412C101.307 28.8412 102.11 27.9887 102.11 26.5072V17.9961C102.11 17.8758 102.005 17.7897 101.887 17.7897H100.95C100.83 17.7897 100.728 17.8758 100.728 17.9961V26.5072C100.728 27.1638 100.043 27.8243 98.9326 27.2692L96.8991 26.0784C96.8272 26.0393 96.772 25.9703 96.772 25.8879V17.2656C96.772 17.1839 96.8265 17.1007 96.8991 17.0593L104.365 12.7565C104.399 12.7368 104.437 12.7264 104.477 12.7264C104.516 12.7264 104.554 12.7368 104.588 12.7565L112.054 17.0595C112.125 17.1023 112.181 17.1815 112.181 17.266V25.8882C112.181 25.9705 112.14 26.0548 112.07 26.0945L104.588 30.3975C104.524 30.4357 104.435 30.4357 104.365 30.3975L102.443 29.2543C102.414 29.2385 102.381 29.2302 102.348 29.2302C102.315 29.2302 102.282 29.2385 102.253 29.2543C101.722 29.5549 101.622 29.5898 101.125 29.7624C101.002 29.8052 100.816 29.8716 101.188 30.0802L103.698 31.5566C103.935 31.6931 104.203 31.7643 104.477 31.7631C104.75 31.7649 105.019 31.6936 105.255 31.5568L112.737 27.2536C113.221 26.9722 113.516 26.4481 113.516 25.8882V17.2658C113.516 16.7057 113.221 16.18 112.737 15.9004L105.255 11.5815C105.02 11.4476 104.752 11.3908 104.477 11.3908L104.476 11.3906Z" fill="#313339"/>
<path d="M106.482 17.5508C104.351 17.5508 103.082 18.4572 103.082 19.9645C103.082 21.5993 104.342 22.0487 106.387 22.2508C108.833 22.4903 109.023 22.8493 109.023 23.3306C109.023 24.1655 108.358 24.5215 106.784 24.5215C104.806 24.5215 104.372 24.028 104.226 23.0448C104.209 22.9394 104.127 22.8542 104.02 22.8542H103.05C102.931 22.8542 102.828 22.957 102.828 23.0766C102.828 24.3352 103.513 25.8236 106.784 25.8236C109.151 25.8236 110.517 24.8947 110.517 23.2671C110.517 21.6538 109.414 21.2206 107.117 20.9172C104.797 20.6102 104.575 20.4599 104.575 19.9168C104.575 19.4684 104.763 18.8685 106.482 18.8685C108.017 18.8685 108.585 19.1996 108.817 20.2344C108.837 20.3315 108.923 20.4089 109.023 20.4089H109.993C110.052 20.4089 110.11 20.3723 110.152 20.3295C110.192 20.2838 110.221 20.2324 110.215 20.1708C110.065 18.389 108.876 17.5508 106.482 17.5508Z" fill="#313339"/>
<path d="M60.4902 0.0840869C60.4066 0.0841423 60.3244 0.105972 60.2518 0.147425C60.1796 0.189636 60.1197 0.249913 60.0779 0.322317C60.0361 0.394722 60.0139 0.476755 60.0135 0.560335V12.7075C60.0135 12.8267 59.9581 12.9335 59.8548 12.9933C59.8041 13.0228 59.7466 13.0383 59.688 13.0383C59.6294 13.0383 59.5718 13.0228 59.5212 12.9933L57.5354 11.8502C57.3905 11.7664 57.2262 11.7223 57.0588 11.7223C56.8915 11.7223 56.7271 11.7664 56.5822 11.8502L48.6552 16.4231C48.3589 16.5941 48.1787 16.9227 48.1787 17.2648V26.4108C48.1787 26.7524 48.3591 27.0654 48.6552 27.2364L56.5822 31.8096C56.727 31.8935 56.8914 31.9378 57.0588 31.9378C57.2262 31.9378 57.3906 31.8935 57.5354 31.8096L65.4624 27.2364C65.6075 27.1529 65.7281 27.0326 65.8118 26.8876C65.8955 26.7427 65.9394 26.5782 65.9391 26.4108V3.60916C65.9389 3.43787 65.8932 3.26969 65.8067 3.12182C65.7202 2.97394 65.596 2.85166 65.4467 2.76745L60.7285 0.131535C60.6545 0.0902662 60.5724 0.0829834 60.4902 0.0840869ZM9.49655 11.5008C9.34553 11.5068 9.20334 11.5332 9.06778 11.6118L1.14053 16.1849C0.995321 16.2683 0.874759 16.3886 0.79108 16.5336C0.707401 16.6786 0.663581 16.8432 0.664066 17.0105L0.679963 29.2851C0.679963 29.4557 0.768059 29.6144 0.918196 29.6978C0.990175 29.741 1.07257 29.7638 1.15654 29.7638C1.24051 29.7638 1.3229 29.741 1.39488 29.6978L6.09705 26.9985C6.39489 26.8215 6.58941 26.5139 6.58941 26.1727V20.4405C6.58941 20.0984 6.76935 19.7846 7.0661 19.6147L9.06756 18.4556C9.21227 18.3715 9.37685 18.3276 9.54424 18.3285C9.70763 18.3285 9.87543 18.3693 10.0207 18.4556L12.0224 19.6147C12.1677 19.698 12.2884 19.8183 12.3721 19.9633C12.4559 20.1084 12.4997 20.273 12.4991 20.4405V26.1725C12.4991 26.5137 12.6956 26.8235 12.9914 26.9983L17.6936 29.6978C17.7656 29.741 17.848 29.7638 17.9319 29.7638C18.0159 29.7638 18.0983 29.741 18.1703 29.6978C18.2427 29.6559 18.3029 29.5957 18.3448 29.5232C18.3866 29.4507 18.4087 29.3685 18.4087 29.2849L18.4242 17.0105C18.4251 16.8431 18.3815 16.6783 18.2978 16.5333C18.2141 16.3882 18.0933 16.268 17.9477 16.1849L10.0207 11.6118C9.88669 11.5332 9.74406 11.507 9.59193 11.5008H9.49655ZM80.7287 11.6118C80.5631 11.6118 80.4008 11.6537 80.2523 11.7389L72.3252 16.3121C72.1801 16.3955 72.0595 16.5158 71.9758 16.6608C71.8921 16.8058 71.8482 16.9703 71.8485 17.1377V26.2837C71.8485 26.6278 72.0424 26.9394 72.3409 27.1095L80.2046 31.5873C80.4949 31.7528 80.8495 31.7654 81.1418 31.6028L85.9076 28.9512C86.0588 28.8673 86.161 28.7106 86.1617 28.5385C86.1625 28.4547 86.1408 28.3722 86.099 28.2995C86.0571 28.2269 85.9965 28.1669 85.9235 28.1256L77.9488 23.5524C77.7995 23.4673 77.6946 23.2949 77.6946 23.1236V20.2657C77.6946 20.0947 77.8006 19.938 77.9488 19.8528L80.4269 18.4236C80.4993 18.3817 80.5816 18.3596 80.6652 18.3596C80.7489 18.3596 80.8312 18.3817 80.9036 18.4236L83.3815 19.8528C83.4541 19.8945 83.5144 19.9546 83.5563 20.0271C83.5982 20.0996 83.6201 20.1818 83.62 20.2655V22.5203C83.6197 22.604 83.6417 22.6862 83.6835 22.7587C83.7253 22.8312 83.7856 22.8913 83.8582 22.933C84.0068 23.0188 84.1865 23.019 84.3347 22.933L89.0847 20.1706C89.2296 20.0868 89.35 19.9664 89.4336 19.8214C89.5173 19.6765 89.5614 19.5121 89.5614 19.3448V17.1379C89.5614 16.7969 89.3804 16.4833 89.0847 16.3121L81.2054 11.7389C81.0606 11.6552 80.896 11.6114 80.7287 11.612V11.6118ZM57.0269 18.4397C57.0684 18.4397 57.117 18.4499 57.1541 18.4713L59.8707 20.0433C59.9444 20.0859 59.9979 20.1646 59.9979 20.2496V23.3935C59.9979 23.479 59.9449 23.5575 59.8707 23.6001L57.1541 25.1721C57.1178 25.1928 57.0768 25.2037 57.035 25.2037C56.9932 25.2037 56.9521 25.1928 56.9159 25.1721L54.1995 23.6001C54.1255 23.5573 54.0723 23.479 54.0723 23.3935V20.2496C54.0723 20.1644 54.1257 20.0863 54.1995 20.0433L56.9159 18.4715C56.9492 18.4507 56.9878 18.4398 57.0271 18.4399V18.4397H57.0269Z" fill="#313339"/>
<path d="M33.3099 11.5645C33.1447 11.5645 32.9813 11.6064 32.8334 11.6916L24.9064 16.2488C24.6099 16.4194 24.4297 16.7487 24.4297 17.0903V26.2363C24.4297 26.5784 24.6101 26.8909 24.9064 27.0622L32.8334 31.6351C32.9781 31.7191 33.1426 31.7634 33.31 31.7634C33.4774 31.7634 33.6418 31.7191 33.7865 31.6351L41.7136 27.0622C41.8587 26.9786 41.9792 26.8583 42.0628 26.7133C42.1465 26.5683 42.1904 26.4037 42.19 26.2363V17.0903C42.19 16.7482 42.0099 16.4194 41.7136 16.2488L33.7865 11.6916C33.6416 11.6079 33.4772 11.5641 33.3099 11.5645ZM80.7133 19.7262C80.6817 19.7262 80.6466 19.7262 80.6181 19.7421L79.0931 20.6313C79.0647 20.6471 79.0409 20.6701 79.0241 20.6979C79.0074 20.7258 78.9983 20.7576 78.9977 20.7902V22.5367C78.9977 22.6025 79.0357 22.6627 79.0931 22.6956L80.6181 23.5689C80.6753 23.602 80.7362 23.602 80.7928 23.5689L82.3177 22.6954C82.3461 22.6795 82.3698 22.6565 82.3865 22.6287C82.4032 22.6009 82.4124 22.5692 82.4131 22.5367V20.7899C82.4124 20.7575 82.4032 20.7258 82.3865 20.698C82.3698 20.6701 82.3461 20.6471 82.3177 20.6313L80.7928 19.7419C80.7645 19.7253 80.7451 19.7264 80.7133 19.7264V19.7262Z" fill="#313339"/>
</g>
<defs>
<clipPath id="clip0_6720_122294">
<rect width="113.046" height="32" fill="white" transform="translate(0.476562)"/>
</clipPath>
</defs>
</svg>
