<svg width="76" height="24" viewBox="0 0 76 24" fill="none" xmlns="http://www.w3.org/2000/svg">
<g clip-path="url(#clip0_6900_117825)">
<path d="M24.75 12.189C24.75 10.5991 22.759 9.09234 19.7064 8.15797C20.4108 5.04668 20.0977 2.57134 18.7182 1.77884C18.4002 1.59295 18.0284 1.50489 17.6224 1.50489V2.5958C17.8474 2.5958 18.0284 2.63983 18.1801 2.72299C18.8454 3.10457 19.134 4.55748 18.909 6.42621C18.8552 6.88606 18.7671 7.37036 18.6595 7.86445C17.7007 7.62964 16.6538 7.44863 15.5531 7.33123C14.8927 6.42621 14.2078 5.60436 13.518 4.88524C15.1128 3.40298 16.6098 2.59091 17.6273 2.59091V1.5C16.282 1.5 14.5209 2.45883 12.7402 4.1221C10.9595 2.46861 9.19843 1.51957 7.85314 1.51957V2.61048C8.86578 2.61048 10.3676 3.41765 11.9624 4.89013C11.2775 5.60925 10.5926 6.42621 9.94201 7.33123C8.83643 7.44863 7.78954 7.62964 6.83072 7.86934C6.7182 7.38015 6.63504 6.90563 6.57633 6.45067C6.34641 4.58194 6.63015 3.12903 7.29056 2.74256C7.43732 2.6545 7.62811 2.61537 7.85314 2.61537V1.52446C7.44221 1.52446 7.07042 1.61252 6.74755 1.79841C5.37291 2.59091 5.06472 5.06135 5.77405 8.16286C2.73125 9.10212 0.75 10.604 0.75 12.189C0.75 13.7788 2.74103 15.2856 5.79362 16.2199C5.08918 19.3312 5.40226 21.8066 6.7818 22.5991C7.09978 22.785 7.47157 22.873 7.88249 22.873C9.22778 22.873 10.9889 21.9142 12.7696 20.2509C14.5502 21.9044 16.3114 22.8534 17.6566 22.8534C18.0676 22.8534 18.4394 22.7654 18.7622 22.5795C20.1369 21.787 20.4451 19.3165 19.7357 16.215C22.7688 15.2807 24.75 13.7739 24.75 12.189ZM18.3807 8.92601C18.1997 9.55707 17.9746 10.2077 17.7202 10.8583C17.5197 10.467 17.3093 10.0756 17.0794 9.68426C16.8544 9.29291 16.6147 8.91133 16.375 8.53954C17.0696 8.64227 17.7398 8.76947 18.3807 8.92601ZM16.1401 14.136C15.7586 14.7964 15.3672 15.4225 14.9612 16.0047C14.2323 16.0683 13.4936 16.1025 12.75 16.1025C12.0113 16.1025 11.2726 16.0683 10.5486 16.0096C10.1426 15.4274 9.74633 14.8062 9.36476 14.1506C8.99297 13.5098 8.65542 12.8592 8.34723 12.2036C8.65053 11.5481 8.99297 10.8926 9.35987 10.2517C9.74144 9.59132 10.1328 8.96514 10.5388 8.383C11.2677 8.3194 12.0064 8.28516 12.75 8.28516C13.4887 8.28516 14.2274 8.31941 14.9514 8.37811C15.3574 8.96025 15.7537 9.58153 16.1352 10.2371C16.507 10.8779 16.8446 11.5285 17.1528 12.1841C16.8446 12.8396 16.507 13.4951 16.1401 14.136ZM17.7202 13.5C17.9844 14.1555 18.2094 14.811 18.3953 15.447C17.7545 15.6035 17.0794 15.7356 16.3798 15.8384C16.6195 15.4617 16.8593 15.0752 17.0843 14.679C17.3093 14.2876 17.5197 13.8914 17.7202 13.5ZM12.7598 18.7197C12.3048 18.2501 11.8499 17.7267 11.3998 17.1543C11.8401 17.1739 12.2902 17.1885 12.7451 17.1885C13.205 17.1885 13.6599 17.1788 14.1051 17.1543C13.6648 17.7267 13.2098 18.2501 12.7598 18.7197ZM9.12016 15.8384C8.4255 15.7356 7.7553 15.6084 7.11445 15.4519C7.29545 14.8208 7.52048 14.1702 7.77487 13.5196C7.97544 13.9109 8.18579 14.3023 8.41572 14.6936C8.64564 15.085 8.88045 15.4666 9.12016 15.8384ZM12.7353 5.65817C13.1903 6.1278 13.6452 6.65124 14.0953 7.2236C13.655 7.20404 13.205 7.18936 12.75 7.18936C12.2902 7.18936 11.8352 7.19914 11.39 7.2236C11.8303 6.65124 12.2853 6.1278 12.7353 5.65817ZM9.11527 8.53954C8.87556 8.91622 8.63585 9.30269 8.41082 9.69894C8.18579 10.0903 7.97544 10.4817 7.77487 10.873C7.5107 10.2175 7.28567 9.56196 7.09978 8.92601C7.74062 8.77436 8.41572 8.64227 9.11527 8.53954ZM4.68804 14.6643C2.95628 13.9256 1.83602 12.957 1.83602 12.189C1.83602 11.4209 2.95628 10.4474 4.68804 9.71362C5.10875 9.53261 5.56859 9.37118 6.04311 9.21953C6.32195 10.1784 6.68885 11.1763 7.1438 12.1987C6.69374 13.2163 6.33174 14.2093 6.05779 15.1633C5.57348 15.0116 5.11364 14.8453 4.68804 14.6643ZM7.31991 21.6549C6.65461 21.2733 6.36598 19.8204 6.59101 17.9517C6.64482 17.4918 6.73288 17.0075 6.8405 16.5135C7.79933 16.7483 8.84621 16.9293 9.9469 17.0467C10.6073 17.9517 11.2922 18.7735 11.982 19.4927C10.3872 20.9749 8.89024 21.787 7.87271 21.787C7.65257 21.7821 7.46667 21.7381 7.31991 21.6549ZM18.9237 17.9272C19.1536 19.796 18.8699 21.2489 18.2094 21.6353C18.0627 21.7234 17.8719 21.7625 17.6469 21.7625C16.6342 21.7625 15.1324 20.9554 13.5376 19.4829C14.2225 18.7638 14.9074 17.9468 15.558 17.0418C16.6636 16.9244 17.7105 16.7434 18.6693 16.5037C18.7818 16.9978 18.8699 17.4723 18.9237 17.9272ZM20.8071 14.6643C20.3864 14.8453 19.9265 15.0067 19.452 15.1584C19.1732 14.1996 18.8063 13.2016 18.3513 12.1792C18.8014 11.1616 19.1634 10.1686 19.4373 9.21463C19.9216 9.36629 20.3815 9.53261 20.812 9.71362C22.5437 10.4523 23.664 11.4209 23.664 12.189C23.6591 12.957 22.5388 13.9305 20.8071 14.6643Z" fill="#313339"/>
<path d="M12.7473 14.4244C13.9821 14.4244 14.983 13.4235 14.983 12.1888C14.983 10.9541 13.9821 9.95312 12.7473 9.95312C11.5126 9.95312 10.5117 10.9541 10.5117 12.1888C10.5117 13.4235 11.5126 14.4244 12.7473 14.4244Z" fill="#313339"/>
</g>
<path d="M35.5808 13.2547H32.4927V18.5746H30.75V5.42383H35.1022C36.583 5.42383 37.7208 5.76127 38.5153 6.43571C39.3159 7.10968 39.7163 8.09134 39.7163 9.37978C39.7163 10.1989 39.4935 10.9123 39.0481 11.5208C38.6087 12.1288 37.9947 12.5835 37.2061 12.8843L40.2942 18.4661V18.5746H38.4341L35.5808 13.2547ZM32.4927 11.8367H35.1564C36.0172 11.8367 36.7004 11.6137 37.2061 11.1682C37.7177 10.7227 37.9736 10.1266 37.9736 9.37978C37.9736 8.56707 37.7298 7.94392 37.2422 7.51033C36.7606 7.07673 36.0623 6.85694 35.1473 6.85099H32.4927V11.8367ZM45.9468 18.7555C44.6223 18.7555 43.5448 18.3219 42.7141 17.4547C41.8833 16.5815 41.468 15.4163 41.468 13.9593V13.6521C41.468 12.6828 41.6516 11.8188 42.0188 11.0601C42.392 10.295 42.9097 9.69891 43.5718 9.27173C44.24 8.83813 44.9624 8.62111 45.7389 8.62111C47.0092 8.62111 47.9965 9.03959 48.7005 9.87657C49.405 10.7135 49.7569 11.9118 49.7569 13.4713V14.1668H43.1384C43.1625 15.1306 43.4424 15.9103 43.9782 16.5064C44.5199 17.0962 45.2062 17.3915 46.037 17.3915C46.627 17.3915 47.1264 17.2711 47.5356 17.0302C47.9452 16.7894 48.3032 16.4703 48.6103 16.0729L49.6306 16.8677C48.8117 18.1259 47.5841 18.7555 45.9468 18.7555ZM45.7389 9.99424C45.0647 9.99424 44.4989 10.241 44.0414 10.7346C43.5839 11.2227 43.301 11.909 43.1926 12.7941H48.0867V12.6677C48.0386 11.8188 47.8098 11.1622 47.4005 10.6984C46.9909 10.2291 46.437 9.99424 45.7389 9.99424ZM57.7302 18.5746C57.6336 18.3819 57.5553 18.0389 57.4954 17.5449C56.7186 18.3516 55.7917 18.7555 54.7142 18.7555C53.7511 18.7555 52.9597 18.4844 52.3395 17.9423C51.7257 17.3942 51.4185 16.702 51.4185 15.865C51.4185 14.8476 51.8039 14.0587 52.5743 13.4987C53.3506 12.9323 54.4405 12.6494 55.843 12.6494H57.4684V11.882C57.4684 11.2978 57.2935 10.834 56.9447 10.491C56.5955 10.1417 56.0805 9.96722 55.4003 9.96722C54.8044 9.96722 54.305 10.1174 53.9017 10.4187C53.4984 10.7195 53.2966 11.084 53.2966 11.5116H51.6172C51.6172 11.024 51.7888 10.5542 52.1317 10.1023C52.4809 9.64488 52.9505 9.28363 53.5406 9.01853C54.1365 8.75388 54.7893 8.62111 55.4997 8.62111C56.6257 8.62111 57.5073 8.90405 58.1453 9.47043C58.7834 10.0304 59.1144 10.8042 59.1386 11.7914V16.2894C59.1386 17.1868 59.2531 17.9002 59.4819 18.4299V18.5746H57.7302ZM54.9582 17.3013C55.4818 17.3013 55.9784 17.1658 56.4481 16.8947C56.9172 16.6237 57.2573 16.2716 57.4684 15.838V13.833H56.1588C54.1123 13.833 53.0888 14.4319 53.0888 15.6301C53.0888 16.1539 53.2636 16.5637 53.6124 16.8585C53.9617 17.1534 54.4102 17.3013 54.9582 17.3013ZM65.6759 17.3915C66.2719 17.3915 66.7928 17.2106 67.2382 16.8494C67.6836 16.4881 67.9303 16.0367 67.9783 15.4946H69.5589C69.5287 16.0545 69.336 16.5875 68.9808 17.0934C68.6256 17.5994 68.15 18.0027 67.554 18.3036C66.964 18.6048 66.3383 18.7555 65.6759 18.7555C64.3458 18.7555 63.2861 18.3127 62.4975 17.4277C61.7152 16.5362 61.3238 15.3201 61.3238 13.7785V13.4987C61.3238 12.5473 61.4982 11.7012 61.8475 10.9608C62.1967 10.22 62.6961 9.64489 63.3465 9.23556C64.0025 8.82577 64.776 8.62111 65.6668 8.62111C66.7626 8.62111 67.6717 8.94939 68.394 9.60597C69.1222 10.2621 69.5104 11.1142 69.5589 12.1618H67.9783C67.9303 11.5295 67.6895 11.0116 67.256 10.6082C66.829 10.1989 66.2989 9.99424 65.6668 9.99424C64.8182 9.99424 64.159 10.301 63.6894 10.9155C63.2262 11.5235 62.9941 12.4058 62.9941 13.5619V13.8778C62.9941 15.0037 63.2262 15.8709 63.6894 16.479C64.1531 17.0875 64.8154 17.3915 65.6759 17.3915ZM73.7032 6.43571V8.80196H75.5272V10.0936H73.7032V16.1539C73.7032 16.5454 73.7847 16.8402 73.9472 17.0389C74.1097 17.2317 74.3866 17.3283 74.7779 17.3283C74.9702 17.3283 75.2352 17.2921 75.5721 17.2198V18.5746C75.1327 18.695 74.7056 18.7555 74.29 18.7555C73.5439 18.7555 72.9809 18.5293 72.6014 18.0778C72.2224 17.6264 72.0329 16.9849 72.0329 16.1539V10.0936H70.2537V8.80196H72.0329V6.43571H73.7032Z" fill="#313339"/>
<defs>
<clipPath id="clip0_6900_117825">
<rect width="24" height="24" fill="white" transform="translate(0.75)"/>
</clipPath>
</defs>
</svg>
