<svg width="32" height="32" viewBox="0 0 32 32" fill="none" xmlns="http://www.w3.org/2000/svg">
<path d="M15.3954 3.37439L10.3832 22.5663L9.00048 16.0826C11.0169 16.0826 12.6877 16.7165 14.0127 17.9845C15.3378 19.2524 16.0004 20.9526 16.0004 23.085C16.0004 25.2175 15.3378 26.9465 14.0127 28.272C12.6877 29.54 11.0457 30.1739 9.0869 30.1739C5.00002 30.1739 3.42647 28.5021 2.10139 27.1766C0.77631 25.851 0.11377 24.1508 0.11377 22.076C0.11377 21.3844 0.142576 20.7504 0.200188 20.1741C0.315412 19.5401 2.40388 19.7999 2.69194 18.9354C2.98 18.0709 3.38329 16.9759 3.9018 15.6503L8.48197 3.37439L13.6004 1.77441L15.3954 3.37439Z" fill="url(#paint0_radial_3629_3081)"/>
<path d="M31.3949 3.37439L26.3827 22.5663L25 16.0826C27.0164 16.0826 28.6872 16.7165 30.0123 17.9845C31.3373 19.2524 31.9999 20.9526 31.9999 23.085C31.9999 25.2175 31.3373 26.9465 30.0123 28.272C28.6872 29.54 27.0452 30.1739 25.0864 30.1739C20.9995 30.1739 19.426 28.5021 18.1009 27.1766C16.7758 25.851 16.1133 24.1508 16.1133 22.076C16.1133 21.3844 16.1421 20.7504 16.1997 20.1741C16.3149 19.5401 18.4034 19.7999 18.6915 18.9354C18.9795 18.0709 19.3828 16.9759 19.9013 15.6503L24.4815 3.37439L29.5999 1.77441L31.3949 3.37439Z" fill="url(#paint1_radial_3629_3081)"/>
<path d="M13.5998 1.77441L8.38258 20.9664L6.99989 14.4826C9.01631 14.4826 10.6871 15.1166 12.0121 16.3845C13.3372 17.6524 13.9998 19.3526 13.9998 21.4851C13.9998 23.6175 13.3372 25.3465 12.0121 26.6721C10.6871 27.94 9.04512 28.574 7.0863 28.574C5.01226 28.574 3.3127 27.9112 1.98762 26.5856C0.662541 25.26 0 23.5599 0 21.4851C0 20.7935 0.0288062 20.1595 0.0864184 19.5832C0.201643 18.9492 0.403286 18.1999 0.691347 17.3354C0.979408 16.4709 1.38269 15.3759 1.9012 14.0503L6.48137 1.77441H13.5998Z" fill="url(#paint2_linear_3629_3081)"/>
<path d="M29.5993 1.77441L24.3821 20.9664L22.9994 14.4826C25.0158 14.4826 26.6866 15.1166 28.0117 16.3845C29.3367 17.6524 29.9993 19.3526 29.9993 21.4851C29.9993 23.6175 29.3367 25.3465 28.0117 26.6721C26.6866 27.94 25.0446 28.574 23.0858 28.574C21.0118 28.574 19.3122 27.9112 17.9871 26.5856C16.6621 25.26 15.9995 23.5599 15.9995 21.4851C15.9995 20.7935 16.0283 20.1595 16.0859 19.5832C16.2012 18.9492 16.4028 18.1999 16.6909 17.3354C16.9789 16.4709 17.3822 15.3759 17.9007 14.0503L22.4809 1.77441H29.5993Z" fill="url(#paint3_linear_3629_3081)"/>
<defs>
<radialGradient id="paint0_radial_3629_3081" cx="0" cy="0" r="1" gradientUnits="userSpaceOnUse" gradientTransform="translate(4.51798 6.93796) rotate(69.7884) scale(21.3981 16.1069)">
<stop stop-color="#E7E7E7"/>
<stop offset="1" stop-color="#DADADA"/>
</radialGradient>
<radialGradient id="paint1_radial_3629_3081" cx="0" cy="0" r="1" gradientUnits="userSpaceOnUse" gradientTransform="translate(20.5175 6.93796) rotate(69.7884) scale(21.3981 16.1069)">
<stop stop-color="#E7E7E7"/>
<stop offset="1" stop-color="#DADADA"/>
</radialGradient>
<linearGradient id="paint2_linear_3629_3081" x1="7.55556" y1="-6.67003" x2="6.99988" y2="28.574" gradientUnits="userSpaceOnUse">
<stop offset="1" stop-color="#EFF1F4"/>
<stop offset="1" stop-color="#EFF1F4"/>
</linearGradient>
<linearGradient id="paint3_linear_3629_3081" x1="22.9994" y1="1.77441" x2="22.9994" y2="28.574" gradientUnits="userSpaceOnUse">
<stop offset="1" stop-color="#EFF1F4"/>
<stop offset="1" stop-color="#EFF1F4"/>
</linearGradient>
</defs>
</svg>
