<svg width="32" height="32" viewBox="0 0 32 32" fill="none" xmlns="http://www.w3.org/2000/svg">
<path d="M16.6046 28.6256L21.6168 9.43367L22.9995 15.9174C20.9831 15.9174 19.3123 15.2835 17.9873 14.0155C16.6622 12.7476 15.9996 11.0474 15.9996 8.91496C15.9996 6.78253 16.6622 5.05353 17.9873 3.72796C19.3123 2.46002 20.9543 1.82605 22.9131 1.82605C27 1.82605 28.5735 3.49785 29.8986 4.82342C31.2237 6.14899 31.8862 7.84918 31.8862 9.92398C31.8862 10.6156 31.8574 11.2496 31.7998 11.8259C31.6846 12.4599 29.5961 12.2001 29.3081 13.0646C29.02 13.9291 28.6167 15.0241 28.0982 16.3497L23.518 28.6256L18.3996 30.2256L16.6046 28.6256Z" fill="url(#paint0_radial_3629_3092)"/>
<path d="M0.605052 28.6256L5.61732 9.43367L7.00001 15.9174C4.98358 15.9174 3.31283 15.2835 1.98775 14.0155C0.662664 12.7476 0.000123978 11.0474 0.000123978 8.91496C0.000123978 6.78253 0.662664 5.05353 1.98775 3.72796C3.31283 2.46002 4.95478 1.82605 6.91359 1.82605C11.0005 1.82605 12.574 3.49785 13.8991 4.82342C15.2242 6.14899 15.8867 7.84918 15.8867 9.92398C15.8867 10.6156 15.8579 11.2496 15.8003 11.8259C15.6851 12.4599 13.5966 12.2001 13.3085 13.0646C13.0205 13.9291 12.6172 15.0241 12.0987 16.3497L7.51852 28.6256L2.40009 30.2256L0.605052 28.6256Z" fill="url(#paint1_radial_3629_3092)"/>
<path d="M18.4002 30.2256L23.6174 11.0336L25.0001 17.5174C22.9837 17.5174 21.3129 16.8834 19.9879 15.6155C18.6628 14.3476 18.0002 12.6474 18.0002 10.5149C18.0002 8.3825 18.6628 6.6535 19.9879 5.32793C21.3129 4.06 22.9549 3.42603 24.9137 3.42603C26.9877 3.42603 28.6873 4.08881 30.0124 5.41438C31.3375 6.73995 32 8.44014 32 10.5149C32 11.2065 31.9712 11.8405 31.9136 12.4168C31.7984 13.0508 31.5967 13.8001 31.3087 14.6646C31.0206 15.5291 30.6173 16.6241 30.0988 17.9497L25.5186 30.2256H18.4002Z" fill="url(#paint2_linear_3629_3092)"/>
<path d="M2.40071 30.2256L7.61791 11.0336L9.0006 17.5174C6.98418 17.5174 5.31342 16.8834 3.98834 15.6155C2.66326 14.3476 2.00072 12.6474 2.00072 10.5149C2.00072 8.3825 2.66326 6.6535 3.98834 5.32793C5.31342 4.06 6.95537 3.42603 8.91419 3.42603C10.9882 3.42603 12.6878 4.08881 14.0129 5.41438C15.3379 6.73995 16.0005 8.44014 16.0005 10.5149C16.0005 11.2065 15.9717 11.8405 15.9141 12.4168C15.7988 13.0508 15.5972 13.8001 15.3091 14.6646C15.0211 15.5291 14.6178 16.6241 14.0993 17.9497L9.51911 30.2256H2.40071Z" fill="url(#paint3_linear_3629_3092)"/>
<defs>
<radialGradient id="paint0_radial_3629_3092" cx="0" cy="0" r="1" gradientUnits="userSpaceOnUse" gradientTransform="translate(27.482 25.062) rotate(-110.212) scale(21.3981 16.1069)">
<stop stop-color="#E7E7E7"/>
<stop offset="1" stop-color="#DADADA"/>
</radialGradient>
<radialGradient id="paint1_radial_3629_3092" cx="0" cy="0" r="1" gradientUnits="userSpaceOnUse" gradientTransform="translate(11.4825 25.062) rotate(-110.212) scale(21.3981 16.1069)">
<stop stop-color="#E7E7E7"/>
<stop offset="1" stop-color="#DADADA"/>
</radialGradient>
<linearGradient id="paint2_linear_3629_3092" x1="24.4444" y1="38.67" x2="25.0001" y2="3.42603" gradientUnits="userSpaceOnUse">
<stop offset="1" stop-color="#EFF1F4"/>
<stop offset="1" stop-color="#EFF1F4"/>
</linearGradient>
<linearGradient id="paint3_linear_3629_3092" x1="9.0006" y1="30.2256" x2="9.0006" y2="3.42603" gradientUnits="userSpaceOnUse">
<stop offset="1" stop-color="#EFF1F4"/>
<stop offset="1" stop-color="#EFF1F4"/>
</linearGradient>
</defs>
</svg>
