<svg width="107" height="24" viewBox="0 0 107 24" fill="none" xmlns="http://www.w3.org/2000/svg">
<g clip-path="url(#clip0_151_27530)">
<path fill-rule="evenodd" clipRule="evenodd" d="M24 0H0V24H24V0ZM5.26172 13.02V12.042L5.27972 12.048V11.064L9.47972 11.046C11.7897 11.046 13.6917 11.052 13.6917 11.07C13.7157 11.082 13.7157 11.52 13.7157 12.06V13.02H10.5957V21.9H8.38172V13.02H5.26172ZM20.7837 11.898C20.3637 11.46 19.8957 11.184 19.2837 11.04L19.2957 11.028C18.8817 10.92 17.8917 10.884 17.4717 10.968C16.1757 11.208 15.2697 12.048 15.0117 13.248C14.9277 13.59 14.9577 14.442 15.0477 14.79C15.1677 15.192 15.4257 15.678 15.7077 15.99C16.1997 16.506 16.7277 16.842 17.9697 17.37C19.0497 17.85 19.4337 18.066 19.6257 18.33C19.7637 18.54 19.8057 18.666 19.8057 18.942C19.8057 19.242 19.7097 19.458 19.4877 19.662C18.9717 20.13 17.9277 20.184 17.1477 19.782C16.8897 19.638 16.4457 19.218 16.2477 18.906L16.0917 18.696L15.4137 19.092L14.5137 19.614L14.2857 19.758C14.2617 19.8 14.6877 20.442 14.9097 20.682C15.4737 21.3 16.3917 21.78 17.3517 21.96C17.8017 22.038 18.7617 22.05 19.1817 21.978C20.5197 21.756 21.4557 21.078 21.8397 20.076C22.1817 19.158 22.0677 17.934 21.5577 17.154C21.1077 16.458 20.3637 15.972 18.6477 15.234C17.7177 14.826 17.4177 14.628 17.2557 14.298C17.1837 14.142 17.1477 14.034 17.1477 13.842C17.1477 13.212 17.6277 12.834 18.3477 12.882C18.8457 12.918 19.1637 13.11 19.4757 13.554C19.5717 13.71 19.6677 13.812 19.6917 13.794C20.3217 13.404 21.3597 12.702 21.3597 12.666C21.3357 12.558 21.0057 12.138 20.7837 11.898Z" fill="#313339"/>
</g>
<path d="M41.7174 7.39087H38.5336V17.25H37.2416V7.39087H34.0654V6.22192H41.7174V7.39087Z" fill="#313339"/>
<path d="M48.6772 9.375L45.0551 18.5112C44.4091 20.1416 43.5016 20.9568 42.3326 20.9568C42.0045 20.9568 41.7302 20.9235 41.5098 20.8568V19.7263C41.7815 19.8186 42.0302 19.8647 42.2557 19.8647C42.8915 19.8647 43.3683 19.4854 43.6862 18.7266L44.3168 17.2346L41.2406 9.375H42.6403L44.7705 15.4351C44.7961 15.512 44.85 15.7119 44.932 16.0349H44.9781C45.0038 15.9119 45.0551 15.717 45.132 15.4504L47.3699 9.375H48.6772Z" fill="#313339"/>
<path d="M51.3304 16.1118H51.2997V20.8722H50.0385V9.375H51.2997V10.7593H51.3304C51.9508 9.71338 52.8583 9.19043 54.0529 9.19043C55.068 9.19043 55.8601 9.54419 56.4292 10.2517C56.9983 10.9541 57.2828 11.8975 57.2828 13.0818C57.2828 14.3994 56.9624 15.4556 56.3215 16.2502C55.6807 17.0398 54.804 17.4346 53.6914 17.4346C52.6711 17.4346 51.8842 16.9937 51.3304 16.1118ZM51.2997 12.9357V14.0354C51.2997 14.6865 51.5099 15.2402 51.9303 15.6965C52.3558 16.1477 52.8942 16.3733 53.5453 16.3733C54.3092 16.3733 54.9065 16.0811 55.3372 15.4966C55.7729 14.9121 55.9908 14.0995 55.9908 13.0587C55.9908 12.182 55.7883 11.495 55.3833 10.9977C54.9783 10.5004 54.4297 10.2517 53.7375 10.2517C53.0044 10.2517 52.4148 10.5081 51.9688 11.0208C51.5227 11.5283 51.2997 12.1666 51.2997 12.9357Z" fill="#313339"/>
<path d="M65.627 13.6278H60.0668C60.0873 14.5045 60.3231 15.1813 60.7743 15.6581C61.2255 16.1349 61.8458 16.3733 62.6354 16.3733C63.5223 16.3733 64.3375 16.0811 65.0809 15.4966V16.6809C64.3888 17.1833 63.4736 17.4346 62.3354 17.4346C61.2229 17.4346 60.3488 17.0782 59.713 16.3656C59.0773 15.6478 58.7594 14.6404 58.7594 13.3433C58.7594 12.1179 59.1055 11.1207 59.7976 10.3517C60.4949 9.57751 61.3588 9.19043 62.3893 9.19043C63.4198 9.19043 64.217 9.52368 64.781 10.1902C65.345 10.8567 65.627 11.7821 65.627 12.9664V13.6278ZM64.335 12.5588C64.3298 11.8308 64.153 11.2643 63.8043 10.8593C63.4608 10.4542 62.9814 10.2517 62.3662 10.2517C61.7715 10.2517 61.2665 10.4645 60.8512 10.89C60.4359 11.3156 60.1796 11.8718 60.0822 12.5588H64.335Z" fill="#313339"/>
<path d="M67.1958 16.804V15.2812C67.3701 15.4351 67.5778 15.5735 67.8187 15.6965C68.0648 15.8196 68.3212 15.9247 68.5878 16.0118C68.8595 16.0939 69.1312 16.158 69.403 16.2041C69.6747 16.2502 69.9259 16.2733 70.1566 16.2733C70.9513 16.2733 71.5435 16.1272 71.9331 15.835C72.3279 15.5376 72.5253 15.1121 72.5253 14.5583C72.5253 14.261 72.4586 14.0021 72.3253 13.7816C72.1971 13.5612 72.0177 13.3612 71.787 13.1818C71.5563 12.9972 71.282 12.8229 70.9641 12.6588C70.6514 12.4896 70.313 12.3127 69.949 12.1282C69.5645 11.9333 69.2056 11.736 68.8723 11.536C68.5391 11.3361 68.2494 11.1156 68.0033 10.8746C67.7572 10.6337 67.5624 10.3619 67.4188 10.0594C67.2804 9.75183 67.2112 9.39294 67.2112 8.98279C67.2112 8.48035 67.3214 8.04456 67.5419 7.67542C67.7623 7.30115 68.052 6.99353 68.4109 6.75256C68.7698 6.5116 69.1774 6.33215 69.6337 6.21423C70.0951 6.09631 70.5642 6.03735 71.041 6.03735C72.1279 6.03735 72.92 6.16809 73.4174 6.42957V7.88306C72.7662 7.43188 71.9305 7.2063 70.9103 7.2063C70.6283 7.2063 70.3463 7.23706 70.0643 7.29858C69.7823 7.35498 69.5311 7.44983 69.3107 7.58313C69.0902 7.71643 68.9108 7.88818 68.7723 8.09839C68.6339 8.30859 68.5647 8.56494 68.5647 8.86743C68.5647 9.14941 68.616 9.39294 68.7185 9.59802C68.8262 9.8031 68.9825 9.99023 69.1876 10.1594C69.3927 10.3286 69.6414 10.4927 69.9336 10.6516C70.231 10.8105 70.5719 10.9849 70.9564 11.1746C71.3512 11.3694 71.7255 11.5745 72.0792 11.7898C72.433 12.0051 72.7432 12.2435 73.0098 12.505C73.2764 12.7665 73.4866 13.0562 73.6404 13.374C73.7993 13.6919 73.8788 14.0559 73.8788 14.4661C73.8788 15.0095 73.7711 15.4709 73.5558 15.8503C73.3456 16.2246 73.0585 16.5297 72.6945 16.7655C72.3356 17.0013 71.9203 17.1705 71.4486 17.2731C70.9769 17.3807 70.4796 17.4346 69.9567 17.4346C69.7823 17.4346 69.567 17.4192 69.3107 17.3884C69.0543 17.3628 68.7928 17.3218 68.5262 17.2654C68.2596 17.2141 68.0059 17.15 67.7649 17.0731C67.5291 16.9911 67.3394 16.9014 67.1958 16.804Z" fill="#313339"/>
<path d="M81.277 16.8885C80.672 17.2526 79.9542 17.4346 79.1237 17.4346C78.0009 17.4346 77.0934 17.0706 76.4012 16.3425C75.7142 15.6094 75.3707 14.6609 75.3707 13.4971C75.3707 12.2 75.7424 11.1592 76.4858 10.3748C77.2292 9.58521 78.2213 9.19043 79.462 9.19043C80.1542 9.19043 80.7643 9.3186 81.2924 9.57495V10.8669C80.7079 10.4568 80.0824 10.2517 79.4159 10.2517C78.611 10.2517 77.9496 10.5414 77.4318 11.1207C76.9191 11.6949 76.6627 12.4512 76.6627 13.3894C76.6627 14.3123 76.9037 15.0403 77.3856 15.5735C77.8727 16.1067 78.5238 16.3733 79.339 16.3733C80.026 16.3733 80.672 16.1451 81.277 15.6888V16.8885Z" fill="#313339"/>
<path d="M87.2909 10.6516C87.0704 10.4824 86.7526 10.3978 86.3373 10.3978C85.799 10.3978 85.3478 10.6516 84.9838 11.1592C84.6249 11.6667 84.4454 12.3589 84.4454 13.2356V17.25H83.1842V9.375H84.4454V10.9977H84.4762C84.6556 10.444 84.9299 10.0133 85.2991 9.70569C85.6682 9.39294 86.0809 9.23657 86.5372 9.23657C86.8654 9.23657 87.1166 9.27246 87.2909 9.34424V10.6516Z" fill="#313339"/>
<path d="M89.3058 7.37549C89.0802 7.37549 88.8879 7.29858 88.729 7.14478C88.5701 6.99097 88.4906 6.79614 88.4906 6.5603C88.4906 6.32446 88.5701 6.12964 88.729 5.97583C88.8879 5.81689 89.0802 5.73743 89.3058 5.73743C89.5365 5.73743 89.7313 5.81689 89.8903 5.97583C90.0543 6.12964 90.1364 6.32446 90.1364 6.5603C90.1364 6.78589 90.0543 6.97815 89.8903 7.13708C89.7313 7.29602 89.5365 7.37549 89.3058 7.37549ZM89.921 17.25H88.6598V9.375H89.921V17.25Z" fill="#313339"/>
<path d="M93.7662 16.1118H93.7355V20.8722H92.4742V9.375H93.7355V10.7593H93.7662C94.3866 9.71338 95.2941 9.19043 96.4886 9.19043C97.5038 9.19043 98.2959 9.54419 98.865 10.2517C99.4341 10.9541 99.7186 11.8975 99.7186 13.0818C99.7186 14.3994 99.3982 15.4556 98.7573 16.2502C98.1165 17.0398 97.2397 17.4346 96.1272 17.4346C95.1069 17.4346 94.3199 16.9937 93.7662 16.1118ZM93.7355 12.9357V14.0354C93.7355 14.6865 93.9457 15.2402 94.3661 15.6965C94.7916 16.1477 95.33 16.3733 95.9811 16.3733C96.745 16.3733 97.3423 16.0811 97.7729 15.4966C98.2087 14.9121 98.4266 14.0995 98.4266 13.0587C98.4266 12.182 98.2241 11.495 97.8191 10.9977C97.4141 10.5004 96.8655 10.2517 96.1733 10.2517C95.4402 10.2517 94.8506 10.5081 94.4045 11.0208C93.9585 11.5283 93.7355 12.1666 93.7355 12.9357Z" fill="#313339"/>
<path d="M105.386 17.1731C105.089 17.3372 104.697 17.4192 104.21 17.4192C102.831 17.4192 102.141 16.6501 102.141 15.1121V10.4517H100.788V9.375H102.141V7.45239L103.402 7.0448V9.375H105.386V10.4517H103.402V14.889C103.402 15.4171 103.492 15.7939 103.672 16.0195C103.851 16.2451 104.148 16.3579 104.564 16.3579C104.881 16.3579 105.156 16.2708 105.386 16.0964V17.1731Z" fill="#313339"/>
<defs>
<clipPath id="clip0_151_27530">
<rect width="24" height="24" fill="white"/>
</clipPath>
</defs>
</svg>
