<svg width="80" height="24" viewBox="0 0 80 24" fill="none" xmlns="http://www.w3.org/2000/svg">
<path d="M14.7715 2.25L12 7.05L9.22848 2.25H0L12 23.035L24 2.25H14.7715Z" fill="#313339"/>
<path d="M14.7723 2.25L12.0008 7.05L9.22926 2.25H4.80078L12.0008 14.7204L19.2008 2.25H14.7723Z" fill="#8A8F94"/>
<path d="M33.7344 6.75L37.2969 16.8516H37.4375L41 6.75H42.5234L38.1172 18.75H36.6172L32.2109 6.75H33.7344Z" fill="#313339"/>
<path d="M49.877 15.0703V9.75H51.2598V18.75H49.877V17.2266H49.7832C49.5723 17.6836 49.2441 18.0723 48.7988 18.3926C48.3535 18.709 47.791 18.8672 47.1113 18.8672C46.5488 18.8672 46.0488 18.7441 45.6113 18.498C45.1738 18.248 44.8301 17.873 44.5801 17.373C44.3301 16.8691 44.2051 16.2344 44.2051 15.4688V9.75H45.5879V15.375C45.5879 16.0312 45.7715 16.5547 46.1387 16.9453C46.5098 17.3359 46.9824 17.5312 47.5566 17.5312C47.9004 17.5312 48.25 17.4434 48.6055 17.2676C48.9648 17.0918 49.2656 16.8223 49.5078 16.459C49.7539 16.0957 49.877 15.6328 49.877 15.0703Z" fill="#313339"/>
<path d="M57.5659 18.9375C56.6987 18.9375 55.9507 18.7461 55.3218 18.3633C54.6968 17.9766 54.2144 17.4375 53.8745 16.7461C53.5386 16.0508 53.3706 15.2422 53.3706 14.3203C53.3706 13.3984 53.5386 12.5859 53.8745 11.8828C54.2144 11.1758 54.687 10.625 55.2925 10.2305C55.9019 9.83203 56.6128 9.63281 57.4253 9.63281C57.894 9.63281 58.3569 9.71094 58.814 9.86719C59.271 10.0234 59.687 10.2773 60.062 10.6289C60.437 10.9766 60.7358 11.4375 60.9585 12.0117C61.1812 12.5859 61.2925 13.293 61.2925 14.1328V14.7188H54.355V13.5234H59.8862C59.8862 13.0156 59.7847 12.5625 59.5815 12.1641C59.3823 11.7656 59.0972 11.4512 58.7261 11.2207C58.3589 10.9902 57.9253 10.875 57.4253 10.875C56.8745 10.875 56.3979 11.0117 55.9956 11.2852C55.5972 11.5547 55.2905 11.9062 55.0757 12.3398C54.8608 12.7734 54.7534 13.2383 54.7534 13.7344V14.5312C54.7534 15.2109 54.8706 15.7871 55.105 16.2598C55.3433 16.7285 55.6733 17.0859 56.0952 17.332C56.5171 17.5742 57.0073 17.6953 57.5659 17.6953C57.9292 17.6953 58.2573 17.6445 58.5503 17.543C58.8472 17.4375 59.103 17.2812 59.3179 17.0742C59.5327 16.8633 59.6987 16.6016 59.8159 16.2891L61.1519 16.6641C61.0112 17.1172 60.7749 17.5156 60.4429 17.8594C60.1108 18.1992 59.7007 18.4648 59.2124 18.6562C58.7241 18.8438 58.1753 18.9375 57.5659 18.9375Z" fill="#313339"/>
<path d="M64.4038 18.8438C64.1147 18.8438 63.8667 18.7402 63.6597 18.5332C63.4526 18.3262 63.3491 18.0781 63.3491 17.7891C63.3491 17.5 63.4526 17.252 63.6597 17.0449C63.8667 16.8379 64.1147 16.7344 64.4038 16.7344C64.6929 16.7344 64.9409 16.8379 65.1479 17.0449C65.355 17.252 65.4585 17.5 65.4585 17.7891C65.4585 17.9805 65.4097 18.1562 65.312 18.3164C65.2183 18.4766 65.0913 18.6055 64.9312 18.7031C64.7749 18.7969 64.5991 18.8438 64.4038 18.8438Z" fill="#313339"/>
<path d="M67.9399 9.75H69.3228V19.4062C69.3228 19.9609 69.2271 20.4414 69.0356 20.8477C68.8481 21.2539 68.563 21.5684 68.1802 21.791C67.8013 22.0137 67.3228 22.125 66.7446 22.125C66.6978 22.125 66.6509 22.125 66.604 22.125C66.5571 22.125 66.5103 22.125 66.4634 22.125V20.8359C66.5103 20.8359 66.5532 20.8359 66.5923 20.8359C66.6313 20.8359 66.6743 20.8359 66.7212 20.8359C67.1431 20.8359 67.4517 20.7109 67.647 20.4609C67.8423 20.2148 67.9399 19.8633 67.9399 19.4062V9.75ZM68.6196 8.25C68.3501 8.25 68.1177 8.1582 67.9224 7.97461C67.731 7.79102 67.6353 7.57031 67.6353 7.3125C67.6353 7.05469 67.731 6.83398 67.9224 6.65039C68.1177 6.4668 68.3501 6.375 68.6196 6.375C68.8892 6.375 69.1196 6.4668 69.311 6.65039C69.5063 6.83398 69.604 7.05469 69.604 7.3125C69.604 7.57031 69.5063 7.79102 69.311 7.97461C69.1196 8.1582 68.8892 8.25 68.6196 8.25Z" fill="#313339"/>
<path d="M78.2305 11.7656L76.9883 12.1172C76.9102 11.9102 76.7949 11.709 76.6426 11.5137C76.4941 11.3145 76.291 11.1504 76.0332 11.0215C75.7754 10.8926 75.4453 10.8281 75.043 10.8281C74.4922 10.8281 74.0332 10.9551 73.666 11.209C73.3027 11.459 73.1211 11.7773 73.1211 12.1641C73.1211 12.5078 73.2461 12.7793 73.4961 12.9785C73.7461 13.1777 74.1367 13.3438 74.668 13.4766L76.0039 13.8047C76.8086 14 77.4082 14.2988 77.8027 14.7012C78.1973 15.0996 78.3945 15.6133 78.3945 16.2422C78.3945 16.7578 78.2461 17.2188 77.9492 17.625C77.6562 18.0312 77.2461 18.3516 76.7188 18.5859C76.1914 18.8203 75.5781 18.9375 74.8789 18.9375C73.9609 18.9375 73.2012 18.7383 72.5996 18.3398C71.998 17.9414 71.6172 17.3594 71.457 16.5938L72.7695 16.2656C72.8945 16.75 73.1309 17.1133 73.4785 17.3555C73.8301 17.5977 74.2891 17.7188 74.8555 17.7188C75.5 17.7188 76.0117 17.582 76.3906 17.3086C76.7734 17.0312 76.9648 16.6992 76.9648 16.3125C76.9648 16 76.8555 15.7383 76.6367 15.5273C76.418 15.3125 76.082 15.1523 75.6289 15.0469L74.1289 14.6953C73.3047 14.5 72.6992 14.1973 72.3125 13.7871C71.9297 13.373 71.7383 12.8555 71.7383 12.2344C71.7383 11.7266 71.8809 11.2773 72.166 10.8867C72.4551 10.4961 72.8477 10.1895 73.3438 9.9668C73.8438 9.74414 74.4102 9.63281 75.043 9.63281C75.9336 9.63281 76.6328 9.82812 77.1406 10.2187C77.6523 10.6094 78.0156 11.125 78.2305 11.7656Z" fill="#313339"/>
</svg>
